<svg width="17" height="16" viewBox="0 0 17 16" fill="none" xmlns="http://www.w3.org/2000/svg">
<path d="M8.94995 0.524608L15.8 7.39961C15.9 7.49961 15.9708 7.59544 16.0125 7.68711C16.0541 7.77878 16.075 7.88294 16.075 7.99961C16.075 8.11628 16.0541 8.22044 16.0125 8.31211C15.9708 8.40378 15.9 8.49961 15.8 8.59961L8.92495 15.4996C8.75829 15.6496 8.56245 15.7246 8.33745 15.7246C8.11245 15.7246 7.91662 15.6413 7.74995 15.4746C7.56662 15.2913 7.47495 15.0871 7.47495 14.8621C7.47495 14.6371 7.56662 14.4413 7.74995 14.2746L13.15 8.84961L1.12495 8.84961C0.874952 8.84961 0.670787 8.77044 0.512453 8.61211C0.354119 8.45377 0.274952 8.24961 0.274952 7.99961C0.274952 7.74961 0.354119 7.54544 0.512453 7.38711C0.670787 7.22877 0.874952 7.14961 1.12495 7.14961L13.15 7.14961L7.72495 1.69961C7.55829 1.54961 7.47495 1.36211 7.47495 1.13711C7.47495 0.912109 7.56662 0.707941 7.74995 0.524608C7.91662 0.357941 8.11245 0.274608 8.33745 0.274608C8.56245 0.274608 8.76662 0.357941 8.94995 0.524608Z" fill="white"/>
</svg>
