<svg width="1209" height="1183" viewBox="0 0 1209 1183" fill="none" xmlns="http://www.w3.org/2000/svg">
<path d="M1022.76 45.8544C1115.36 132.921 1160.85 265.023 1186.49 392.275C1212.12 519.526 1217.89 641.928 1193.18 765.485C1168.47 889.041 1113.05 1013.75 1017.45 1081.88C922.078 1150.24 786.295 1162.02 641.967 1173.8C497.87 1185.35 344.999 1196.89 227.92 1135.69C110.841 1074.49 29.3253 940.312 6.6947 803.129C-15.705 665.947 21.012 525.531 73.6627 398.741C126.313 271.951 194.898 158.787 293.733 73.7989C392.569 -10.9586 521.656 -67.5405 656.054 -75.1618C790.221 -82.5521 930.161 -40.9816 1022.76 45.8544Z" fill="black" fill-opacity="0.04"/>
</svg>
