<svg width="20" height="16" viewBox="0 0 20 16" fill="none" xmlns="http://www.w3.org/2000/svg">
<path d="M16.0651 9.28889C15.8603 9.28889 15.6937 9.22222 15.5655 9.08889C15.4372 8.95556 15.3731 8.79034 15.3731 8.59324V6.65122H13.4311C13.2273 6.65122 13.0604 6.5842 12.9304 6.45016C12.8004 6.31613 12.7354 6.15005 12.7354 5.95191C12.7354 5.74709 12.8004 5.58055 12.9304 5.45229C13.0604 5.32404 13.2273 5.25991 13.4311 5.25991H15.3731V3.31789C15.3731 3.11411 15.4384 2.94722 15.5691 2.81722C15.6998 2.68722 15.8656 2.62222 16.0665 2.62222C16.2674 2.62222 16.4339 2.68722 16.5661 2.81722C16.6983 2.94722 16.7644 3.11411 16.7644 3.31789V5.25991H18.7064C18.9035 5.25991 19.0687 5.32526 19.2021 5.45595C19.3354 5.58665 19.4021 5.75244 19.4021 5.95333C19.4021 6.15422 19.3354 6.32075 19.2021 6.45293C19.0687 6.58513 18.9035 6.65122 18.7064 6.65122H16.7644V8.59324C16.7644 8.79034 16.6974 8.95556 16.5634 9.08889C16.4293 9.22222 16.2632 9.28889 16.0651 9.28889ZM7.55877 7.82514C6.55026 7.82514 5.72626 7.50679 5.08679 6.8701C4.44733 6.2334 4.1276 5.41275 4.1276 4.40814C4.1276 3.40352 4.44676 2.58206 5.08508 1.94377C5.7234 1.30547 6.54602 0.986328 7.55294 0.986328C8.55985 0.986328 9.38246 1.30547 10.0207 1.94377C10.659 2.58206 10.9782 3.40352 10.9782 4.40814C10.9782 5.41275 10.6596 6.2334 10.0224 6.8701C9.38527 7.50679 8.56405 7.82514 7.55877 7.82514ZM1.41113 15.1132C1.17908 15.1132 0.983542 15.0337 0.8245 14.8746C0.665458 14.7156 0.585938 14.5201 0.585938 14.288V12.8416C0.585938 12.295 0.727403 11.8031 1.01033 11.3656C1.29328 10.9282 1.67899 10.5962 2.16746 10.3695C3.22483 9.90333 4.17026 9.57453 5.00375 9.3831C5.83724 9.19168 6.68779 9.09597 7.55542 9.09597C8.42239 9.09597 9.2739 9.19168 10.11 9.3831C10.946 9.57453 11.8819 9.90333 12.9175 10.3695C13.4117 10.6 13.8024 10.9308 14.0894 11.3619C14.3763 11.7929 14.5198 12.2846 14.5198 12.8369V14.288C14.5198 14.5201 14.4403 14.7156 14.2813 14.8746C14.1222 15.0337 13.9267 15.1132 13.6946 15.1132H1.41113ZM2.24808 13.4628H12.8695V12.884C12.8695 12.6665 12.8119 12.4589 12.6969 12.2613C12.5819 12.0637 12.4102 11.918 12.182 11.8242C11.2411 11.3756 10.4368 11.0857 9.76898 10.9547C9.10113 10.8236 8.36245 10.7581 7.55294 10.7581C6.75912 10.7581 6.02239 10.8271 5.34275 10.9651C4.6631 11.1031 3.85376 11.3895 2.91475 11.8242C2.69857 11.918 2.53342 12.0637 2.41929 12.2613C2.30515 12.4589 2.24808 12.6665 2.24808 12.884V13.4628ZM7.55248 6.17475C8.06694 6.17475 8.49144 6.00808 8.82598 5.67477C9.16052 5.34143 9.32779 4.91856 9.32779 4.40616C9.32779 3.89051 9.16112 3.46669 8.82779 3.1347C8.49447 2.80272 8.0716 2.63672 7.55919 2.63672C7.0408 2.63672 6.6163 2.8029 6.28569 3.13524C5.95506 3.46759 5.78975 3.88928 5.78975 4.40031C5.78975 4.91459 5.95492 5.3389 6.28527 5.67324C6.6156 6.00758 7.03801 6.17475 7.55248 6.17475Z" fill="black"/>
</svg>
