<svg width="20" height="20" viewBox="0 0 20 20" fill="none" xmlns="http://www.w3.org/2000/svg">
<g clip-path="url(#clip0_309_24241)">
<path d="M10.7916 6.48145V1.6481C10.7916 1.38143 10.8828 1.15695 11.0651 0.974647C11.2474 0.79233 11.4719 0.701172 11.7385 0.701172H18.3501C18.6168 0.701172 18.8413 0.79233 19.0236 0.974647C19.2059 1.15695 19.2971 1.38143 19.2971 1.6481V6.48145C19.2971 6.74811 19.2059 6.97261 19.0236 7.15492C18.8413 7.33722 18.6168 7.42837 18.3501 7.42837H11.7385C11.4719 7.42837 11.2474 7.33722 11.0651 7.15492C10.8828 6.97261 10.7916 6.74811 10.7916 6.48145ZM0.699219 10.014V1.6481C0.699219 1.38143 0.790377 1.15695 0.972694 0.974647C1.15499 0.79233 1.37948 0.701172 1.64614 0.701172H8.25774C8.52441 0.701172 8.7489 0.79233 8.93122 0.974647C9.11352 1.15695 9.20467 1.38143 9.20467 1.6481V10.014C9.20467 10.2807 9.11352 10.5052 8.93122 10.6875C8.7489 10.8698 8.52441 10.961 8.25774 10.961H1.64614C1.37948 10.961 1.15499 10.8698 0.972694 10.6875C0.790377 10.5052 0.699219 10.2807 0.699219 10.014ZM10.7916 18.3342V9.96822C10.7916 9.70155 10.8828 9.47706 11.0651 9.29475C11.2474 9.11245 11.4719 9.0213 11.7385 9.0213H18.3501C18.6168 9.0213 18.8413 9.11245 19.0236 9.29475C19.2059 9.47706 19.2971 9.70155 19.2971 9.96822V18.3342C19.2971 18.6035 19.2059 18.8293 19.0236 19.0116C18.8413 19.1939 18.6168 19.2851 18.3501 19.2851H11.7385C11.4719 19.2851 11.2474 19.1939 11.0651 19.0116C10.8828 18.8293 10.7916 18.6035 10.7916 18.3342ZM0.699219 18.3342V13.5008C0.699219 13.2341 0.790377 13.0096 0.972694 12.8273C1.15499 12.645 1.37948 12.5539 1.64614 12.5539H8.25774C8.52441 12.5539 8.7489 12.645 8.93122 12.8273C9.11352 13.0096 9.20467 13.2341 9.20467 13.5008V18.3342C9.20467 18.6035 9.11352 18.8293 8.93122 19.0116C8.7489 19.1939 8.52441 19.2851 8.25774 19.2851H1.64614C1.37948 19.2851 1.15499 19.1939 0.972694 19.0116C0.790377 18.8293 0.699219 18.6035 0.699219 18.3342ZM2.59704 9.06712H7.31084V2.59502H2.59704V9.06712ZM12.6894 17.3872H17.4032V10.9191H12.6894V17.3872ZM12.6894 5.53455H17.4032V2.59502H12.6894V5.53455ZM2.59704 17.3872H7.31084V14.4517H2.59704V17.3872Z" fill="black"/>
</g>
<defs>
<clipPath id="clip0_309_24241">
<rect width="20" height="20" fill="white"/>
</clipPath>
</defs>
</svg>
