<svg width="20" height="20" viewBox="0 0 20 20" fill="none" xmlns="http://www.w3.org/2000/svg">
<path d="M3.02147 10.7952V12.8115H16.9762V10.7952H3.02147ZM7.9327 18.1349C7.66156 18.2853 7.39389 18.2801 7.1297 18.1193C6.8655 17.9585 6.73341 17.7173 6.73341 17.3958V14.4619H3.02147C2.56762 14.4619 2.17909 14.3003 1.85589 13.9771C1.53269 13.6539 1.37109 13.2654 1.37109 12.8115V3.02347C1.37109 2.56639 1.53269 2.17509 1.85589 1.84958C2.17909 1.52408 2.56762 1.36133 3.02147 1.36133H16.9762C17.4333 1.36133 17.8246 1.52408 18.1501 1.84958C18.4756 2.17509 18.6383 2.56639 18.6383 3.02347V12.8115C18.6383 13.2654 18.4756 13.6539 18.1501 13.9771C17.8246 14.3003 17.4333 14.4619 16.9762 14.4619H13.276V17.3958C13.276 17.7173 13.1419 17.9585 12.8738 18.1193C12.6057 18.2801 12.3361 18.2853 12.0649 18.1349L9.99882 17.0869L7.9327 18.1349ZM3.02147 8.27437H16.9762V3.02347H3.02147V8.27437Z" fill="black"/>
</svg>
