<svg width="20" height="20" viewBox="0 0 20 20" fill="none" xmlns="http://www.w3.org/2000/svg">
<path d="M6.68734 17.0914C6.23625 17.0914 5.84841 16.9272 5.52382 16.5986C5.19925 16.2701 5.03697 15.8803 5.03697 15.4293V14.0769C5.03697 13.8414 5.11562 13.645 5.27293 13.4877C5.43023 13.3304 5.62664 13.2517 5.86216 13.2517H7.72628V10.6059C7.22206 10.624 6.71194 10.5373 6.19593 10.3459C5.67993 10.1545 5.22145 9.86524 4.82049 9.47817V8.30517H3.82593L1.57411 6.06513C1.42314 5.91415 1.34766 5.73647 1.34766 5.53206C1.34766 5.32765 1.42314 5.17079 1.57411 5.0615C2.05781 4.69676 2.60461 4.40237 3.21451 4.17833C3.82441 3.95431 4.4319 3.84229 5.03697 3.84229C5.41439 3.84229 5.85672 3.9063 6.36397 4.03431C6.87121 4.16234 7.32531 4.36041 7.72628 4.62852V3.72363C7.72628 3.48811 7.80493 3.2917 7.96224 3.1344C8.11955 2.97709 8.31596 2.89844 8.55147 2.89844H16.9691C17.2046 2.89844 17.4029 2.97709 17.5642 3.1344C17.7254 3.2917 17.806 3.48811 17.806 3.72363V14.5977C17.806 15.2874 17.5628 15.8754 17.0764 16.3618C16.59 16.8482 16.002 17.0914 15.3123 17.0914H6.68734ZM9.37666 13.2517H13.6556C13.8912 13.2517 14.0876 13.3304 14.2449 13.4877C14.4022 13.645 14.4808 13.8414 14.4808 14.0769V14.5977C14.4808 14.852 14.5578 15.0541 14.7118 15.2042C14.8658 15.3542 15.066 15.4293 15.3123 15.4293C15.5587 15.4293 15.7589 15.3542 15.9129 15.2042C16.0669 15.0541 16.1439 14.852 16.1439 14.5977V4.5606H9.37666V5.77165L13.7616 10.1566C13.8606 10.2556 13.9404 10.3527 14.0007 10.4478C14.0611 10.5429 14.0913 10.6578 14.0913 10.7925C14.0913 10.9887 14.0244 11.1537 13.8907 11.2875C13.7569 11.4212 13.5919 11.4881 13.3957 11.4881C13.261 11.4881 13.1481 11.4579 13.0569 11.3975C12.9657 11.3372 12.8745 11.2614 12.7833 11.1702L10.6411 9.01621L10.3341 9.38577C10.1771 9.57055 10.024 9.71065 9.87484 9.80606C9.72569 9.90146 9.55963 9.99385 9.37666 10.0832V13.2517ZM4.43553 6.92562H6.20003V8.80333C6.42043 8.94826 6.6413 9.05696 6.86262 9.12942C7.08393 9.20189 7.30872 9.23812 7.53697 9.23812C7.8685 9.23812 8.20893 9.14437 8.55826 8.95687C8.90759 8.76937 9.15382 8.59018 9.29693 8.41929L9.62755 8.03794L8.24893 6.64754C7.80448 6.2031 7.31037 5.85437 6.76659 5.60135C6.22282 5.34834 5.64628 5.22183 5.03697 5.22183C4.67768 5.22183 4.35703 5.26501 4.07503 5.35135C3.79302 5.4377 3.50407 5.55334 3.20818 5.69827L4.43553 6.92562ZM6.68734 15.4293H13.1221C13.0309 15.3616 12.9595 15.2569 12.9079 15.1149C12.8563 14.973 12.8304 14.8118 12.8304 14.6313H6.68734V15.4293Z" fill="black"/>
</svg>
