<svg width="20" height="20" viewBox="0 0 20 20" fill="none" xmlns="http://www.w3.org/2000/svg">
<path d="M5.24297 15.2926C4.29496 15.2926 3.48686 14.9613 2.8187 14.2988C2.1505 13.6362 1.81641 12.8272 1.81641 11.8717C1.81641 10.9162 2.1503 10.1083 2.81807 9.44794C3.48582 8.78761 4.29485 8.45744 5.24516 8.45744C6.19545 8.45744 7.00273 8.78854 7.66699 9.45075C8.33124 10.1129 8.66336 10.9207 8.66336 11.8739C8.66336 12.8271 8.3303 13.6352 7.66418 14.2981C6.99804 14.9611 6.19097 15.2926 5.24297 15.2926ZM5.24495 13.6422C5.74198 13.6422 6.15894 13.4717 6.49584 13.1305C6.83275 12.7894 7.0012 12.3697 7.0012 11.8715C7.0012 11.3732 6.83188 10.9547 6.49324 10.616C6.1546 10.2772 5.73791 10.1078 5.24318 10.1078C4.74843 10.1078 4.33064 10.2783 3.98982 10.6192C3.64899 10.9602 3.47857 11.3796 3.47857 11.8776C3.47857 12.3724 3.64871 12.7902 3.98899 13.131C4.32925 13.4718 4.74791 13.6422 5.24495 13.6422ZM13.9385 11.5471C12.6083 11.5471 11.4778 11.0827 10.547 10.1537C9.61611 9.2248 9.15068 8.09904 9.15068 6.77646C9.15068 5.45388 9.61595 4.32715 10.5465 3.39629C11.477 2.46543 12.6074 2 13.9375 2C15.2676 2 16.3955 2.46527 17.3212 3.39581C18.2468 4.32635 18.7096 5.45408 18.7096 6.77898C18.7096 8.10387 18.2469 9.22979 17.3216 10.1567C16.3963 11.0837 15.2686 11.5471 13.9385 11.5471ZM12.1346 18.3189C11.4207 18.3189 10.814 18.0635 10.3146 17.5528C9.81523 17.0421 9.56553 16.4298 9.56553 15.7158C9.56553 15.0019 9.81605 14.3933 10.3171 13.89C10.8181 13.3867 11.4256 13.135 12.1395 13.135C12.8534 13.135 13.4649 13.3875 13.974 13.8924C14.4831 14.3974 14.7377 15.0068 14.7377 15.7208C14.7377 16.4347 14.4823 17.0462 13.9716 17.5553C13.4608 18.0644 12.8485 18.3189 12.1346 18.3189ZM13.9259 9.89675C14.804 9.89675 15.5458 9.59658 16.1512 8.99625C16.7565 8.39593 17.0592 7.6585 17.0592 6.78396C17.0592 5.9061 16.7585 5.16437 16.1569 4.55877C15.5554 3.95317 14.8165 3.65038 13.9403 3.65038C13.0582 3.65038 12.3165 3.95113 11.715 4.55265C11.1136 5.15416 10.8128 5.89305 10.8128 6.76931C10.8128 7.6489 11.1122 8.39004 11.7108 8.99273C12.3094 9.59541 13.0478 9.89675 13.9259 9.89675ZM12.1353 16.6568C12.4053 16.6568 12.6295 16.5688 12.8079 16.3928C12.9863 16.2169 13.0755 15.9959 13.0755 15.7298C13.0755 15.4637 12.9875 15.2398 12.8116 15.058C12.6356 14.8763 12.4146 14.7854 12.1485 14.7854C11.8825 14.7854 11.6605 14.8748 11.4827 15.0536C11.3048 15.2324 11.2159 15.4539 11.2159 15.7182C11.2159 15.9882 11.3031 16.2121 11.4774 16.39C11.6517 16.5678 11.871 16.6568 12.1353 16.6568Z" fill="black"/>
</svg>
