<svg width="18" height="18" viewBox="0 0 18 18" fill="none" xmlns="http://www.w3.org/2000/svg">
<g clip-path="url(#clip0_309_24250)">
<path d="M8.99863 8.89789C7.84893 8.89789 6.89485 8.51866 6.13638 7.76019C5.37793 7.00174 4.99871 6.04766 4.99871 4.89796C4.99871 3.74826 5.37793 2.79425 6.13638 2.03594C6.89485 1.2776 7.84893 0.898438 8.99863 0.898438C10.1483 0.898438 11.1033 1.2776 11.8637 2.03594C12.624 2.79425 13.0041 3.74826 13.0041 4.89796C13.0041 6.04766 12.624 7.00174 11.8637 7.76019C11.1033 8.51866 10.1483 8.89789 8.99863 8.89789ZM15.273 17.2533H2.72588C2.20098 17.2533 1.75411 17.0682 1.38528 16.698C1.01645 16.3278 0.832031 15.8816 0.832031 15.3595V14.574C0.832031 13.9338 0.994739 13.3711 1.32016 12.8859C1.64556 12.4007 2.06962 12.0315 2.59236 11.7785C3.69056 11.269 4.76566 10.8865 5.81766 10.631C6.86967 10.3756 7.92991 10.2479 8.99836 10.2479C10.0745 10.2479 11.1355 10.3781 12.1815 10.6384C13.2275 10.8987 14.2965 11.2792 15.3885 11.7798C15.9264 12.0305 16.3579 12.3978 16.6831 12.8817C17.0082 13.3656 17.1708 13.9297 17.1708 14.574V15.3595C17.1708 15.8816 16.986 16.3278 16.6164 16.698C16.2468 17.0682 15.799 17.2533 15.273 17.2533ZM2.72588 15.3595H15.273V14.5999C15.273 14.364 15.2049 14.1417 15.0688 13.9331C14.9327 13.7244 14.7619 13.568 14.5563 13.4638C13.5638 12.9827 12.6256 12.6427 11.7418 12.4439C10.858 12.2451 9.94324 12.1457 8.99746 12.1457C8.05964 12.1457 7.14061 12.2451 6.24038 12.4439C5.34013 12.6427 4.40253 12.9825 3.42758 13.4632C3.22088 13.5674 3.05226 13.7239 2.92171 13.9327C2.79116 14.1415 2.72588 14.3639 2.72588 14.5999V15.3595ZM8.99856 7.00404C9.59854 7.00404 10.0998 6.80297 10.5024 6.40084C10.905 5.99869 11.1063 5.49753 11.1063 4.89736C11.1063 4.2961 10.9053 3.79493 10.5033 3.39386C10.1013 2.9928 9.60029 2.79226 9.00031 2.79226C8.40032 2.79226 7.89903 2.99298 7.49643 3.39441C7.09383 3.79585 6.89253 4.29615 6.89253 4.89531C6.89253 5.49615 7.09354 5.99781 7.49556 6.40031C7.89757 6.8028 8.39857 7.00404 8.99856 7.00404Z" fill="black"/>
</g>
<defs>
<clipPath id="clip0_309_24250">
<rect width="18" height="18" fill="white"/>
</clipPath>
</defs>
</svg>
