<svg width="20" height="20" viewBox="0 0 20 20" fill="none" xmlns="http://www.w3.org/2000/svg">
<path d="M14.5264 12.2382C13.9192 12.2382 13.4067 12.0293 12.9888 11.6114C12.5709 11.1935 12.362 10.681 12.362 10.0738C12.362 9.46658 12.5709 8.95404 12.9888 8.53616C13.4067 8.1183 13.9192 7.90937 14.5264 7.90937C15.1336 7.90937 15.6462 8.1183 16.064 8.53616C16.4819 8.95404 16.6908 9.46658 16.6908 10.0738C16.6908 10.681 16.4819 11.1935 16.064 11.6114C15.6462 12.0293 15.1336 12.2382 14.5264 12.2382ZM11.0622 17.1132C10.8301 17.1132 10.6346 17.0337 10.4756 16.8746C10.3165 16.7156 10.237 16.5201 10.237 16.288V15.8552C10.237 15.4467 10.3251 15.0975 10.5015 14.8078C10.6778 14.518 10.9206 14.2919 11.2298 14.1295C11.7515 13.8656 12.287 13.6712 12.8362 13.5462C13.3854 13.4212 13.9497 13.3587 14.5291 13.3587C15.1085 13.3587 15.668 13.4177 16.2076 13.5357C16.7471 13.6538 17.2817 13.8517 17.8113 14.1295C18.1205 14.278 18.3652 14.5016 18.5454 14.8002C18.7257 15.0987 18.8158 15.4488 18.8158 15.8505V16.288C18.8158 16.5201 18.7341 16.7156 18.5706 16.8746C18.4072 17.0337 18.2099 17.1132 17.9789 17.1132H11.0622ZM8.15396 9.82514C7.14933 9.82514 6.32868 9.50679 5.692 8.8701C5.05531 8.2334 4.73696 7.41275 4.73696 6.40814C4.73696 5.40352 5.05531 4.58206 5.692 3.94377C6.32868 3.30547 7.14933 2.98633 8.15396 2.98633C9.15858 2.98633 9.982 3.30547 10.6242 3.94377C11.2664 4.58206 11.5875 5.40352 11.5875 6.40814C11.5875 7.41275 11.2664 8.2334 10.6242 8.8701C9.982 9.50679 9.15858 9.82514 8.15396 9.82514ZM2.02048 17.1132C1.78845 17.1132 1.59291 17.0337 1.43385 16.8746C1.27483 16.7156 1.19531 16.5201 1.19531 16.288V14.8958C1.19531 14.3294 1.32514 13.8208 1.58479 13.37C1.84446 12.9192 2.22147 12.5873 2.71583 12.3742C3.70275 11.9387 4.63535 11.6168 5.51365 11.4085C6.39195 11.2001 7.27436 11.096 8.16088 11.096C8.49724 11.096 8.83103 11.1099 9.16225 11.1376C9.49347 11.1654 9.73275 11.1962 9.88008 11.23V12.1091C9.72432 12.2002 9.59585 12.2952 9.49469 12.3941C9.39352 12.4931 9.30127 12.6195 9.21794 12.7735C9.06878 12.7614 8.90771 12.7559 8.73471 12.7568C8.56171 12.7577 8.37006 12.7581 8.15977 12.7581C7.38672 12.7581 6.63567 12.8321 5.90663 12.9801C5.17758 13.128 4.37949 13.4094 3.51235 13.8242C3.31791 13.9215 3.15819 14.0706 3.03319 14.2716C2.90819 14.4726 2.84569 14.6779 2.84569 14.8873V15.4628H8.98698V17.1132H2.02048ZM8.15396 8.17475C8.66582 8.17475 9.08902 8.00808 9.42356 7.67477C9.7581 7.34143 9.92537 6.91856 9.92537 6.40616C9.92537 5.89051 9.7589 5.46669 9.42596 5.1347C9.09301 4.80272 8.67061 4.63672 8.15875 4.63672C7.64689 4.63672 7.22369 4.8029 6.88915 5.13524C6.55462 5.46759 6.38735 5.88928 6.38735 6.40031C6.38735 6.91459 6.55382 7.3389 6.88675 7.67324C7.21969 8.00758 7.6421 8.17475 8.15396 8.17475Z" fill="black"/>
</svg>
