<svg width="24" height="24" viewBox="0 0 24 24" fill="none" xmlns="http://www.w3.org/2000/svg">
<path d="M12.9502 4.52461L19.8002 11.3996C19.9002 11.4996 19.971 11.5954 20.0127 11.6871C20.0544 11.7788 20.0752 11.8829 20.0752 11.9996C20.0752 12.1163 20.0544 12.2204 20.0127 12.3121C19.971 12.4038 19.9002 12.4996 19.8002 12.5996L12.9252 19.4996C12.7585 19.6496 12.5627 19.7246 12.3377 19.7246C12.1127 19.7246 11.9169 19.6413 11.7502 19.4746C11.5669 19.2913 11.4752 19.0871 11.4752 18.8621C11.4752 18.6371 11.5669 18.4413 11.7502 18.2746L17.1502 12.8496L5.1252 12.8496C4.8752 12.8496 4.67103 12.7704 4.5127 12.6121C4.35436 12.4538 4.2752 12.2496 4.2752 11.9996C4.2752 11.7496 4.35436 11.5454 4.5127 11.3871C4.67103 11.2288 4.8752 11.1496 5.1252 11.1496L17.1502 11.1496L11.7252 5.69961C11.5585 5.54961 11.4752 5.36211 11.4752 5.13711C11.4752 4.91211 11.5669 4.70794 11.7502 4.52461C11.9169 4.35794 12.1127 4.27461 12.3377 4.27461C12.5627 4.27461 12.7669 4.35794 12.9502 4.52461Z" fill="white"/>
</svg>
