<svg width="1137" height="1184" viewBox="0 0 1137 1184" fill="none" xmlns="http://www.w3.org/2000/svg">
<path d="M961.854 114.595C1048.94 196.476 1091.72 320.708 1115.83 440.379C1139.94 560.05 1145.36 675.161 1122.13 791.357C1098.89 907.553 1046.77 1024.83 956.859 1088.91C867.167 1153.19 739.47 1164.27 603.738 1175.35C468.222 1186.21 324.455 1197.07 214.348 1139.51C104.242 1081.96 27.5807 955.769 6.29784 826.758C-14.7678 697.748 19.7625 565.697 69.2777 446.46C118.793 327.224 183.293 220.801 276.242 140.875C369.192 61.1668 490.591 7.95554 616.985 0.788299C743.162 -6.16175 874.768 32.9323 961.854 114.595Z" fill="white" fill-opacity="0.1"/>
</svg>
