<svg width="159" height="141" viewBox="0 0 159 141" fill="none" xmlns="http://www.w3.org/2000/svg">
<path d="M9.99702 62.2459C13.5087 49.5522 23.4247 39.0005 33.855 30.5033C44.2853 22.006 55.23 15.5634 67.7527 11.8587C80.2753 8.15406 94.387 7.20861 105.251 12.6795C116.125 18.1181 123.762 29.9943 131.812 42.6536C139.829 55.3028 148.271 68.7564 148.313 82.444C148.355 96.1315 139.988 110.085 128.502 118.787C117.005 127.468 102.357 130.887 88.1884 132.186C74.02 133.486 60.3314 132.667 47.7656 127.715C35.2208 122.751 23.7988 113.653 16.6096 101.703C9.45279 89.763 6.50656 74.9285 9.99702 62.2459Z" fill="#F54E02"/>
<path d="M0.773319 66.094C0.954396 64.8138 1.18705 63.5462 1.47288 62.2947L1.96033 62.4061C2.10226 61.7847 2.25742 61.1675 2.42601 60.5548C2.5929 59.9516 2.77277 59.3526 2.96514 58.7578L2.4894 58.6039C2.87873 57.4001 3.31852 56.2138 3.80465 55.045L4.26631 55.237C4.74624 54.0832 5.27201 52.946 5.83968 51.8254L5.39365 51.5995C5.96357 50.4745 6.57506 49.3666 7.2241 48.2758L7.65379 48.5315C8.29289 47.4574 8.969 46.3996 9.67827 45.3579L9.26498 45.0765C9.97441 44.0346 10.7165 43.0092 11.4873 42.0003L11.8846 42.3039C12.6449 41.3087 13.4337 40.3293 14.2473 39.3656L13.8652 39.043C14.6794 38.0787 15.5179 37.1303 16.377 36.1979L16.7447 36.5367C17.5962 35.6126 18.4683 34.704 19.3574 33.8109L19.003 33.4581C19.8956 32.5615 20.8048 31.6807 21.7273 30.8157L22.0693 31.1804C22.9895 30.3174 23.923 29.4699 24.8662 28.6379L24.5354 28.2629C25.4873 27.4232 26.4488 26.5994 27.4161 25.7914L27.7366 26.1752C28.2215 25.7702 28.7079 25.3691 29.1954 24.972C29.7638 24.5089 30.3335 24.0513 30.9047 23.5993L30.5944 23.2072C31.7506 22.2921 32.9128 21.3995 34.0824 20.5301L34.3807 20.9314C35.5589 20.0555 36.7444 19.2034 37.9381 18.3758L37.6532 17.9649C38.8632 17.1261 40.0818 16.3123 41.3103 15.5241L41.5803 15.945C42.8131 15.1541 44.0557 14.3893 45.3093 13.6514L45.0557 13.2205C46.3218 12.4753 47.5992 11.7573 48.8893 11.0673L49.1251 11.5082C50.4126 10.8196 51.7126 10.159 53.0263 9.5273L52.8096 9.07668C54.1299 8.44183 55.4641 7.83591 56.8135 7.25974L57.0098 7.71958C58.348 7.14819 59.7012 6.60624 61.0705 6.0945L60.8954 5.62614C62.2632 5.11496 63.6472 4.63374 65.0485 4.18326L65.2015 4.65927C65.8939 4.43668 66.5906 4.22164 67.2916 4.01425C67.9784 3.81106 68.6695 3.61527 69.3641 3.42737L69.2336 2.94471C70.6235 2.56872 72.0278 2.22406 73.4416 1.91453L73.5485 2.40296C74.9508 2.09595 76.362 1.82377 77.7773 1.59012L77.6959 1.09679C79.1238 0.861057 80.5561 0.664247 81.9879 0.51016L82.0414 1.00729C83.4735 0.853157 84.9045 0.742123 86.3293 0.677968L86.3068 0.178474C87.7583 0.113112 89.204 0.0960147 90.6385 0.131187L90.6263 0.631037C92.0683 0.666394 93.4981 0.755001 94.9103 0.900873L94.9616 0.403519C96.4093 0.553056 97.8394 0.762276 99.2463 1.03555L99.1509 1.52637C100.563 1.80065 101.95 2.13997 103.307 2.54865L103.451 2.0699C104.841 2.48854 106.2 2.97938 107.522 3.54713L107.324 4.00655C107.979 4.28782 108.625 4.58814 109.26 4.90807L109.261 4.90869C109.821 5.18877 110.374 5.4843 110.919 5.79466L111.166 5.3601C112.266 5.98592 113.336 6.6708 114.381 7.40978L114.092 7.81791C115.108 8.53708 116.1 9.30873 117.071 10.1284L117.393 9.74635C118.354 10.5574 119.293 11.4143 120.214 12.3125L119.865 12.6704C120.757 13.54 121.631 14.4494 122.492 15.3945L122.862 15.0578C123.707 15.9862 124.538 16.9481 125.358 17.9397L124.972 18.2582C125.768 19.2215 126.554 20.2136 127.331 21.2308L127.728 20.9273C128.492 21.9271 129.247 22.9506 129.996 23.9943L129.59 24.2858C130.322 25.3054 131.047 26.3448 131.77 27.4009L132.182 27.1187C132.894 28.1598 133.602 29.2166 134.308 30.2862L133.891 30.5617C134.585 31.6133 135.278 32.6776 135.971 33.7518L136.391 33.4807C137.076 34.5431 137.761 35.6147 138.448 36.6927L138.026 36.9614C138.367 37.4959 138.708 38.0321 139.05 38.5696C139.415 39.1463 139.781 39.7242 140.148 40.3036L140.57 40.0364C141.3 41.1901 142.03 42.3496 142.755 43.5144L142.33 43.7787C143.053 44.9385 143.77 46.1032 144.477 47.2725L144.905 47.0137C145.614 48.1865 146.314 49.3643 146.998 50.5468L146.565 50.7973C147.252 51.9827 147.923 53.1723 148.573 54.3658L149.012 54.1265C149.67 55.3344 150.308 56.5468 150.919 57.7632L150.473 57.9878C151.089 59.2132 151.678 60.4422 152.235 61.6743L152.69 61.4684C153.258 62.7255 153.793 63.9865 154.289 65.2512L153.824 65.4338C154.324 66.7098 154.785 67.9887 155.199 69.27L155.675 69.1162C156.099 70.4292 156.476 71.7456 156.798 73.065L156.312 73.1837C156.636 74.5098 156.905 75.8379 157.111 77.1676L157.605 77.0909C157.816 78.4489 157.964 79.8097 158.04 81.1728L157.541 81.2009C157.579 81.8758 157.6 82.551 157.602 83.2265C157.604 83.8883 157.588 84.5509 157.555 85.2136L158.055 85.2383C157.989 86.5752 157.853 87.9122 157.653 89.2455L157.159 89.1712C156.963 90.4774 156.703 91.7804 156.384 93.0764L156.869 93.196C156.55 94.493 156.171 95.7825 155.737 97.0608L155.264 96.9001C154.839 98.1523 154.36 99.394 153.831 100.622L154.29 100.819C153.76 102.047 153.181 103.26 152.556 104.455L152.113 104.224C151.498 105.398 150.838 106.555 150.136 107.692L150.561 107.955C149.857 109.094 149.111 110.213 148.327 111.307L147.921 111.015C147.146 112.096 146.334 113.153 145.486 114.183L145.872 114.5C145.019 115.537 144.131 116.546 143.211 117.525L142.847 117.182C141.934 118.154 140.989 119.094 140.016 120.001L140.357 120.367C139.372 121.285 138.359 122.168 137.32 123.013L137.004 122.625C136.487 123.045 135.963 123.457 135.434 123.858C134.899 124.261 134.358 124.655 133.811 125.039L134.099 125.448C132.992 126.225 131.861 126.962 130.709 127.66L130.45 127.233C129.304 127.927 128.137 128.584 126.95 129.205L127.182 129.648C125.987 130.273 124.772 130.863 123.541 131.417L123.336 130.962C122.115 131.512 120.877 132.028 119.625 132.513L119.806 132.979C118.549 133.466 117.278 133.92 115.995 134.345L115.838 133.87C114.565 134.291 113.281 134.683 111.988 135.047L112.123 135.528C110.825 135.893 109.518 136.231 108.203 136.543L108.088 136.056C106.782 136.366 105.468 136.651 104.15 136.912L104.247 137.403C102.923 137.665 101.594 137.904 100.263 138.121L100.182 137.628C98.8535 137.845 97.5227 138.04 96.1917 138.216L96.2572 138.712C94.9158 138.889 93.5746 139.047 92.2359 139.186L92.184 138.689C91.514 138.759 90.8445 138.825 90.1759 138.886C89.5355 138.945 88.896 139 88.2575 139.05L88.2973 139.549C87.0091 139.652 85.7247 139.738 84.4444 139.807L84.4174 139.308C83.1313 139.377 81.8496 139.429 80.5726 139.462L80.5855 139.962C79.2937 139.995 78.0065 140.009 76.7244 140.003L76.7268 139.503C75.4399 139.497 74.1584 139.47 72.8826 139.421L72.8634 139.921C71.5725 139.871 70.2871 139.799 69.0078 139.703L69.0451 139.205C67.7637 139.109 66.4886 138.989 65.2203 138.845L65.1635 139.341C63.8812 139.195 62.6054 139.023 61.3367 138.824L61.4142 138.33C60.1472 138.131 58.8875 137.905 57.6356 137.651L57.5361 138.141C56.2733 137.884 55.0181 137.599 53.771 137.284L53.8936 136.799C52.6535 136.486 51.4216 136.142 50.1984 135.767L50.0519 136.245C48.8228 135.869 47.6021 135.46 46.3904 135.02L46.5613 134.55C45.9613 134.331 45.3634 134.105 44.7678 133.87C44.171 133.634 43.5764 133.389 42.9843 133.137L42.788 133.596C41.5998 133.089 40.4218 132.549 39.256 131.977L39.4764 131.528C38.3242 130.962 37.184 130.365 36.0579 129.737L35.8144 130.174C34.6852 129.544 33.5702 128.884 32.4713 128.194L32.7372 127.771C31.6492 127.088 30.5773 126.375 29.5233 125.634L29.2357 126.043C28.1775 125.299 27.1372 124.526 26.1171 123.726L26.4258 123.332C25.4147 122.539 24.4234 121.718 23.4541 120.871L23.125 121.247C22.1506 120.395 21.1981 119.517 20.2696 118.612L20.6184 118.254C19.6977 117.357 18.8008 116.435 17.9296 115.488L17.5616 115.826C16.6853 114.873 15.8349 113.896 15.0122 112.894L15.3986 112.577C14.5831 111.584 13.7953 110.567 13.0369 109.528L12.633 109.822C11.8705 108.777 11.1376 107.709 10.4361 106.618L10.8567 106.348C10.5093 105.807 10.1698 105.262 9.8383 104.711C9.51017 104.163 9.18993 103.61 8.87776 103.053L8.44141 103.297C7.81319 102.174 7.21742 101.031 6.65545 99.8705L7.10545 99.6526C6.54837 98.5024 6.02477 97.3353 5.53601 96.1542L5.07401 96.3454C4.58116 95.1544 4.12346 93.9494 3.70229 92.7335L4.17475 92.5699C3.75575 91.3602 3.37321 90.1397 3.02849 88.9115L2.54709 89.0466C2.19818 87.8035 1.88768 86.5524 1.61699 85.2966L2.10577 85.1912C1.83573 83.9384 1.60569 82.681 1.41703 81.4222L0.922551 81.4963C0.730888 80.2175 0.581538 78.9372 0.475957 77.6585L0.974261 77.6173C0.868749 76.3395 0.807362 75.0636 0.791532 73.7932L0.291571 73.7994C0.275453 72.5058 0.306122 71.2174 0.385111 69.9376L0.884161 69.9684C0.963067 68.69 1.09065 67.4207 1.26839 66.164L0.773319 66.094Z" stroke="#F54E02" stroke-dasharray="4 4"/>
</svg>
