<svg width="159" height="141" viewBox="0 0 159 141" fill="none" xmlns="http://www.w3.org/2000/svg">
<path d="M10.2465 62.2459C13.7582 49.5522 23.6742 39.0005 34.1045 30.5033C44.5349 22.006 55.4796 15.5634 68.0022 11.8587C80.5248 8.15406 94.6365 7.20861 105.5 12.6795C116.374 18.1181 124.012 29.9943 132.061 42.6536C140.079 55.3028 148.52 68.7564 148.562 82.444C148.605 96.1315 140.238 110.085 128.752 118.787C117.255 127.468 102.606 130.887 88.4379 132.186C74.2695 133.486 60.5809 132.667 48.0151 127.715C35.4704 122.751 24.0483 113.653 16.8591 101.703C9.7023 89.763 6.75607 74.9285 10.2465 62.2459Z" fill="#F54E02"/>
<path d="M1.02314 66.094C1.20421 64.8138 1.43686 63.5462 1.7227 62.2947L2.21015 62.4061C2.35207 61.7847 2.50724 61.1675 2.67583 60.5549C2.84272 59.9516 3.02259 59.3526 3.21496 58.7578L2.73922 58.6039C3.12855 57.4001 3.56834 56.2138 4.05447 55.045L4.51613 55.237C4.99605 54.0832 5.52182 52.946 6.08949 51.8254L5.64347 51.5995C6.21339 50.4745 6.82488 49.3666 7.47392 48.2758L7.9036 48.5315C8.54271 47.4574 9.21881 46.3996 9.92808 45.3579L9.51479 45.0765C10.2242 44.0346 10.9663 43.0092 11.7371 42.0003L12.1344 42.3039C12.8947 41.3087 13.6835 40.3293 14.4971 39.3656L14.115 39.043C14.9292 38.0787 15.7677 37.1303 16.6268 36.1979L16.9945 36.5367C17.846 35.6126 18.7181 34.704 19.6072 33.8109L19.2528 33.4581C20.1454 32.5615 21.0547 31.6807 21.9771 30.8157L22.3191 31.1804C23.2393 30.3174 24.1728 29.4699 25.116 28.6379L24.7852 28.2629C25.7371 27.4232 26.6986 26.5994 27.6659 25.7914L27.9864 26.1752C28.4713 25.7702 28.9577 25.3691 29.4452 24.972C30.0136 24.5089 30.5833 24.0513 31.1545 23.5993L30.8442 23.2072C32.0004 22.2921 33.1627 21.3995 34.3322 20.5302L34.6305 20.9314C35.8087 20.0555 36.9942 19.2034 38.1879 18.3758L37.9031 17.9649C39.113 17.1261 40.3316 16.3123 41.5601 15.5241L41.8301 15.945C43.0629 15.1541 44.3055 14.3893 45.5592 13.6514L45.3055 13.2205C46.5716 12.4753 47.849 11.7573 49.1391 11.0673L49.3749 11.5082C50.6624 10.8196 51.9624 10.159 53.2761 9.5273L53.0594 9.07668C54.3797 8.44183 55.7139 7.83592 57.0633 7.25974L57.2597 7.71958C58.5979 7.14819 59.951 6.60624 61.3203 6.09451L61.1452 5.62614C62.5131 5.11496 63.897 4.63374 65.2983 4.18327L65.4513 4.65928C66.1437 4.43669 66.8404 4.22165 67.5414 4.01425C68.2283 3.81106 68.9193 3.61528 69.6139 3.42737L69.4834 2.94472C70.8733 2.56873 72.2776 2.22407 73.6914 1.91454L73.7983 2.40297C75.2006 2.09596 76.6118 1.82377 78.0271 1.59012L77.9457 1.0968C79.3736 0.861059 80.806 0.664249 82.2377 0.510161L82.2912 1.00729C83.7234 0.853157 85.1544 0.742123 86.5791 0.677968L86.5566 0.178474C88.0082 0.113112 89.4538 0.0960149 90.8884 0.131188L90.8761 0.631038C92.3181 0.666394 93.7479 0.755002 95.1601 0.900874L95.2115 0.40352C96.6591 0.553057 98.0892 0.762277 99.4961 1.03555L99.4007 1.52638C100.813 1.80065 102.2 2.13997 103.557 2.54865L103.701 2.0699C105.091 2.48855 106.45 2.97938 107.771 3.54714L107.574 4.00656C108.229 4.28783 108.875 4.58814 109.51 4.90808L109.511 4.90869C110.071 5.18878 110.624 5.4843 111.169 5.79466L111.416 5.36011C112.516 5.98592 113.586 6.67081 114.63 7.40978L114.341 7.81791C115.358 8.53708 116.35 9.30873 117.321 10.1284L117.643 9.74635C118.604 10.5574 119.543 11.4143 120.464 12.3125L120.115 12.6704C121.006 13.54 121.881 14.4494 122.742 15.3945L123.112 15.0578C123.957 15.9862 124.788 16.9481 125.608 17.9397L125.222 18.2582C126.018 19.2215 126.804 20.2136 127.581 21.2309L127.978 20.9273C128.742 21.9271 129.497 22.9506 130.246 23.9944L129.84 24.2859C130.571 25.3054 131.297 26.3448 132.019 27.4009L132.432 27.1187C133.144 28.1598 133.852 29.2166 134.558 30.2862L134.141 30.5617C134.835 31.6133 135.528 32.6776 136.22 33.7518L136.641 33.4808C137.326 34.5431 138.011 35.6147 138.698 36.6927L138.276 36.9614C138.617 37.4959 138.958 38.0321 139.3 38.5696C139.665 39.1463 140.031 39.7242 140.398 40.3036L140.82 40.0364C141.55 41.1902 142.279 42.3496 143.005 43.5144L142.58 43.7787C143.302 44.9385 144.02 46.1032 144.727 47.2725L145.155 47.0137C145.864 48.1865 146.563 49.3643 147.248 50.5468L146.815 50.7973C147.501 51.9827 148.172 53.1723 148.823 54.3658L149.262 54.1265C149.92 55.3344 150.558 56.5468 151.169 57.7632L150.722 57.9878C151.338 59.2132 151.928 60.4422 152.484 61.6743L152.94 61.4684C153.508 62.7255 154.043 63.9865 154.539 65.2512L154.074 65.4338C154.574 66.7098 155.035 67.9887 155.449 69.27L155.924 69.1162C156.349 70.4292 156.725 71.7456 157.048 73.065L156.562 73.1837C156.886 74.5098 157.155 75.8379 157.361 77.1677L157.855 77.0909C158.066 78.449 158.213 79.8097 158.29 81.1728L157.791 81.2009C157.829 81.8758 157.849 82.551 157.851 83.2265C157.854 83.8884 157.838 84.5509 157.805 85.2136L158.305 85.2383C158.238 86.5752 158.103 87.9122 157.903 89.2455L157.409 89.1712C157.212 90.4774 156.953 91.7804 156.634 93.0764L157.119 93.196C156.8 94.493 156.421 95.7825 155.987 97.0608L155.514 96.9001C155.089 98.1523 154.61 99.394 154.08 100.622L154.54 100.82C154.01 102.047 153.431 103.26 152.805 104.455L152.362 104.224C151.748 105.398 151.088 106.555 150.386 107.692L150.811 107.955C150.107 109.094 149.361 110.213 148.577 111.307L148.171 111.015C147.396 112.096 146.583 113.153 145.736 114.183L146.122 114.5C145.269 115.537 144.381 116.546 143.461 117.525L143.097 117.182C142.184 118.154 141.239 119.094 140.266 120.001L140.607 120.367C139.622 121.285 138.608 122.168 137.569 123.013L137.254 122.625C136.737 123.045 136.213 123.457 135.684 123.858C135.149 124.261 134.608 124.655 134.061 125.039L134.349 125.448C133.241 126.225 132.111 126.962 130.959 127.66L130.699 127.233C129.554 127.927 128.386 128.584 127.2 129.205L127.432 129.648C126.236 130.273 125.022 130.863 123.791 131.417L123.585 130.962C122.365 131.512 121.127 132.028 119.875 132.513L120.056 132.979C118.799 133.466 117.527 133.92 116.245 134.345L116.087 133.87C114.815 134.291 113.531 134.683 112.237 135.047L112.373 135.528C111.075 135.893 109.767 136.231 108.453 136.543L108.338 136.056C107.031 136.366 105.718 136.651 104.4 136.912L104.497 137.403C103.172 137.665 101.843 137.904 100.512 138.121L100.432 137.628C99.1033 137.845 97.7725 138.04 96.4415 138.216L96.507 138.712C95.1656 138.889 93.8244 139.047 92.4858 139.186L92.4338 138.689C91.7638 138.759 91.0943 138.825 90.4257 138.886C89.7853 138.945 89.1459 139 88.5074 139.05L88.5471 139.549C87.2589 139.652 85.9745 139.738 84.6942 139.807L84.6673 139.308C83.3811 139.377 82.0994 139.429 80.8224 139.462L80.8353 139.962C79.5435 139.995 78.2563 140.009 76.9742 140.003L76.9766 139.503C75.6898 139.497 74.4082 139.47 73.1324 139.421L73.1132 139.921C71.8223 139.871 70.5369 139.799 69.2576 139.703L69.2949 139.205C68.0135 139.109 66.7384 138.989 65.4701 138.845L65.4133 139.341C64.131 139.195 62.8552 139.023 61.5865 138.824L61.664 138.33C60.3971 138.131 59.1374 137.905 57.8854 137.651L57.7859 138.141C56.5231 137.884 55.268 137.599 54.0208 137.284L54.1434 136.799C52.9033 136.486 51.6715 136.142 50.4482 135.767L50.3017 136.245C49.0726 135.869 47.8519 135.46 46.6402 135.02L46.8112 134.55C46.2111 134.331 45.6132 134.105 45.0177 133.87C44.4208 133.634 43.8262 133.389 43.2341 133.137L43.0378 133.596C41.8496 133.089 40.6716 132.549 39.5059 131.977L39.7262 131.528C38.574 130.962 37.4338 130.365 36.3077 129.737L36.0642 130.174C34.935 129.544 33.82 128.884 32.7211 128.194L32.987 127.771C31.899 127.088 30.8271 126.375 29.7731 125.634L29.4855 126.043C28.4273 125.299 27.3871 124.526 26.3669 123.726L26.6756 123.332C25.6645 122.539 24.6732 121.718 23.7039 120.871L23.3748 121.247C22.4004 120.395 21.4479 119.517 20.5194 118.612L20.8682 118.254C19.9475 117.357 19.0506 116.435 18.1794 115.488L17.8114 115.826C16.9351 114.873 16.0847 113.896 15.262 112.894L15.6484 112.577C14.833 111.584 14.0451 110.567 13.2868 109.528L12.8828 109.822C12.1203 108.777 11.3874 107.709 10.686 106.618L11.1065 106.348C10.7592 105.807 10.4196 105.262 10.0881 104.711C9.75999 104.163 9.43975 103.61 9.12757 103.053L8.69123 103.297C8.06301 102.174 7.46723 101.031 6.90527 99.8705L7.35526 99.6526C6.79819 98.5024 6.27459 97.3353 5.78583 96.1542L5.32382 96.3454C4.83097 95.1544 4.37328 93.9494 3.95211 92.7335L4.42457 92.5699C4.00557 91.3602 3.62302 90.1397 3.27831 88.9115L2.79691 89.0466C2.44799 87.8035 2.13749 86.5524 1.86681 85.2966L2.35559 85.1912C2.08555 83.9384 1.85551 82.681 1.66684 81.4222L1.17237 81.4963C0.980705 80.2175 0.831355 78.9372 0.725774 77.6585L1.22408 77.6173C1.11857 76.3395 1.05718 75.0636 1.04135 73.7932L0.541388 73.7994C0.52527 72.5058 0.55594 71.2174 0.634928 69.9376L1.13398 69.9684C1.21288 68.69 1.34046 67.4207 1.51821 66.164L1.02314 66.094Z" stroke="#F54E02" stroke-dasharray="4 4"/>
</svg>
