<svg width="155" height="147" viewBox="0 0 155 147" fill="none" xmlns="http://www.w3.org/2000/svg">
<mask id="path-1-inside-1_257_1792" fill="white">
<path d="M2.03131 102.527C-1.70079 88.1335 2.03803 72.2192 7.43951 58.0232C12.841 43.8273 19.9051 31.3498 30.0577 20.6587C40.2103 9.96758 53.4741 1.07719 67.1844 0.293695C80.8863 -0.52706 95.0575 6.77348 110.074 14.6068C125.054 22.4486 140.902 30.8375 148.669 44.1965C156.437 57.5555 156.134 75.9219 149.816 90.9137C143.475 105.891 131.082 117.503 117.963 126.772C104.844 136.04 90.9977 142.967 75.9158 145.218C60.8483 147.446 44.5449 144.998 30.7701 137.373C17.0325 129.739 5.77782 116.897 2.03131 102.527Z"/>
</mask>
<path d="M2.03131 102.527C-1.70079 88.1335 2.03803 72.2192 7.43951 58.0232C12.841 43.8273 19.9051 31.3498 30.0577 20.6587C40.2103 9.96758 53.4741 1.07719 67.1844 0.293695C80.8863 -0.52706 95.0575 6.77348 110.074 14.6068C125.054 22.4486 140.902 30.8375 148.669 44.1965C156.437 57.5555 156.134 75.9219 149.816 90.9137C143.475 105.891 131.082 117.503 117.963 126.772C104.844 136.04 90.9977 142.967 75.9158 145.218C60.8483 147.446 44.5449 144.998 30.7701 137.373C17.0325 129.739 5.77782 116.897 2.03131 102.527Z" stroke="#F54E02" stroke-width="2" stroke-dasharray="4 4" mask="url(#path-1-inside-1_257_1792)"/>
<path d="M10.0594 99.9993C6.7537 87.2504 10.0653 73.1543 14.8497 60.5803C19.634 48.0064 25.8911 36.9545 34.8836 27.4849C43.8762 18.0152 55.6246 10.1406 67.7684 9.44663C79.9048 8.71965 92.4569 15.1861 105.758 22.1244C119.026 29.0702 133.063 36.5007 139.943 48.3334C146.824 60.166 146.555 76.434 140.959 89.7129C135.342 102.979 124.366 113.264 112.745 121.474C101.125 129.684 88.861 135.819 75.5023 137.813C62.1563 139.786 47.7156 137.618 35.5146 130.864C23.3466 124.102 13.3778 112.728 10.0594 99.9993Z" fill="#F54E02"/>
</svg>
