<svg width="50" height="50" viewBox="0 0 50 50" fill="none" xmlns="http://www.w3.org/2000/svg">
<rect x="1" y="1" width="48" height="48" rx="7" stroke="black" stroke-width="2"/>
<path d="M25 26.2L19.825 31.375C19.6583 31.5417 19.4583 31.625 19.225 31.625C18.9917 31.625 18.7917 31.5417 18.625 31.375C18.4583 31.2083 18.375 31.0083 18.375 30.775C18.375 30.5417 18.4583 30.3417 18.625 30.175L23.8 25L18.625 19.825C18.4583 19.6583 18.375 19.4583 18.375 19.225C18.375 18.9917 18.4583 18.7917 18.625 18.625C18.7917 18.4583 18.9917 18.375 19.225 18.375C19.4583 18.375 19.6583 18.4583 19.825 18.625L25 23.8L30.175 18.625C30.3417 18.4583 30.5417 18.375 30.775 18.375C31.0083 18.375 31.2083 18.4583 31.375 18.625C31.5417 18.7917 31.625 18.9917 31.625 19.225C31.625 19.4583 31.5417 19.6583 31.375 19.825L26.2 25L31.375 30.175C31.5417 30.3417 31.625 30.5417 31.625 30.775C31.625 31.0083 31.5417 31.2083 31.375 31.375C31.2083 31.5417 31.0083 31.625 30.775 31.625C30.5417 31.625 30.3417 31.5417 30.175 31.375L25 26.2Z" fill="black"/>
</svg>
