<svg width="585" height="996" viewBox="0 0 585 996" fill="none" xmlns="http://www.w3.org/2000/svg">
<mask id="mask0_309_23357" style="mask-type:alpha" maskUnits="userSpaceOnUse" x="-22" y="-287" width="607" height="1283">
<rect x="-22" y="-287" width="607" height="1283" fill="#F54E02"/>
</mask>
<g mask="url(#mask0_309_23357)">
<path d="M100.996 947.963C5.41436 937.998 -82.4651 879.365 -156.178 814.553C-229.891 749.741 -289.438 678.751 -331.18 593.104C-372.922 507.458 -396.721 407.049 -370.431 322.276C-344.387 237.469 -268.115 168.192 -186.704 95.0013C-105.327 22.0554 -18.6713 -54.9098 79.7833 -71.717C178.238 -88.5241 288.737 -45.14 365.193 27.0211C441.512 99.288 483.755 200.576 510.172 300.966C536.59 401.356 547.182 500.846 526.672 597.242C506.055 693.499 454.337 786.662 376.994 852.804C299.684 918.701 196.472 957.789 100.996 947.963Z" fill="black" fill-opacity="0.1"/>
</g>
</svg>
