<svg width="20" height="20" viewBox="0 0 20 20" fill="none" xmlns="http://www.w3.org/2000/svg">
<path d="M9.99823 11.4037L11.8923 13.3185C12.0607 13.4731 12.2544 13.5504 12.4733 13.5504C12.6922 13.5504 12.8829 13.4731 13.0453 13.3185C13.1999 13.1561 13.2772 12.9639 13.2772 12.742C13.2772 12.52 13.1999 12.3348 13.0453 12.1863L11.1513 10.2506L13.0453 8.31488C13.2138 8.14641 13.298 7.95272 13.298 7.73382C13.298 7.51492 13.2138 7.33119 13.0453 7.18263C12.8907 7.02805 12.704 6.94728 12.4851 6.94034C12.2662 6.93339 12.0725 7.01416 11.904 7.18263L9.99823 9.09748L8.12504 7.18263C7.97649 7.01416 7.79125 6.93339 7.56933 6.94034C7.34742 6.94728 7.14829 7.02805 6.97196 7.18263C6.81738 7.33119 6.74008 7.51642 6.74008 7.73834C6.74008 7.96026 6.81738 8.15546 6.97196 8.32394L8.86598 10.2506L6.97196 12.1654C6.81738 12.3279 6.74008 12.5166 6.74008 12.7315C6.74008 12.9465 6.81738 13.1422 6.97196 13.3185C7.14829 13.4731 7.34394 13.5504 7.55892 13.5504C7.77389 13.5504 7.9626 13.4731 8.12504 13.3185L9.99823 11.4037ZM5.34152 17.795C4.89042 17.795 4.50063 17.6327 4.17213 17.3081C3.84361 16.9835 3.67935 16.5957 3.67935 16.1446V4.46978H3.45019C3.21469 4.46978 3.01828 4.39112 2.86096 4.23382C2.70365 4.07651 2.625 3.8801 2.625 3.64459C2.625 3.40907 2.70365 3.21267 2.86096 3.05536C3.01828 2.89805 3.21469 2.8194 3.45019 2.8194H7.05981C7.05981 2.58389 7.13847 2.38551 7.29577 2.22428C7.45309 2.06304 7.6495 1.98242 7.885 1.98242H12.1115C12.347 1.98242 12.5453 2.06304 12.7066 2.22428C12.8678 2.38551 12.9484 2.58389 12.9484 2.8194H16.5463C16.7818 2.8194 16.9782 2.89805 17.1355 3.05536C17.2928 3.21267 17.3715 3.40907 17.3715 3.64459C17.3715 3.8801 17.2928 4.07651 17.1355 4.23382C16.9782 4.39112 16.7818 4.46978 16.5463 4.46978H16.3171V16.1446C16.3171 16.5957 16.1528 16.9835 15.8243 17.3081C15.4958 17.6327 15.106 17.795 14.6549 17.795H5.34152Z" fill="black" fill-opacity="0.5"/>
</svg>
