<svg width="16" height="16" viewBox="0 0 16 16" fill="none" xmlns="http://www.w3.org/2000/svg">
<path d="M14.5619 4.16825L11.8743 1.48075L12.7285 0.626584C12.9785 0.376584 13.2841 0.255056 13.6452 0.262C14.0063 0.268945 14.3188 0.397417 14.5827 0.647417L15.416 1.48075C15.6799 1.73075 15.8049 2.03631 15.791 2.39742C15.7771 2.75853 15.6521 3.06408 15.416 3.31408L14.5619 4.16825ZM1.18685 15.5641C0.978516 15.5641 0.808377 15.4946 0.676432 15.3558C0.544488 15.2169 0.478516 15.0502 0.478516 14.8558V13.1683C0.478516 13.071 0.495877 12.9808 0.530599 12.8974C0.565321 12.8141 0.617405 12.7377 0.686849 12.6683L10.9994 2.35575L13.6869 5.04325L3.37435 15.3558C3.29102 15.4252 3.21115 15.4773 3.13477 15.512C3.05838 15.5467 2.97157 15.5641 2.87435 15.5641H1.18685Z" fill="black" fill-opacity="0.5"/>
</svg>
