<svg width="28" height="28" viewBox="0 0 28 28" fill="none" xmlns="http://www.w3.org/2000/svg">
<path d="M14.0002 15.2242L7.8752 21.3492C7.7002 21.5242 7.49603 21.6117 7.2627 21.6117C7.02936 21.6117 6.8252 21.5242 6.6502 21.3492C6.4752 21.1742 6.3877 20.9701 6.3877 20.7367C6.3877 20.5034 6.4752 20.2992 6.6502 20.1242L12.7752 13.9992L6.6502 7.87422C6.4752 7.69922 6.3877 7.49505 6.3877 7.26172C6.3877 7.02839 6.4752 6.82422 6.6502 6.64922C6.8252 6.47422 7.02936 6.38672 7.2627 6.38672C7.49603 6.38672 7.7002 6.47422 7.8752 6.64922L14.0002 12.7742L20.1252 6.64922C20.3002 6.47422 20.5044 6.38672 20.7377 6.38672C20.971 6.38672 21.1752 6.47422 21.3502 6.64922C21.5252 6.82422 21.6127 7.02839 21.6127 7.26172C21.6127 7.49505 21.5252 7.69922 21.3502 7.87422L15.2252 13.9992L21.3502 20.1242C21.5252 20.2992 21.6127 20.5034 21.6127 20.7367C21.6127 20.9701 21.5252 21.1742 21.3502 21.3492C21.1752 21.5242 20.971 21.6117 20.7377 21.6117C20.5044 21.6117 20.3002 21.5242 20.1252 21.3492L14.0002 15.2242Z" fill="black"/>
</svg>
