<svg width="37" height="37" viewBox="0 0 37 37" fill="none" xmlns="http://www.w3.org/2000/svg">
<path fill-rule="evenodd" clip-rule="evenodd" d="M15.6208 18.0721V26.9159C15.6208 27.0601 15.717 27.1562 15.8611 27.1562H19.1295C19.2737 27.1562 19.3698 27.0601 19.3698 26.9159V17.9279H21.725C21.8211 17.9279 21.9653 17.8318 21.9653 17.7356L22.2056 15.0441C22.2056 14.8999 22.1095 14.8037 21.9653 14.8037H19.3698V12.8812C19.3698 12.4486 19.7543 12.0641 20.1869 12.0641H22.0134C22.1575 12.0641 22.2537 11.968 22.2537 11.8238V9.13218C22.2537 8.98798 22.1575 8.89186 22.0134 8.89186H18.9373C17.1108 8.89186 15.6689 10.3818 15.6689 12.1602V14.7557H14.0347C13.8905 14.7557 13.7944 14.8518 13.7944 14.996V17.6876C13.7944 17.8318 13.8905 17.9279 14.0347 17.9279H15.6689V18.0721H15.6208Z" fill="black"/>
<path d="M18.024 0C8.07477 0 0 8.07477 0 18.024C0 27.9733 8.07477 36.0481 18.024 36.0481C27.9733 36.0481 36.0481 27.9733 36.0481 18.024C36 8.07477 27.9252 0 18.024 0ZM33.6929 18.024C33.6929 26.6756 26.6275 33.741 17.976 33.741C9.32443 33.741 2.25901 26.6756 2.25901 18.024C2.25901 9.3725 9.32443 2.30708 17.976 2.30708C26.6756 2.30708 33.6929 9.3725 33.6929 18.024Z" fill="black"/>
</svg>
