<svg width="36" height="36" viewBox="0 0 36 36" fill="none" xmlns="http://www.w3.org/2000/svg">
<g clip-path="url(#clip0_309_22796)">
<path d="M9.99737 13.4102H13.458V24.4649H9.99737V13.4102ZM11.7277 7.88281C12.8331 7.88281 13.6983 8.79603 13.6983 9.85344C13.6983 10.9589 12.7851 11.8721 11.7277 11.8721C10.6222 11.8721 9.70898 10.9589 9.70898 9.85344C9.70898 8.79603 10.6222 7.88281 11.7277 7.88281ZM15.5728 24.4649H19.0334V18.9856C19.0334 17.5437 19.3218 16.1498 21.1002 16.1498C22.8785 16.1498 22.8785 17.784 22.8785 19.0817V24.4649H26.3392V18.4088C26.3392 15.4289 25.7143 13.1218 22.2056 13.1218C20.5234 13.1218 19.4179 14.035 18.9373 14.9002H18.8892V13.4102H15.5728V24.4649Z" fill="white"/>
<path d="M18.024 0C8.07477 0 0 8.07477 0 18.024C0 27.9733 8.07477 36.0481 18.024 36.0481C27.9733 36.0481 36.0481 27.9733 36.0481 18.024C36 8.07477 27.9252 0 18.024 0ZM18.024 33.6929C9.3725 33.6929 2.30708 26.6275 2.30708 17.976C2.30708 9.32443 9.3725 2.25901 18.024 2.25901C26.6756 2.25901 33.741 9.32443 33.741 17.976C33.6929 26.6756 26.6756 33.6929 18.024 33.6929Z" fill="white"/>
</g>
<defs>
<clipPath id="clip0_309_22796">
<rect width="36" height="36" fill="white"/>
</clipPath>
</defs>
</svg>
