<svg width="36" height="36" viewBox="0 0 36 36" fill="none" xmlns="http://www.w3.org/2000/svg">
<g clip-path="url(#clip0_309_22813)">
<path d="M21.485 19.1761C21.1005 18.9358 20.6199 18.6955 20.1873 18.8878C19.8509 19.0319 19.6106 19.5606 19.4183 19.849C19.3222 19.9932 19.178 19.9932 18.9857 19.9452C17.688 19.4165 16.7267 18.5994 16.0057 17.3978C15.9096 17.2055 15.9096 17.0613 16.0538 16.9171C16.2461 16.6768 16.5344 16.3884 16.5825 16.052C16.6306 15.7155 16.4864 15.331 16.3422 15.0426C16.1499 14.6581 15.9577 14.1294 15.5732 13.8891C15.2367 13.6968 14.7561 13.793 14.4196 14.0813C13.8909 14.5139 13.6025 15.2349 13.6025 15.9078C13.6025 16.1 13.6506 16.2923 13.6506 16.4845C13.7467 16.9171 13.9871 17.3497 14.2274 17.7823C14.4196 18.0707 14.6119 18.359 14.8041 18.6474C15.477 19.5606 16.3422 20.3777 17.3035 21.0026C17.7841 21.291 18.3128 21.5793 18.8896 21.7716C19.5144 21.9639 20.0431 22.2042 20.716 22.06C21.3889 21.9158 22.1099 21.4832 22.3502 20.8103C22.4463 20.6181 22.4944 20.3777 22.4463 20.1855C22.4463 19.6087 21.8696 19.3684 21.485 19.1761Z" fill="white"/>
<path d="M18.1203 8.74609C13.0736 8.74609 8.98816 12.8315 8.98816 17.8783C8.98816 19.4163 9.37267 20.9544 10.1417 22.3002L8.7959 27.2508L13.7946 25.905C15.1404 26.6259 16.6303 27.0104 18.1203 27.0104C23.1671 27.0104 27.2525 22.925 27.2525 17.8783C27.2525 12.8315 23.119 8.74609 18.1203 8.74609ZM18.1203 25.2801C16.7745 25.2801 15.4768 24.8956 14.3233 24.2227L13.9868 24.0305L11.1991 24.7995L11.9201 22.0118L11.7278 21.6753C11.0068 20.5218 10.6223 19.176 10.6223 17.8302C10.6223 13.7448 13.9388 10.4283 18.0242 10.4283C22.1097 10.4283 25.4261 13.7448 25.4261 17.8302C25.4261 21.9157 22.2058 25.2801 18.1203 25.2801Z" fill="white"/>
<path d="M18.024 0C8.07477 0 0 8.07477 0 18.024C0 27.9733 8.07477 36.0481 18.024 36.0481C27.9733 36.0481 36.0481 27.9733 36.0481 18.024C36 8.07477 27.9252 0 18.024 0ZM18.024 33.6929C9.3725 33.6929 2.30708 26.6275 2.30708 17.976C2.30708 9.32443 9.3725 2.25901 18.024 2.25901C26.6756 2.25901 33.741 9.32443 33.741 17.976C33.6929 26.6756 26.6756 33.6929 18.024 33.6929Z" fill="white"/>
</g>
<defs>
<clipPath id="clip0_309_22813">
<rect width="36" height="36" fill="white"/>
</clipPath>
</defs>
</svg>
