<svg width="36" height="36" viewBox="0 0 36 36" fill="none" xmlns="http://www.w3.org/2000/svg">
<g clip-path="url(#clip0_309_22801)">
<path d="M27.2043 12.2065C26.6276 12.4949 25.9547 12.6391 25.3298 12.7352C25.6182 12.6872 26.0508 12.1585 26.243 11.9181C26.5314 11.5817 26.7237 11.1972 26.8679 10.7646C26.8679 10.7165 26.9159 10.6685 26.8679 10.6685C26.8198 10.6685 26.8198 10.6685 26.7718 10.6685C26.0508 11.053 25.3298 11.3414 24.5608 11.5336C24.5127 11.5336 24.4647 11.5336 24.4166 11.4856C24.3686 11.3894 24.2724 11.3414 24.2244 11.2933C23.8879 11.0049 23.5515 10.8127 23.1669 10.6204C22.6382 10.4282 22.0615 10.332 21.5328 10.332C21.0041 10.3801 20.4273 10.5243 19.9467 10.7646C19.466 11.0049 19.0334 11.3894 18.697 11.774C18.3605 12.2065 18.0722 12.7352 17.928 13.2639C17.7838 13.7926 17.8318 14.3214 17.8799 14.8501C17.8799 14.9462 17.8799 14.9462 17.7838 14.9462C14.7077 14.5136 12.2083 13.4081 10.1416 11.053C10.0455 10.9569 9.99739 10.9569 9.94933 11.053C9.03611 12.3988 9.46869 14.5617 10.6222 15.6191C10.7664 15.7633 10.9106 15.9075 11.1029 16.0517C11.0548 16.0517 10.2858 16.0036 9.61288 15.6191C9.51675 15.571 9.46869 15.6191 9.46869 15.7152C9.46869 15.8594 9.46868 16.0036 9.51675 16.1478C9.70901 17.4936 10.6222 18.7913 11.92 19.272C12.0641 19.32 12.2564 19.4161 12.4006 19.4161C12.1122 19.4642 11.8238 19.5123 10.9587 19.4642C10.8625 19.4642 10.8145 19.5123 10.8625 19.6084C11.4874 21.3387 12.8812 21.8674 13.8906 22.1558C14.0348 22.1558 14.179 22.1558 14.3232 22.2039C14.3232 22.2039 14.3232 22.2039 14.2751 22.2519C13.9386 22.7806 12.737 23.1651 12.2083 23.3574C11.199 23.6938 10.0935 23.8861 9.03611 23.7419C8.84385 23.6938 8.84385 23.7419 8.79579 23.7419C8.74772 23.79 8.79579 23.79 8.84385 23.838C9.03611 23.9822 9.27643 24.1264 9.51675 24.2226C10.1896 24.559 10.9106 24.8474 11.6316 25.0877C15.4286 26.1451 19.6583 25.3761 22.5421 22.5403C24.7531 20.3294 25.5702 17.2533 25.5702 14.2252C25.5702 14.1291 25.7143 14.033 25.8105 13.9849C26.3872 13.5523 26.9159 13.0236 27.3485 12.4469C27.4447 12.3027 27.4927 12.2065 27.4927 12.1585C27.3005 12.1585 27.2524 12.1585 27.2043 12.2065Z" fill="white"/>
<path d="M18.024 0C8.07477 0 0 8.07477 0 18.024C0 27.9733 8.07477 36.0481 18.024 36.0481C27.9733 36.0481 36.0481 27.9733 36.0481 18.024C36 8.07477 27.9252 0 18.024 0ZM18.024 33.6929C9.3725 33.6929 2.30708 26.6275 2.30708 17.976C2.30708 9.32443 9.3725 2.25901 18.024 2.25901C26.6756 2.25901 33.741 9.32443 33.741 17.976C33.6929 26.6756 26.6756 33.6929 18.024 33.6929Z" fill="white"/>
</g>
<defs>
<clipPath id="clip0_309_22801">
<rect width="36" height="36" fill="white"/>
</clipPath>
</defs>
</svg>
