<svg width="36" height="36" viewBox="0 0 36 36" fill="none" xmlns="http://www.w3.org/2000/svg">
<g clip-path="url(#clip0_309_22807)">
<path fill-rule="evenodd" clip-rule="evenodd" d="M15.6209 18.0709V26.9147C15.6209 27.0588 15.717 27.155 15.8612 27.155H19.1295C19.2737 27.155 19.3699 27.0588 19.3699 26.9147V17.9267H21.725C21.8211 17.9267 21.9653 17.8305 21.9653 17.7344L22.2056 15.0428C22.2056 14.8986 22.1095 14.8025 21.9653 14.8025H19.3699V12.8799C19.3699 12.4474 19.7544 12.0629 20.187 12.0629H22.0134C22.1576 12.0629 22.2537 11.9667 22.2537 11.8225V9.13095C22.2537 8.98675 22.1576 8.89062 22.0134 8.89062H18.9373C17.1109 8.89062 15.6689 10.3806 15.6689 12.159V14.7544H14.0348C13.8906 14.7544 13.7944 14.8506 13.7944 14.9948V17.6864C13.7944 17.8305 13.8906 17.9267 14.0348 17.9267H15.6689V18.0709H15.6209Z" fill="white"/>
<path d="M18.024 0C8.07477 0 0 8.07477 0 18.024C0 27.9733 8.07477 36.0481 18.024 36.0481C27.9733 36.0481 36.0481 27.9733 36.0481 18.024C36 8.07477 27.9252 0 18.024 0ZM33.6929 18.024C33.6929 26.6756 26.6275 33.741 17.976 33.741C9.32443 33.741 2.25901 26.6756 2.25901 18.024C2.25901 9.3725 9.32443 2.30708 17.976 2.30708C26.6756 2.30708 33.6929 9.3725 33.6929 18.024Z" fill="white"/>
</g>
<defs>
<clipPath id="clip0_309_22807">
<rect width="36" height="36" fill="white"/>
</clipPath>
</defs>
</svg>
