<?xml version="1.0" encoding="utf-8"?>
<!-- Generator: Adobe Illustrator 25.0.1, SVG Export Plug-In . SVG Version: 6.00 Build 0)  -->
<svg version="1.1" id="Layer_1" xmlns="http://www.w3.org/2000/svg" xmlns:xlink="http://www.w3.org/1999/xlink" x="0px" y="0px"
	 viewBox="0 0 75 91" style="enable-background:new 0 0 75 91;" xml:space="preserve">
<style type="text/css">
	.st0{fill:#D11851;}
	.st1{fill:#FF356E;}
	.st2{fill:none;stroke:#FF356E;stroke-linecap:round;stroke-linejoin:round;stroke-miterlimit:10;}
</style>
<g id="TWO">
	<g>
		<path class="st0" d="M37.8,59.3c-16,0-28.9-13-28.9-28.9s13-28.9,28.9-28.9s28.9,13,28.9,28.9S53.8,59.3,37.8,59.3z M37.8,13.4
			c-9.3,0-16.9,7.6-16.9,16.9s7.6,16.9,16.9,16.9s16.9-7.6,16.9-16.9S47.2,13.4,37.8,13.4z"/>
		<path class="st0" d="M37.8,90.9c-3.3,0-6-2.7-6-6V53.3c0-3.3,2.7-6,6-6s6,2.7,6,6V85C43.8,88.3,41.2,90.9,37.8,90.9z"/>
		<path class="st0" d="M53.1,79.5H22.9c-3.3,0-6-2.7-6-6s2.7-6,6-6h30.2c3.3,0,6,2.7,6,6C59.1,76.8,56.4,79.5,53.1,79.5z"/>
	</g>
	<g>
		<path class="st1" d="M37.8,58.3c-16,0-28.9-13-28.9-28.9s13-28.9,28.9-28.9s28.9,13,28.9,28.9S53.8,58.3,37.8,58.3z M37.8,12.4
			c-9.3,0-16.9,7.6-16.9,16.9s7.6,16.9,16.9,16.9s16.9-7.6,16.9-16.9S47.2,12.4,37.8,12.4z"/>
		<path class="st1" d="M37.8,89.9c-3.3,0-6-2.7-6-6V52.3c0-3.3,2.7-6,6-6s6,2.7,6,6V84C43.8,87.3,41.2,89.9,37.8,89.9z"/>
		<path class="st1" d="M53.1,78.5H22.9c-3.3,0-6-2.7-6-6s2.7-6,6-6h30.2c3.3,0,6,2.7,6,6C59.1,75.8,56.4,78.5,53.1,78.5z"/>
	</g>
	<path class="st2" d="M13.9,77.4c0,0,1.2,5.3,7.5,5.4"/>
	<path class="st2" d="M58.4,3.9c0,0,6,4.7,9.6,12.3"/>
</g>
</svg>
