<?xml version="1.0" encoding="utf-8"?>
<!-- Generator: Adobe Illustrator 25.0.1, SVG Export Plug-In . SVG Version: 6.00 Build 0)  -->
<svg version="1.1" id="Layer_1" xmlns="http://www.w3.org/2000/svg" xmlns:xlink="http://www.w3.org/1999/xlink" x="0px" y="0px"
	 viewBox="0 0 75 91" style="enable-background:new 0 0 75 91;" xml:space="preserve">
<style type="text/css">
	.st0{fill:#0076CE;}
	.st1{fill:#26A5FC;}
	.st2{fill:none;stroke:#26A5FC;stroke-linecap:round;stroke-linejoin:round;stroke-miterlimit:10;}
</style>
<g id="THREE">
	<g>
		<path class="st0" d="M31.1,81.5c-16,0-28.9-13-28.9-28.9s13-28.9,28.9-28.9c16,0,28.9,13,28.9,28.9S47.1,81.5,31.1,81.5z
			 M31.1,35.6c-9.3,0-16.9,7.6-16.9,16.9s7.6,16.9,16.9,16.9c9.3,0,16.9-7.6,16.9-16.9S40.5,35.6,31.1,35.6z"/>
		<g>
			<path class="st0" d="M47.3,42.4c-1.5,0-3.1-0.6-4.2-1.8c-2.3-2.3-2.3-6.1,0-8.5L59.2,16c2.3-2.3,6.1-2.3,8.5,0
				c2.3,2.3,2.3,6.1,0,8.5L51.6,40.6C50.4,41.8,48.9,42.4,47.3,42.4z"/>
			<path class="st0" d="M68,37.1c-3.3,0-6-2.7-6-6V22h-9.7c-3.3,0-6-2.7-6-6s2.7-6,6-6H68c3.3,0,6,2.7,6,6v15.1
				C74,34.4,71.3,37.1,68,37.1z"/>
		</g>
	</g>
	<g>
		<path class="st1" d="M31.1,80.5c-16,0-28.9-13-28.9-28.9s13-28.9,28.9-28.9c16,0,28.9,13,28.9,28.9S47.1,80.5,31.1,80.5z
			 M31.1,34.6c-9.3,0-16.9,7.6-16.9,16.9s7.6,16.9,16.9,16.9c9.3,0,16.9-7.6,16.9-16.9S40.5,34.6,31.1,34.6z"/>
		<g>
			<path class="st1" d="M47.3,41.4c-1.5,0-3.1-0.6-4.2-1.8c-2.3-2.3-2.3-6.1,0-8.5L59.2,15c2.3-2.3,6.1-2.3,8.5,0
				c2.3,2.3,2.3,6.1,0,8.5L51.6,39.6C50.4,40.8,48.9,41.4,47.3,41.4z"/>
			<path class="st1" d="M68,36.1c-3.3,0-6-2.7-6-6V21h-9.7c-3.3,0-6-2.7-6-6s2.7-6,6-6H68c3.3,0,6,2.7,6,6v15.1
				C74,33.4,71.3,36.1,68,36.1z"/>
		</g>
	</g>
	<path class="st2" d="M13.2,23.6c0,0-7.6,4.4-12,13.6"/>
	<path class="st2" d="M64.4,53.4c0,0,0.1,5.9-2.5,11.5"/>
</g>
</svg>
