<svg width="46" height="50" viewBox="0 0 46 50" fill="none" xmlns="http://www.w3.org/2000/svg">
<path d="M17.6001 7.07242C19.5256 1.83134 26.9383 1.83133 28.8639 7.07241L32.5984 17.2371C32.8356 17.8826 33.182 18.4826 33.6224 19.0107L40.5581 27.3273C44.1342 31.6155 40.4279 38.035 34.9261 37.0821L24.256 35.2339C23.5783 35.1166 22.8856 35.1166 22.208 35.2339L11.5378 37.0821C6.0361 38.035 2.32977 31.6155 5.90588 27.3273L12.8415 19.0107C13.282 18.4826 13.6283 17.8826 13.8655 17.2371L17.6001 7.07242Z" fill="#AD00FF"/>
<g filter="url(#filter0_d_335_645)">
<path d="M28.8638 37.1048C26.9382 42.3459 19.5256 42.3459 17.6 37.1048L13.8654 26.9401C13.6283 26.2946 13.2819 25.6947 12.8414 25.1665L5.90581 16.8499C2.3297 12.5618 6.03602 6.14225 11.5377 7.09517L22.2079 8.9433C22.8855 9.06067 23.5783 9.06067 24.2559 8.9433L34.9261 7.09517C40.4278 6.14225 44.1341 12.5618 40.558 16.8499L33.6224 25.1665C33.1819 25.6947 32.8355 26.2946 32.5984 26.9401L28.8638 37.1048Z" fill="#AD00FF"/>
</g>
<path fill-rule="evenodd" clip-rule="evenodd" d="M3.38341 34.5122C3.65217 34.4514 3.91938 34.6194 3.98109 34.8878L3.98183 34.8908L3.98707 34.9112C3.9923 34.9308 4.00106 34.9623 4.01397 35.0038C4.03982 35.0869 4.08207 35.2099 4.14541 35.3596C4.2725 35.6599 4.48193 36.0616 4.80919 36.4641C5.45285 37.2557 6.57215 38.0785 8.51485 38.1094C8.79096 38.1137 9.01123 38.3411 9.00685 38.6172C9.00247 38.8933 8.77508 39.1136 8.49898 39.1092C6.23068 39.0732 4.84343 38.0913 4.0333 37.0949C3.63366 36.6034 3.37938 36.1153 3.22448 35.7493C3.14684 35.5658 3.09352 35.4115 3.05906 35.3007C3.04181 35.2452 3.02923 35.2004 3.02065 35.1681C3.01635 35.152 3.01306 35.139 3.01067 35.1292L3.00777 35.1172L3.00681 35.1131L3.00645 35.1115C3.00645 35.1115 2.91767 34.6181 3.40533 34.5077" fill="#AD00FF"/>
<path fill-rule="evenodd" clip-rule="evenodd" d="M29.0657 5.05529C28.806 5.14748 28.5208 5.01218 28.4278 4.75301L28.4267 4.75007L28.4191 4.73045C28.4116 4.71155 28.3992 4.6814 28.3814 4.6417C28.3459 4.5622 28.2895 4.44507 28.2089 4.30393C28.0472 4.02074 27.7917 3.6466 27.4192 3.28561C26.6865 2.5756 25.4778 1.89085 23.5451 2.08984C23.2704 2.11812 23.0248 1.91836 22.9965 1.64367C22.9682 1.36898 23.168 1.12338 23.4426 1.0951C25.6993 0.862761 27.1929 1.67383 28.1151 2.56747C28.57 3.0083 28.8802 3.46295 29.0773 3.80808C29.1761 3.9811 29.2472 4.12802 29.2946 4.23403C29.3183 4.28709 29.336 4.33005 29.3484 4.36108C29.3545 4.37661 29.3594 4.38916 29.3629 4.39853L29.3672 4.41015L29.3686 4.41412L29.3692 4.41563C29.3692 4.41563 29.5485 4.88788 29.0773 5.05515" fill="#AD00FF"/>
<path fill-rule="evenodd" clip-rule="evenodd" d="M35.4691 38.5957C35.5417 38.3299 35.8157 38.1731 36.0816 38.2448L36.0846 38.2456L36.105 38.2505C36.1248 38.2552 36.1567 38.2622 36.1994 38.2703C36.2849 38.2866 36.4133 38.3071 36.5752 38.3216C36.9 38.3506 37.353 38.3546 37.8621 38.255C38.8634 38.0591 40.1158 37.458 41.0564 35.7579C41.1901 35.5163 41.4943 35.4288 41.7359 35.5624C41.9776 35.6961 42.0651 36.0004 41.9314 36.242C40.8332 38.2271 39.3144 38.9898 38.0541 39.2364C37.4325 39.358 36.8821 39.353 36.4862 39.3176C36.2878 39.2999 36.1265 39.2744 36.0125 39.2527C35.9554 39.2418 35.91 39.2319 35.8775 39.2243C35.8612 39.2205 35.8482 39.2173 35.8385 39.2148L35.8265 39.2117L35.8224 39.2106L35.8208 39.2102L35.8202 39.21C35.8199 39.21 35.8196 39.2099 35.9514 38.7276L35.8196 39.2099C35.5532 39.1371 35.3963 38.8621 35.4691 38.5957Z" fill="#AD00FF"/>
<defs>
<filter id="filter0_d_335_645" x="0.493652" y="7" width="45.4766" height="42.0356" filterUnits="userSpaceOnUse" color-interpolation-filters="sRGB">
<feFlood flood-opacity="0" result="BackgroundImageFix"/>
<feColorMatrix in="SourceAlpha" type="matrix" values="0 0 0 0 0 0 0 0 0 0 0 0 0 0 0 0 0 0 127 0" result="hardAlpha"/>
<feOffset dy="4"/>
<feGaussianBlur stdDeviation="2"/>
<feComposite in2="hardAlpha" operator="out"/>
<feColorMatrix type="matrix" values="0 0 0 0 0 0 0 0 0 0 0 0 0 0 0 0 0 0 0.25 0"/>
<feBlend mode="normal" in2="BackgroundImageFix" result="effect1_dropShadow_335_645"/>
<feBlend mode="normal" in="SourceGraphic" in2="effect1_dropShadow_335_645" result="shape"/>
</filter>
</defs>
</svg>
