<svg width="555" height="1026" viewBox="0 0 555 1026" fill="none" xmlns="http://www.w3.org/2000/svg">
<path d="M117.996 1023.96C22.4143 1014 -65.4651 955.363 -139.178 890.551C-212.891 825.739 -272.438 754.749 -314.18 669.102C-355.922 583.456 -379.721 483.047 -353.432 398.274C-327.387 313.467 -251.115 244.19 -169.704 170.999C-88.3268 98.0533 -1.6714 21.0882 96.7833 4.28101C195.238 -12.5261 305.737 30.858 382.193 103.019C458.511 175.286 500.755 276.575 527.172 376.964C553.59 477.354 564.182 576.844 543.672 673.24C523.055 769.498 471.337 862.661 393.994 928.802C316.684 994.7 213.472 1033.79 117.996 1023.96Z" fill="black" fill-opacity="0.1"/>
</svg>
