<svg width="1048" height="1013" viewBox="0 0 1048 1013" fill="none" xmlns="http://www.w3.org/2000/svg">
<path d="M961.851 -10.4046C1048.94 71.4757 1091.72 195.708 1115.83 315.379C1139.93 435.05 1145.36 550.161 1122.12 666.357C1098.89 782.553 1046.77 899.835 956.856 963.906C867.164 1028.19 739.467 1039.27 603.735 1050.35C468.22 1061.21 324.452 1072.07 214.346 1014.51C104.24 956.956 27.5779 830.769 6.29503 701.758C-14.7706 572.748 19.7597 440.697 69.2748 321.46C118.79 202.224 183.29 95.8008 276.24 15.8752C369.189 -63.8332 490.588 -117.044 616.982 -124.212C743.159 -131.162 874.765 -92.0677 961.851 -10.4046Z" fill="black" fill-opacity="0.1"/>
</svg>
