<svg width="1141" height="970" viewBox="0 0 1141 970" fill="none" xmlns="http://www.w3.org/2000/svg">
<path d="M987.231 -21.3404C1076.61 59.1568 1120.53 181.29 1145.27 298.94C1170.01 416.59 1175.58 529.756 1151.73 643.989C1127.88 758.223 1074.39 873.524 982.104 936.512C890.046 999.714 758.979 1010.6 619.666 1021.49C480.575 1032.17 333.014 1042.85 220.002 986.262C106.991 929.679 28.3065 805.624 6.46213 678.793C-15.1594 551.962 20.282 422.141 71.1037 304.919C121.925 187.696 188.127 83.0711 283.529 4.49559C378.931 -73.8664 503.534 -126.179 633.263 -133.225C762.769 -140.058 897.847 -101.624 987.231 -21.3404Z" fill="white" fill-opacity="0.1"/>
</svg>
