<svg width="37" height="37" viewBox="0 0 37 37" fill="none" xmlns="http://www.w3.org/2000/svg">
<path d="M9.99733 13.4099H13.4579V24.4646H9.99733V13.4099ZM11.7276 7.88251C12.8331 7.88251 13.6983 8.79573 13.6983 9.85314C13.6983 10.9586 12.785 11.8718 11.7276 11.8718C10.6222 11.8718 9.70895 10.9586 9.70895 9.85314C9.70895 8.79573 10.6222 7.88251 11.7276 7.88251ZM15.5728 24.4646H19.0334V18.9853C19.0334 17.5434 19.3218 16.1495 21.1001 16.1495C22.8785 16.1495 22.8785 17.7837 22.8785 19.0814V24.4646H26.3391V18.4085C26.3391 15.4286 25.7143 13.1215 22.2056 13.1215C20.5234 13.1215 19.4179 14.0347 18.9373 14.8999H18.8892V13.4099H15.5728V24.4646Z" fill="black"/>
<path d="M18.024 0C8.07477 0 0 8.07477 0 18.024C0 27.9733 8.07477 36.0481 18.024 36.0481C27.9733 36.0481 36.0481 27.9733 36.0481 18.024C36 8.07477 27.9252 0 18.024 0ZM18.024 33.6929C9.3725 33.6929 2.30708 26.6275 2.30708 17.976C2.30708 9.32443 9.3725 2.25901 18.024 2.25901C26.6756 2.25901 33.741 9.32443 33.741 17.976C33.6929 26.6756 26.6756 33.6929 18.024 33.6929Z" fill="black"/>
</svg>
