<svg width="853" height="1168" viewBox="0 0 853 1168" fill="none" xmlns="http://www.w3.org/2000/svg">
<g filter="url(#filter0_d_309_30597)">
<mask id="mask0_309_30597" style="mask-type:alpha" maskUnits="userSpaceOnUse" x="100" y="100" width="653" height="968">
<rect x="100" y="100" width="653" height="968" rx="8" fill="black"/>
</mask>
<g mask="url(#mask0_309_30597)">
<g clip-path="url(#clip0_309_30597)">
<path d="M658.378 1068L662.718 1027.67C666.998 987.333 675.678 906.667 677.787 826C679.897 745.333 675.437 664.667 670.012 584C664.587 503.333 658.197 422.667 660.367 342C662.597 261.333 673.447 180.667 678.872 140.333L684.297 100H750V140.333C750 180.667 750 261.333 750 342C750 422.667 750 503.333 750 584C750 664.667 750 745.333 750 826C750 906.667 750 987.333 750 1027.67V1068H658.378Z" fill="#540000"/>
<path d="M625.828 1068L627.938 1027.67C630.047 987.333 634.267 906.667 634.267 826C634.267 745.333 630.047 664.667 622.513 584C614.978 503.333 604.128 422.667 607.323 342C610.578 261.333 627.817 180.667 636.497 140.333L645.117 100H684.9L679.475 140.333C674.05 180.667 663.2 261.333 660.97 342C658.8 422.667 665.189 503.333 670.614 584C676.039 664.667 680.5 745.333 678.39 826C676.281 906.667 667.601 987.333 663.321 1027.67L658.981 1068H625.828Z" fill="#620504"/>
<path d="M593.277 1068L596.472 1027.67C599.727 987.333 606.117 906.667 603.947 826C601.716 745.333 590.866 664.667 583.332 584C575.797 503.333 571.577 422.667 574.893 342C578.208 261.333 589.058 180.667 594.483 140.333L599.908 100H645.719L637.099 140.333C628.419 180.667 611.18 261.333 607.925 342C604.73 422.667 615.58 503.333 623.115 584C630.65 664.667 634.869 745.333 634.869 826C634.869 906.667 630.65 987.333 628.54 1027.67L626.43 1068H593.277Z" fill="#700D07"/>
<path d="M521.547 1068V1027.67C521.547 987.333 521.547 906.667 524.742 826C527.997 745.333 534.386 664.667 532.216 584C529.986 503.333 519.136 422.667 513.711 342C508.286 261.333 508.286 180.667 508.286 140.333V100H600.511L595.086 140.333C589.661 180.667 578.811 261.333 575.496 342C572.181 422.667 576.4 503.333 583.935 584C591.469 664.667 602.319 745.333 604.55 826C606.72 906.667 600.33 987.333 597.075 1027.67L593.881 1068H521.547Z" fill="#7E1609"/>
<path d="M378.086 1068L361.811 1027.67C345.536 987.333 312.986 906.667 320.641 826C328.236 745.333 376.097 664.667 386.947 584C397.797 503.333 371.636 422.667 352.166 342C332.697 261.333 319.797 180.667 313.408 140.333L306.958 100H508.889V140.333C508.889 180.667 508.889 261.333 514.314 342C519.739 422.667 530.589 503.333 532.819 584C534.989 664.667 528.599 745.333 525.344 826C522.15 906.667 522.15 987.333 522.15 1027.67V1068H378.086Z" fill="#8C1E09"/>
<path d="M196.048 1068L191.708 1027.67C187.428 987.333 178.748 906.667 184.173 826C189.598 745.333 209.128 664.667 212.323 584C215.517 503.333 202.497 422.667 200.267 342C198.037 261.333 206.717 180.667 210.996 140.333L215.336 100H307.561L314.011 140.333C320.401 180.667 333.3 261.333 352.77 342C372.24 422.667 398.4 503.333 387.55 584C376.7 664.667 328.84 745.333 321.245 826C313.589 906.667 346.139 987.333 362.414 1027.67L378.689 1068H196.048Z" fill="#9B2707"/>
<path d="M156.867 1068L152.527 1027.67C148.247 987.333 139.567 906.667 139.567 826C139.567 745.333 148.247 664.667 148.247 584C148.247 503.333 139.567 422.667 135.287 342C130.947 261.333 130.947 180.667 130.947 140.333V100H215.939L211.599 140.333C207.319 180.667 198.639 261.333 200.869 342C203.1 422.667 216.12 503.333 212.925 584C209.73 664.667 190.2 745.333 184.775 826C179.35 906.667 188.03 987.333 192.31 1027.67L196.65 1068H156.867Z" fill="#A93004"/>
<path d="M99 1068V1027.67C99 987.333 99 906.667 99 826C99 745.333 99 664.667 99 584C99 503.333 99 422.667 99 342C99 261.333 99 180.667 99 140.333V100H131.55V140.333C131.55 180.667 131.55 261.333 135.89 342C140.17 422.667 148.85 503.333 148.85 584C148.85 664.667 140.17 745.333 140.17 826C140.17 906.667 148.85 987.333 153.129 1027.67L157.469 1068H99Z" fill="#B73A00"/>
</g>
<g style="mix-blend-mode:screen" clip-path="url(#clip1_309_30597)">
<path d="M705.884 1215.79L1385.9 1033.58L1062.11 -174.789L382.101 7.41942L705.884 1215.79Z" fill="#A63500"/>
<g filter="url(#filter1_f_309_30597)">
<path d="M1067.74 -55.5548C814.935 12.1848 664.884 271.949 732.593 524.644C800.303 777.34 1060.13 927.276 1312.94 859.536C1565.75 791.797 1715.8 532.033 1648.09 279.337C1580.38 26.6419 1320.55 -123.294 1067.74 -55.5548Z" fill="#E96A2F"/>
<path d="M869.028 268.184C616.22 335.923 466.169 595.687 533.878 848.382C601.588 1101.08 861.418 1251.01 1114.23 1183.27C1367.03 1115.53 1517.09 855.771 1449.38 603.076C1381.67 350.38 1121.84 200.444 869.028 268.184Z" fill="#A63500"/>
<path d="M675.9 -218.356C423.093 -150.616 273.041 109.148 340.75 361.843C408.46 614.539 668.29 764.475 921.098 696.735C1173.91 628.996 1323.96 369.232 1256.25 116.537C1188.54 -136.159 928.708 -286.095 675.9 -218.356Z" fill="#E96A2F"/>
<path d="M363.783 -350.58C110.975 -282.841 -39.0763 -23.0767 28.6333 229.619C96.3428 482.314 356.173 632.25 608.981 564.511C861.788 496.771 1011.84 237.007 944.131 -15.6881C876.421 -268.383 616.591 -418.32 363.783 -350.58Z" fill="#E96A2F"/>
<path d="M562.129 145.355C309.321 213.095 159.269 472.859 226.979 725.554C294.688 978.25 554.519 1128.19 807.327 1060.45C1060.13 992.707 1210.19 732.943 1142.48 480.247C1074.77 227.552 814.936 77.6158 562.129 145.355Z" fill="#A63500"/>
<path d="M1183.08 402.588C930.271 470.327 780.22 730.091 847.929 982.787C915.639 1235.48 1175.47 1385.42 1428.28 1317.68C1681.08 1249.94 1831.14 990.175 1763.43 737.48C1695.72 484.785 1435.89 334.848 1183.08 402.588Z" fill="#E96A2F"/>
</g>
</g>
<g style="mix-blend-mode:screen" clip-path="url(#clip2_309_30597)">
<path d="M-803.611 786.201L-193.929 1138.2L431.571 54.8034L-178.111 -297.197L-803.611 786.201Z" fill="#A63500"/>
<g filter="url(#filter2_f_309_30597)">
<path d="M351.24 143.096C124.579 12.2331 -165.205 89.8114 -296.009 316.372C-426.814 542.932 -349.107 832.681 -122.446 963.544C104.215 1094.41 393.998 1016.83 524.803 790.268C655.608 563.708 577.901 273.959 351.24 143.096Z" fill="#E96A2F"/>
<path d="M-18.1905 231.502C-244.852 100.639 -534.635 178.218 -665.44 404.778C-796.244 631.339 -718.537 921.087 -491.876 1051.95C-265.215 1182.81 24.568 1105.23 155.373 878.674C286.177 652.114 208.471 362.365 -18.1905 231.502Z" fill="#A63500"/>
<path d="M189.283 -249.097C-37.3784 -379.96 -327.162 -302.382 -457.967 -75.8215C-588.771 150.739 -511.064 440.488 -284.403 571.351C-57.7422 702.214 232.041 624.635 362.846 398.075C493.651 171.514 415.944 -118.235 189.283 -249.097Z" fill="#E96A2F"/>
<path d="M62.079 -563.293C-164.582 -694.156 -454.365 -616.577 -585.17 -390.017C-715.975 -163.456 -638.268 126.293 -411.607 257.155C-184.946 388.018 104.838 310.44 235.642 83.8795C366.447 -142.681 288.74 -432.43 62.079 -563.293Z" fill="#E96A2F"/>
<path d="M-148.348 -72.363C-375.009 -203.226 -664.793 -125.648 -795.597 100.913C-926.402 327.473 -848.695 617.222 -622.034 748.085C-395.373 878.948 -105.59 801.37 25.215 574.809C156.02 348.249 78.3129 58.4998 -148.348 -72.363Z" fill="#A63500"/>
<path d="M108.838 548.606C-117.823 417.743 -407.606 495.321 -538.411 721.882C-669.216 948.442 -591.509 1238.19 -364.848 1369.05C-138.187 1499.92 151.597 1422.34 282.402 1195.78C413.206 969.217 335.499 679.469 108.838 548.606Z" fill="#E96A2F"/>
</g>
</g>
<g style="mix-blend-mode:screen">
<path d="M782.5 479.783C868.5 529.435 868.5 653.565 782.5 703.217L390.25 929.683C304.25 979.335 196.75 917.27 196.75 817.966L196.75 365.034C196.75 265.73 304.25 203.665 390.25 253.317L782.5 479.783Z" fill="#F54E02"/>
</g>
<path d="M618.475 655.518H663.901V641.06H618.475V655.518Z" fill="#EBEBEB"/>
<path d="M470 621.457H515.427V607H470V621.457Z" fill="#EBEBEB"/>
<path d="M493.297 601.129L516.166 600.742L527.471 600.587H538.724L538.13 601.181V586.724L538.776 587.37L516.062 587.279L504.706 587.163L493.349 587.021L493.659 586.724L493.297 601.129ZM493.297 601.129L493 586.672V586.336H493.31L504.667 586.194L516.023 586.078L538.737 586H539.383V586.659V601.116V601.698H538.801H527.341L515.933 601.543L493.297 601.129Z" fill="#EBEBEB"/>
<path d="M427.814 565.944L450.682 565.569L461.987 565.414L473.241 565.35L472.646 565.944V551.487L473.292 552.133L450.579 552.042L439.222 551.939L427.866 551.797L428.176 551.487L427.814 565.944ZM427.814 565.944L427.504 551.487V551.189H427.814L439.171 551.047L450.527 550.944L473.241 550.854H473.887V551.5L473.822 565.944V566.538H473.241L461.781 566.474L450.372 566.319L427.814 565.944Z" fill="#EBEBEB"/>
<path d="M453.15 584.213L476.018 583.839L487.323 583.684L498.577 583.619L497.982 584.213V569.756L498.628 570.402L475.915 570.312L464.558 570.208L453.202 570.066L453.512 569.756L453.15 584.213ZM453.15 584.213L452.84 569.821V569.523H453.15L464.507 569.381L475.863 569.278L498.577 569.188H499.223V569.833V584.291V584.885H498.641L487.181 584.821L475.773 584.666L453.15 584.213Z" fill="#EBEBEB"/>
<path d="M478.383 565.982H523.81V551.525H478.383V565.982Z" fill="#EBEBEB"/>
<path d="M444 602.457H489.427V588H444V602.457Z" fill="#EBEBEB"/>
<path d="M577.996 707.328H728.85L733.707 611.604H573.138L577.996 707.328Z" fill="black"/>
<path d="M717.854 655.479H584.881L583.111 622.133H720.063L717.854 655.479ZM586.07 654.187H716.562L718.539 623.425H584.403L586.07 654.187Z" fill="#DBDBDB"/>
<path d="M716.045 693.709H588.693L587.207 663.605H717.932L716.045 693.709ZM589.933 692.417H714.895L716.614 664.897H588.564L589.933 692.417Z" fill="#DBDBDB"/>
<path d="M666.691 642.468H638.422L637.376 634.342H667.738L666.691 642.468ZM639.559 641.176H665.554L666.278 635.634H638.849L639.559 641.176Z" fill="#DBDBDB"/>
<path d="M666.691 682.728H638.422L637.376 674.588H667.738L666.691 682.728ZM639.559 681.436H665.554L666.278 675.88H638.849L639.559 681.436Z" fill="#DBDBDB"/>
<path d="M598.913 707.328L597.453 717.755L594.507 738.711H588.745V707.328H598.913Z" fill="black"/>
<path d="M538.913 707.328L537.453 717.755H528.745V707.328H538.913Z" fill="#DBDBDB"/>
<path d="M707.932 707.328L709.392 717.755L712.337 738.711H718.1V707.328H707.932Z" fill="black"/>
<path d="M697.932 707.328L699.392 717.755H708.1V707.328H697.932Z" fill="black"/>
<path d="M621.906 468.061C622.967 475.323 622.602 482.722 620.833 489.844C619.997 493.141 618.882 496.361 617.5 499.47C615.769 503.462 613.96 507.351 614.386 511.705C614.813 511.989 613.366 511.951 613.314 511.524C601.686 504.883 586.725 503.669 577.758 492.816C573.508 487.648 571.363 481.188 570.342 474.728C569.244 467.635 568.934 459.78 570.768 452.764C572.306 446.86 575.769 441.136 581.311 438.255C587.048 435.27 594.554 435.529 600.601 437.402C613.598 441.407 620.071 455.477 621.906 468.061Z" fill="#F54E02"/>
<path d="M627.901 554.329C626.299 549.031 624.709 543.721 623.082 538.437C619.89 528.101 616.557 517.765 612.875 507.558C610.678 501.443 608.357 495.392 605.911 489.406C606.18 485.633 606.641 481.877 607.293 478.152C608.275 473.63 609.684 469.263 611.001 464.845C611.079 464.573 610.64 464.431 610.536 464.69C607.952 470.775 604.503 478.566 604.412 485.788C601.57 479.005 598.534 472.325 595.252 465.736C594.882 460.168 595.055 454.578 595.769 449.043C595.769 448.785 595.42 448.708 595.381 448.966C594.38 453.812 593.998 458.765 594.244 463.708C591.738 458.755 589.085 453.871 586.285 449.056C586.027 448.63 585.433 449.056 585.652 449.496C590.036 457.928 594.124 466.516 597.913 475.258C592.543 470.61 586.339 467.024 579.632 464.69C579.347 464.573 579.128 465 579.425 465.129C586.741 468.273 593.436 472.701 599.192 478.204C601.931 484.604 604.541 491.064 607.022 497.584C599.722 490.439 589.748 485.736 580.097 483.217C579.774 483.126 579.683 483.63 579.993 483.734C591.169 487.093 599.851 493.424 608.34 501.034C609.322 503.618 610.291 506.292 611.247 508.915C614.839 518.906 618.284 528.954 621.583 539.057C623.142 543.906 624.684 548.756 626.208 553.605C627.836 558.838 629.115 564.355 631.234 569.393C631.428 569.884 632.294 569.768 632.19 569.2C631.015 564.173 629.583 559.209 627.901 554.329Z" fill="#263238"/>
<path d="M608.559 457.854C606.495 461.037 605.069 464.591 604.36 468.319C604.36 468.409 604.502 468.474 604.528 468.319C605.833 464.808 607.356 461.381 609.089 458.06C609.205 457.763 608.766 457.556 608.559 457.854Z" fill="#263238"/>
<path d="M587.772 482.131C584.527 480.342 580.986 479.152 577.319 478.617C577.216 478.617 577.164 478.746 577.255 478.785C578.947 479.483 580.704 479.974 582.423 480.62C584.141 481.266 585.795 482.08 587.526 482.674C587.562 482.69 587.6 482.699 587.639 482.7C587.678 482.702 587.717 482.695 587.754 482.681C587.79 482.668 587.824 482.647 587.852 482.62C587.881 482.593 587.904 482.561 587.92 482.525C587.936 482.49 587.945 482.451 587.946 482.412C587.948 482.373 587.941 482.334 587.927 482.298C587.914 482.261 587.893 482.228 587.866 482.199C587.839 482.171 587.807 482.148 587.772 482.131Z" fill="#263238"/>
<path d="M581.919 452.894C580.868 452.089 579.738 451.392 578.547 450.814C578.508 450.798 578.465 450.797 578.425 450.809C578.385 450.822 578.351 450.848 578.328 450.883C578.305 450.918 578.295 450.96 578.3 451.001C578.304 451.043 578.323 451.082 578.353 451.111C579.389 451.93 580.501 452.648 581.674 453.256C581.893 453.424 582.074 453.062 581.919 452.894Z" fill="#263238"/>
<path d="M661.196 507.635C652.811 510.128 644.4 512.428 635.976 514.896C635.252 515.116 621.066 487.919 626.182 473.914C630.924 460.994 641.777 451.252 654.723 446.846C660.705 444.818 668.082 443.099 674.413 444.495C680.033 445.787 684.012 450.348 685.847 455.645C688.341 462.841 687.501 471.42 686.144 478.772C685.071 485.672 682.226 492.176 677.888 497.648C673.431 502.945 667.746 505.697 661.196 507.635Z" fill="#F54E02"/>
<path d="M673.366 481.795C668.059 484.381 662.555 486.542 656.906 488.255C653.141 489.267 649.467 490.594 645.924 492.222C649.464 484.328 653.366 476.589 657.488 468.966C662.914 467.39 668.612 464.948 672.707 461.11C672.731 461.09 672.751 461.065 672.765 461.037C672.779 461.01 672.787 460.979 672.79 460.948C672.792 460.917 672.789 460.885 672.779 460.856C672.769 460.826 672.754 460.798 672.733 460.775C672.713 460.751 672.688 460.731 672.66 460.717C672.632 460.703 672.602 460.695 672.571 460.692C672.539 460.69 672.508 460.693 672.478 460.703C672.449 460.713 672.421 460.728 672.397 460.749C667.927 463.914 662.992 465.813 658.043 467.945C659.167 465.891 660.291 463.824 661.441 461.769C661.751 461.201 660.963 460.632 660.588 461.188C656.174 467.592 652.191 474.282 648.663 481.214C647.754 475.144 647.464 468.997 647.798 462.868C647.789 462.842 647.773 462.819 647.751 462.803C647.729 462.787 647.702 462.779 647.675 462.779C647.648 462.779 647.621 462.787 647.599 462.803C647.577 462.819 647.561 462.842 647.552 462.868C646.503 469.555 646.573 476.371 647.759 483.036C644.813 488.914 642.126 494.935 639.723 501.02C638.767 497.364 637.526 493.759 636.686 490.064C635.418 484.781 635.012 479.327 635.485 473.914C635.476 473.888 635.46 473.866 635.438 473.85C635.416 473.834 635.389 473.825 635.362 473.825C635.335 473.825 635.308 473.834 635.286 473.85C635.264 473.866 635.248 473.888 635.239 473.914C633.744 483.957 634.962 494.217 638.767 503.63C637.358 507.299 636.028 510.982 634.8 514.664C628.476 533.487 624.73 553.079 623.663 572.907C623.663 573 623.7 573.089 623.765 573.154C623.831 573.219 623.919 573.256 624.012 573.256C624.104 573.256 624.193 573.219 624.259 573.154C624.324 573.089 624.361 573 624.361 572.907C626.564 553.345 630.759 534.059 636.88 515.349C639.309 508.036 642.113 500.93 645.188 493.953C650.136 492.493 655.085 490.504 659.955 488.785C664.826 487.067 669.568 485.232 673.56 482.105C673.715 481.963 673.547 481.705 673.366 481.795Z" fill="#263238"/>
<path d="M681.196 473.9C676.028 475.722 671.196 478.28 666.066 480.128C665.834 480.218 665.963 480.593 666.208 480.554C671.635 479.43 677.022 477.75 681.389 474.197C681.557 474.055 681.377 473.836 681.196 473.9Z" fill="#263238"/>
<path d="M639.283 462.828C639.348 462.557 638.947 462.402 638.857 462.673C637.449 467.402 636.48 472.428 637.849 477.26C637.849 477.453 638.198 477.466 638.211 477.26C638.456 472.363 638.185 467.621 639.283 462.828Z" fill="#263238"/>
<path d="M660.486 451.899C658.847 454.244 658.062 457.081 658.263 459.935C658.263 460.116 658.561 460.232 658.612 460.013C659.232 457.312 660.279 454.845 661.106 452.261C661.154 452.178 661.167 452.08 661.143 451.988C661.119 451.896 661.059 451.818 660.977 451.77C660.894 451.722 660.796 451.708 660.704 451.733C660.612 451.757 660.534 451.817 660.486 451.899Z" fill="#263238"/>
<path d="M561.402 519.625C563.869 527.442 569.709 538.23 578.973 538.32C584.968 538.32 591.014 537.661 597.061 537.584C603.521 537.48 609.981 537.493 616.441 537.881C616.971 537.881 615.666 518.591 600.188 509.173C595.846 506.589 590.536 505.71 585.614 504.638C579.978 503.306 574.194 502.702 568.404 502.842C564.851 502.984 561.944 503.746 560.652 507.39C559.36 511.033 560.187 515.917 561.402 519.625Z" fill="#F54E02"/>
<path d="M568.03 509.858C571.79 510.827 575.588 511.938 579.361 513.14C578.378 512.069 577.339 511.051 576.247 510.091C574.619 508.799 572.836 507.662 571.079 506.486C570.937 506.383 571.079 506.111 571.208 506.176C574.872 507.701 578.036 510.221 580.343 513.45C585.046 514.961 589.71 516.641 594.206 518.489C597.301 519.76 600.269 521.322 603.069 523.153C602.171 521.2 601.099 519.331 599.865 517.571C597.811 514.91 595.02 513.424 592.333 511.538C592.291 511.5 592.264 511.448 592.255 511.392C592.247 511.337 592.258 511.28 592.287 511.231C592.316 511.182 592.36 511.145 592.414 511.126C592.467 511.106 592.525 511.106 592.578 511.124C595.391 512.346 597.918 514.141 599.998 516.394C602.078 518.648 603.665 521.311 604.658 524.212C607.885 526.526 610.833 529.206 613.444 532.197C623.689 543.825 631.752 559.329 631.777 575.117C631.777 575.492 631.183 575.595 631.106 575.207C628.474 559.717 621.727 545.219 611.57 533.23C610.834 532.378 610.085 531.564 609.309 530.776C606.504 530.394 603.678 530.187 600.847 530.155C597.552 530.155 594.284 530.633 591.002 530.905C585.588 531.344 579.619 531.409 574.736 528.682C574.529 528.566 574.671 528.192 574.916 528.282C585.782 532.235 597.178 527.21 608.082 529.574C603.424 525.146 597.971 521.639 592.01 519.238L591.015 518.837C584.038 519.677 576.674 521.486 569.878 519.225C569.84 519.21 569.81 519.182 569.791 519.146C569.773 519.11 569.768 519.069 569.777 519.03C569.787 518.991 569.81 518.957 569.843 518.933C569.875 518.91 569.915 518.899 569.955 518.902C576.531 520.543 582.875 518.476 589.335 518.153C582.281 515.401 575.123 513.217 568.017 510.491C567.397 510.233 567.384 509.742 568.03 509.858Z" fill="#263238"/>
<path d="M564.942 516.73C568.311 517.165 571.701 517.419 575.097 517.493C575.175 517.493 575.2 517.622 575.097 517.635C571.68 518.262 568.162 518.04 564.851 516.989C564.834 516.983 564.819 516.974 564.805 516.962C564.792 516.95 564.781 516.935 564.773 516.919C564.766 516.903 564.761 516.885 564.76 516.867C564.759 516.849 564.762 516.831 564.767 516.814C564.773 516.797 564.783 516.782 564.795 516.768C564.807 516.755 564.821 516.744 564.837 516.736C564.853 516.728 564.871 516.724 564.889 516.723C564.907 516.722 564.925 516.724 564.942 516.73Z" fill="#263238"/>
<path d="M587.887 510.025C589.765 510.87 591.469 512.058 592.913 513.526C593.081 513.681 592.849 513.991 592.655 513.849C591.802 513.229 590.923 512.648 590.071 512.079C589.222 511.613 588.402 511.095 587.616 510.529C587.358 510.335 587.603 509.934 587.887 510.025Z" fill="#263238"/>
<path d="M642.565 535.169C642.449 535.427 642.823 535.673 642.966 535.401C642.994 535.442 643.03 535.477 643.073 535.503C643.115 535.53 643.162 535.548 643.211 535.556C649.459 537.043 655.793 538.139 662.178 538.838C667.346 539.303 673.198 539.587 677.682 536.616C683.754 532.585 687.746 521.822 684.465 514.975C680.589 506.848 668.87 511.267 663.004 514.148C653.943 518.549 646.711 525.987 642.565 535.169Z" fill="#F54E02"/>
<path d="M638.017 538.928C641.437 535.628 645.231 532.74 649.322 530.323C652.267 525.677 656.17 521.713 660.77 518.695C661.002 518.54 661.183 518.889 660.989 519.044C657.33 521.954 654.08 525.344 651.325 529.122C655.899 526.625 660.649 524.466 665.537 522.662C667.284 519.435 669.933 516.786 673.16 515.039C673.16 515.039 673.302 515.039 673.237 515.142C670.573 517.159 668.252 519.594 666.364 522.352C669.232 521.279 672.152 520.285 675.059 519.316C675.318 519.238 675.408 519.626 675.162 519.729C669.994 521.745 664.697 523.876 659.568 526.344C665.829 527.317 672.203 527.296 678.457 526.279C678.625 526.279 678.703 526.499 678.535 526.551C672.007 528.476 665.077 528.579 658.496 526.848C655.228 528.441 652.053 530.218 648.987 532.171C651.566 531.965 654.163 532.179 656.674 532.804C661.1 533.834 665.631 534.345 670.175 534.329C670.217 534.329 670.256 534.345 670.285 534.374C670.314 534.403 670.33 534.443 670.33 534.484C670.33 534.525 670.314 534.564 670.285 534.593C670.256 534.622 670.217 534.639 670.175 534.639C662.346 535.931 654.943 532.429 647.178 533.347C644.3 535.309 641.598 537.518 639.103 539.949C634.255 544.804 630.263 550.443 627.294 556.629C624.025 563.282 622.255 570.324 619.619 577.197C619.602 577.261 619.561 577.315 619.504 577.347C619.447 577.38 619.379 577.389 619.316 577.372C619.252 577.354 619.198 577.313 619.166 577.256C619.133 577.199 619.124 577.131 619.141 577.068C621.415 563.528 628.16 548.579 638.017 538.928Z" fill="#263238"/>
<path d="M661.635 520.349C662.152 519.426 662.83 518.603 663.638 517.92C664.296 517.206 665.08 516.619 665.95 516.189C665.967 516.184 665.985 516.184 666.001 516.191C666.017 516.197 666.031 516.208 666.04 516.223C666.049 516.238 666.053 516.256 666.05 516.273C666.048 516.29 666.04 516.306 666.028 516.318C665.382 517.055 664.49 517.61 663.806 518.282C663.121 518.954 662.514 519.807 661.816 520.491C661.725 520.595 661.583 520.466 661.635 520.349Z" fill="#263238"/>
<path d="M674.555 524.56C675.705 524.263 676.945 524.289 678.121 524.044C679.297 523.798 680.421 523.372 681.583 523.01C681.616 523.004 681.649 523.01 681.677 523.026C681.706 523.042 681.728 523.067 681.74 523.097C681.752 523.128 681.754 523.161 681.744 523.192C681.734 523.223 681.714 523.25 681.687 523.268C679.553 524.582 677.049 525.163 674.555 524.922C674.507 524.922 674.461 524.903 674.427 524.869C674.393 524.835 674.374 524.789 674.374 524.741C674.374 524.693 674.393 524.647 674.427 524.613C674.461 524.579 674.507 524.56 674.555 524.56Z" fill="#263238"/>
<path d="M605.756 560.375L606.789 572.042L610.278 611.448H641.131L645.498 572.042L646.777 560.375H605.756Z" fill="#37474F"/>
<path d="M605.756 560.375L606.789 572.042H645.498L646.777 560.375H605.756Z" fill="#263238"/>
<path d="M602.707 566.654H649.839V557.184H602.707V566.654Z" fill="#37474F"/>
<path d="M373.175 416.086V437.817H378.898V447.727L388.808 437.817H456.082V416.086H373.175Z" fill="white"/>
<path d="M373.175 416.072C373.175 423.398 373.433 430.646 373.446 437.804L373.175 437.533H379.182V437.817V447.726L378.64 447.494L388.511 437.571L388.614 437.468H388.769L422.361 437.39H455.953L455.488 437.856V416.124L455.901 416.525L414.557 416.382L373.175 416.072ZM373.175 416.072L414.519 415.814L456.082 415.672H456.483V416.072L456.547 437.804V438.269H456.082H422.49L388.898 438.191L389.144 438.088L379.208 447.972L378.679 448.502V447.752V437.843L378.963 438.127H372.903V437.856C372.903 430.491 373.123 423.243 373.175 416.072Z" fill="#263238"/>
<path d="M387.671 423.941V426.861H386.844V423.941C386.866 423.681 386.833 423.42 386.748 423.173C386.664 422.926 386.529 422.7 386.352 422.508C386.175 422.316 385.961 422.163 385.722 422.058C385.483 421.953 385.225 421.899 384.964 421.899C384.703 421.899 384.445 421.953 384.206 422.058C383.968 422.163 383.753 422.316 383.576 422.508C383.4 422.7 383.265 422.926 383.18 423.173C383.095 423.42 383.063 423.681 383.084 423.941V426.861H382.257V423.941C382.232 423.57 382.283 423.198 382.407 422.847C382.532 422.496 382.727 422.175 382.981 421.903C383.234 421.631 383.542 421.414 383.883 421.266C384.224 421.118 384.592 421.041 384.964 421.041C385.336 421.041 385.704 421.118 386.046 421.266C386.387 421.414 386.694 421.631 386.948 421.903C387.202 422.175 387.397 422.496 387.521 422.847C387.646 423.198 387.697 423.57 387.671 423.941Z" fill="#263238"/>
<path d="M382.271 424.703L383.084 424.742V426.861H382.271V424.703Z" fill="#263238"/>
<path d="M387.671 424.924V426.862H386.844V424.885L387.671 424.924Z" fill="#263238"/>
<path d="M388.717 425.789H381.211V432.029H388.717V425.789Z" fill="#263238"/>
<path d="M400.707 424.381C400.197 425.37 399.534 426.272 398.743 427.055C397.949 427.842 397.033 428.497 396.03 428.993C396.548 427.999 397.225 427.096 398.033 426.319C398.811 425.529 399.715 424.875 400.707 424.381Z" fill="#263238"/>
<path d="M396.03 424.381C397.043 424.899 397.96 425.585 398.743 426.409C399.544 427.19 400.215 428.093 400.733 429.084C399.738 428.572 398.835 427.9 398.059 427.094C397.238 426.307 396.553 425.391 396.03 424.381Z" fill="#263238"/>
<path d="M401.663 426.705C400.599 427.045 399.486 427.211 398.369 427.196C397.251 427.217 396.137 427.051 395.074 426.705C396.138 426.363 397.252 426.202 398.369 426.227C399.486 426.207 400.598 426.369 401.663 426.705Z" fill="#263238"/>
<path d="M398.368 423.41C399.023 425.558 399.023 427.852 398.368 429.999C398.026 428.935 397.865 427.822 397.89 426.705C397.871 425.588 398.032 424.475 398.368 423.41Z" fill="#263238"/>
<path d="M412.077 424.381C411.568 425.377 410.895 426.281 410.088 427.055C409.31 427.859 408.406 428.531 407.413 429.045C407.931 428.054 408.603 427.152 409.403 426.371C410.177 425.563 411.081 424.89 412.077 424.381Z" fill="#263238"/>
<path d="M407.413 424.381C409.391 425.445 411.013 427.067 412.077 429.045C410.099 427.98 408.478 426.359 407.413 424.381Z" fill="#263238"/>
<path d="M413.046 426.705C411.982 427.045 410.869 427.211 409.752 427.196C408.634 427.217 407.52 427.051 406.457 426.705C407.521 426.363 408.634 426.202 409.752 426.227C410.868 426.207 411.981 426.369 413.046 426.705Z" fill="#263238"/>
<path d="M409.751 423.41C410.088 424.475 410.249 425.588 410.23 426.705C410.255 427.822 410.093 428.935 409.751 429.999C409.406 428.936 409.24 427.823 409.261 426.705C409.246 425.587 409.412 424.475 409.751 423.41Z" fill="#263238"/>
<path d="M423.459 424.381C422.95 425.377 422.277 426.281 421.469 427.055C420.688 427.855 419.786 428.527 418.795 429.045C419.309 428.052 419.981 427.149 420.785 426.371C421.559 425.563 422.463 424.89 423.459 424.381Z" fill="#263238"/>
<path d="M418.795 424.381C420.773 425.445 422.394 427.067 423.459 429.045C421.481 427.98 419.86 426.359 418.795 424.381Z" fill="#263238"/>
<path d="M424.428 426.705C423.364 427.045 422.251 427.21 421.134 427.196C420.012 427.216 418.894 427.05 417.826 426.705C418.895 426.364 420.012 426.203 421.134 426.227C422.251 426.207 423.363 426.369 424.428 426.705Z" fill="#263238"/>
<path d="M421.133 423.41C421.769 425.561 421.769 427.849 421.133 429.999C420.479 427.852 420.479 425.558 421.133 423.41Z" fill="#263238"/>
<path d="M434.842 424.381C434.328 425.374 433.656 426.277 432.852 427.055C432.071 427.855 431.169 428.527 430.178 429.045C430.692 428.052 431.364 427.149 432.167 426.371C432.942 425.563 433.846 424.89 434.842 424.381Z" fill="#263238"/>
<path d="M430.178 424.381C432.155 425.445 433.777 427.067 434.842 429.045C433.851 428.527 432.948 427.855 432.167 427.055C431.364 426.277 430.692 425.374 430.178 424.381Z" fill="#263238"/>
<path d="M435.811 426.705C434.746 427.045 433.634 427.211 432.517 427.196C431.394 427.217 430.277 427.051 429.209 426.705C430.277 426.363 431.395 426.202 432.517 426.227C433.633 426.207 434.746 426.369 435.811 426.705Z" fill="#263238"/>
<path d="M432.516 423.41C433.151 425.561 433.151 427.849 432.516 429.999C431.862 427.852 431.862 425.558 432.516 423.41Z" fill="#263238"/>
<path d="M446.225 424.381C445.71 425.374 445.039 426.277 444.235 427.055C443.454 427.855 442.551 428.527 441.561 429.045C442.075 428.052 442.747 427.149 443.55 426.371C444.324 425.563 445.228 424.89 446.225 424.381Z" fill="#263238"/>
<path d="M441.561 424.381C442.557 424.89 443.461 425.563 444.235 426.371C445.039 427.149 445.71 428.052 446.225 429.045C445.234 428.527 444.331 427.855 443.55 427.055C442.747 426.277 442.075 425.374 441.561 424.381Z" fill="#263238"/>
<path d="M447.193 426.705C446.124 427.046 445.007 427.212 443.885 427.196C442.768 427.217 441.654 427.051 440.591 426.705C441.655 426.363 442.768 426.202 443.885 426.227C445.006 426.207 446.123 426.369 447.193 426.705Z" fill="#263238"/>
<path d="M443.886 423.41C444.54 425.558 444.54 427.852 443.886 429.999C443.25 427.849 443.25 425.561 443.886 423.41Z" fill="#263238"/>
<path d="M282.347 678.555L207.734 738.71H211.946L298.11 678.555H282.347Z" fill="#C7C7C7"/>
<path d="M289.35 678.555L252.489 738.71H256.688L301.882 678.555H289.35Z" fill="#C7C7C7"/>
<path d="M307.425 678.555L344.286 738.71H340.087L294.905 678.555H307.425Z" fill="#C7C7C7"/>
<path d="M313.872 678.555L388.472 738.71H384.273L298.109 678.555H313.872Z" fill="#C7C7C7"/>
<path d="M438.382 656.487V638.89L335.939 634.691L281.817 490.207H157.824L201.701 656.487L306.508 685.919H313.084L438.382 656.487Z" fill="#455A64"/>
<path opacity="0.1" d="M157.824 490.207H172.01L217.721 641.784L310.448 668.051L438.382 638.89V656.487L313.084 685.919H306.508L201.701 656.487L157.824 490.207Z" fill="black"/>
<path d="M382.606 766.075C379.479 764.873 309.156 707.263 307.864 703.374C307.36 701.901 315.151 691.165 324.944 678.465C327.05 675.725 329.259 672.909 331.508 670.054C346.081 651.526 361.986 632.211 361.986 632.211L409.144 670.596L377.361 707.379L370.384 715.454C370.384 715.454 387.451 749.563 388.407 753.982C389.363 758.401 385.733 767.264 382.606 766.075Z" fill="#AD6359"/>
<path d="M382.607 766.074C379.48 764.873 309.157 707.262 307.865 703.373C307.257 701.565 318.898 686.099 331.508 670.053L377.361 707.404L370.384 715.479C370.384 715.479 387.452 749.588 388.408 754.007C389.364 758.426 385.733 767.263 382.607 766.074Z" fill="#EBEBEB"/>
<path d="M382.606 766.075C379.48 764.874 309.156 707.264 307.864 703.375C307.36 701.902 315.151 691.165 324.944 678.465L370.384 715.481C370.384 715.481 387.451 749.589 388.407 754.008C389.363 758.427 385.733 767.264 382.606 766.075Z" fill="#F54E02"/>
<path d="M383.912 762.431C372.284 752.482 324.828 713.451 312.645 704.497C312.554 704.42 312.503 704.497 312.645 704.562C323.808 714.678 371.612 753.283 383.744 762.624C384.002 762.818 384.144 762.637 383.912 762.431Z" fill="#263238"/>
<path d="M385.953 747.766C384.671 746.659 383.173 745.83 381.554 745.332C379.935 744.834 378.23 744.677 376.547 744.872C373.528 745.205 370.753 746.685 368.795 749.007C368.795 749.071 368.872 749.188 368.937 749.123C371.248 747.113 374.15 745.909 377.205 745.692C380.261 745.475 383.303 746.258 385.875 747.921C385.885 747.931 385.898 747.938 385.911 747.942C385.925 747.946 385.939 747.947 385.953 747.945C385.967 747.942 385.98 747.936 385.991 747.928C386.002 747.92 386.012 747.909 386.018 747.896C386.024 747.883 386.027 747.869 386.027 747.855C386.027 747.841 386.024 747.827 386.018 747.815C386.011 747.802 386.002 747.791 385.991 747.783C385.98 747.775 385.967 747.769 385.953 747.766Z" fill="#263238"/>
<path d="M374.001 720.403C369.337 716.463 362.502 713.646 356.404 715.106C356.172 715.171 356.262 715.494 356.404 715.545C362.301 716.756 368.049 718.601 373.549 721.049C373.635 721.109 373.741 721.133 373.844 721.114C373.947 721.096 374.038 721.038 374.098 720.952C374.158 720.867 374.182 720.761 374.163 720.658C374.145 720.555 374.087 720.463 374.001 720.403Z" fill="#263238"/>
<path d="M376.482 724.859C371.818 720.983 364.983 718.102 358.885 719.562C358.652 719.562 358.73 719.949 358.885 720.001C364.781 721.214 370.53 723.059 376.03 725.505C376.116 725.565 376.222 725.588 376.325 725.57C376.427 725.552 376.519 725.494 376.579 725.408C376.639 725.322 376.662 725.216 376.644 725.113C376.626 725.01 376.568 724.919 376.482 724.859Z" fill="#263238"/>
<path d="M378.963 729.214C374.298 725.273 367.464 722.457 361.366 723.917C361.133 723.917 361.21 724.304 361.366 724.356C367.262 725.568 373.01 727.414 378.51 729.86C378.596 729.92 378.702 729.943 378.805 729.925C378.908 729.907 378.999 729.849 379.059 729.763C379.119 729.677 379.143 729.571 379.125 729.468C379.107 729.365 379.048 729.274 378.963 729.214Z" fill="#263238"/>
<path d="M381.444 733.607C376.78 729.731 369.945 726.863 363.847 728.323C363.614 728.323 363.692 728.71 363.847 728.749C369.742 729.972 375.49 731.821 380.992 734.266C381.079 734.326 381.187 734.349 381.291 734.329C381.395 734.31 381.487 734.25 381.547 734.162C381.607 734.075 381.63 733.967 381.611 733.863C381.591 733.759 381.531 733.667 381.444 733.607Z" fill="#263238"/>
<path d="M324.828 695.75C319.518 691.435 312.8 699.626 318.11 704.006C323.42 708.386 330.138 700.078 324.828 695.75Z" fill="white"/>
<path d="M389.415 711.939C388.653 707.999 384.054 707.469 380.901 708.322C375.493 709.871 370.59 712.821 366.689 716.875C366.668 716.887 366.65 716.905 366.638 716.927C366.625 716.948 366.619 716.973 366.619 716.998C366.619 717.022 366.625 717.047 366.638 717.068C366.65 717.09 366.668 717.108 366.689 717.12C366.635 717.224 366.605 717.34 366.604 717.457C366.602 717.575 366.628 717.691 366.679 717.797C366.731 717.903 366.807 717.995 366.9 718.066C366.994 718.137 367.103 718.185 367.219 718.206C372.49 718.632 378.059 719.743 383.291 718.541C386.431 717.895 390.139 715.712 389.415 711.939ZM375.41 717.224C372.826 717.069 370.242 716.797 367.658 716.746C370.371 715 373.169 713.391 376.043 711.926C377.449 711.24 378.9 710.649 380.384 710.156C382.684 709.446 390.54 709.291 386.844 714.808C384.738 717.908 378.498 717.443 375.41 717.275V717.224Z" fill="#263238"/>
<path d="M353.523 709.071C357.115 713.063 362.309 715.363 366.857 718.115C366.962 718.164 367.078 718.189 367.195 718.185C367.312 718.182 367.426 718.152 367.529 718.097C367.632 718.041 367.721 717.963 367.788 717.867C367.855 717.772 367.899 717.662 367.916 717.546C368.019 717.546 368.11 717.482 368.084 717.352C367.237 711.803 364.942 706.576 361.43 702.197C359.337 699.613 355.28 697.469 352.386 700.246C349.492 703.024 351.469 706.771 353.523 709.071ZM352.864 704.045C352.993 697.378 359.324 702.029 360.797 703.941C361.744 705.201 362.607 706.522 363.381 707.895C364.983 710.712 366.146 713.696 367.464 716.655C365.306 715.195 363.045 713.942 360.836 712.572C358.213 710.931 352.851 707.714 352.916 704.045H352.864Z" fill="#263238"/>
<path d="M458.176 598.463C454.61 623.166 392.788 693.838 385.643 701.939C384.584 703.128 384.015 703.787 384.015 703.787L334.053 664.42L334.648 663.67L379.764 606.073L247.309 603.683L298.084 565.181C298.084 565.181 302.128 567.584 310.63 566.473C339.906 562.597 405.927 553.876 421.47 554.69C441.444 555.749 461.38 575.801 458.176 598.463Z" fill="#263238"/>
<path d="M395.901 584.652C394.231 586.491 392.677 588.433 391.25 590.466C389.661 592.508 388.033 594.523 386.444 596.565V596.629C386.728 596.022 386.999 595.428 387.296 594.833C388.317 592.792 389.131 590.686 390.32 588.735C390.327 588.723 390.332 588.71 390.335 588.696C390.338 588.682 390.337 588.668 390.334 588.654C390.331 588.64 390.326 588.627 390.318 588.616C390.309 588.604 390.299 588.594 390.287 588.587C390.275 588.579 390.262 588.574 390.248 588.571C390.234 588.569 390.22 588.569 390.206 588.572C390.193 588.575 390.179 588.581 390.168 588.589C390.156 588.597 390.146 588.607 390.139 588.619C388.911 590.557 387.555 592.392 386.444 594.42C385.953 595.376 385.475 596.345 385.035 597.327C384.803 597.87 384.557 598.412 384.338 598.968C384.217 599.222 384.118 599.486 384.041 599.756C383.317 600.699 382.619 601.655 381.935 602.624C380.41 604.769 379.066 607.043 377.516 609.175C377.438 609.278 377.619 609.394 377.71 609.291C379.26 607.288 381.004 605.415 382.581 603.438C384.157 601.461 385.72 599.33 387.232 597.236C388.743 595.143 390.152 593.128 391.625 591.074C393.238 589.064 394.722 586.953 396.069 584.756C396.083 584.733 396.087 584.707 396.081 584.681C396.075 584.656 396.059 584.634 396.037 584.62C396.014 584.606 395.988 584.602 395.962 584.608C395.937 584.614 395.915 584.63 395.901 584.652Z" fill="#37474F"/>
<path d="M390.837 692.185C387.994 689.704 384.945 687.417 381.948 685.117C378.95 682.818 375.927 680.505 372.904 678.231C366.844 673.67 360.798 669.071 354.673 664.6C351.314 662.133 347.929 659.717 344.428 657.43C344.273 657.339 344.105 657.585 344.247 657.701C350.009 662.624 356.133 667.107 362.18 671.655C368.227 676.203 374.338 680.699 380.475 685.221C383.834 687.663 387.18 690.182 390.681 692.417C390.824 692.559 390.992 692.288 390.837 692.185Z" fill="#37474F"/>
<path d="M283.317 499.949C297.063 526.112 313.368 553.877 328.821 557.895C343.511 561.771 378.485 525.104 384.377 512.933C386.431 508.747 358.744 490.388 354.816 493.463C347.439 499.29 331.263 517.714 328.976 517.248C326.689 516.783 307.012 499.315 289.35 484.625C278.588 475.724 273.807 481.822 283.317 499.949Z" fill="#AD6359"/>
<path d="M359.854 450.957L349.272 487.998C349.132 488.199 349.051 488.436 349.04 488.681C349.029 488.926 349.088 489.169 349.21 489.381C349.332 489.594 349.512 489.768 349.729 489.882C349.946 489.996 350.191 490.046 350.435 490.027L369.699 490.634C370.29 490.607 370.86 490.413 371.345 490.074C371.83 489.736 372.209 489.267 372.438 488.722L383.019 451.68C383.459 450.595 382.929 449.69 381.857 449.665L362.567 449.07C361.983 449.098 361.419 449.29 360.94 449.624C360.46 449.957 360.084 450.419 359.854 450.957Z" fill="#A6A6A6"/>
<path d="M362.141 451.02L351.56 488.062C351.133 489.147 351.65 490.052 352.722 490.09L371.999 490.698C372.587 490.668 373.155 490.473 373.638 490.135C374.12 489.796 374.497 489.329 374.725 488.785L385.307 451.744C385.746 450.659 385.216 449.754 384.144 449.728L364.88 449.121C364.291 449.147 363.721 449.339 363.236 449.675C362.752 450.011 362.372 450.478 362.141 451.02Z" fill="#DBDBDB"/>
<path d="M367.373 452.894C367.377 453.119 367.333 453.342 367.247 453.55C367.16 453.758 367.031 453.945 366.869 454.101C366.706 454.257 366.514 454.378 366.303 454.456C366.092 454.534 365.867 454.568 365.642 454.556C365.417 454.543 365.197 454.485 364.996 454.384C364.795 454.283 364.617 454.141 364.473 453.968C364.329 453.796 364.221 453.595 364.158 453.379C364.095 453.163 364.077 452.936 364.105 452.713C364.101 452.488 364.144 452.265 364.231 452.057C364.318 451.849 364.447 451.662 364.609 451.506C364.771 451.35 364.964 451.229 365.175 451.151C365.386 451.073 365.611 451.039 365.836 451.051C366.061 451.064 366.28 451.122 366.482 451.223C366.683 451.324 366.861 451.466 367.005 451.638C367.149 451.811 367.256 452.012 367.32 452.228C367.383 452.444 367.401 452.671 367.373 452.894Z" fill="#455A64"/>
<path d="M393.33 491.963C394.958 481.201 393.718 478.19 399.919 469.831C403.989 464.34 402.232 459.392 395.837 462.467C385.371 467.518 380.333 480.968 379.958 486.136L393.33 491.963Z" fill="#AD6359"/>
<path d="M379.441 520.182C379.441 520.182 389.493 508.451 392.361 497.146C394.338 489.329 396.754 471.848 379.673 454.897C375.617 450.879 366.999 448.024 371.224 456.99C374.234 463.36 378.071 466.499 379.144 470.517C379.144 470.517 367.735 468.192 363.872 472.404C360.488 476.092 357.371 480.017 354.544 484.148C355.184 484.836 355.865 485.483 356.585 486.086C356.585 486.086 353.343 490.376 354.001 498.515L379.441 520.182Z" fill="#AD6359"/>
<path d="M393.059 489.394C391.147 485.621 386.96 477.701 381.289 472.404C374.984 466.538 361.25 456.9 356.96 461.616C353.821 465.065 358.743 469.187 358.743 469.187C358.743 469.187 352.283 466.409 350.061 470.143C348.097 473.554 352.089 476.512 352.089 476.512C352.089 476.512 347.852 475.518 346.585 479.161C345.061 483.541 354.208 484.923 356.495 490.699C357.012 491.991 393.059 489.394 393.059 489.394Z" fill="#AD6359"/>
<path d="M376.185 480.104C371.677 474.775 365.651 470.949 358.911 469.135C358.73 469.135 358.614 469.212 358.756 469.277C364.972 472.183 370.808 475.841 376.133 480.168C376.133 480.168 376.211 480.143 376.185 480.104Z" fill="#263238"/>
<path d="M370.074 486.292C367.735 483.708 359.932 477.856 352.167 476.383C351.999 476.383 351.883 476.46 352.038 476.525C358.382 479.117 364.415 482.415 370.022 486.357C370.022 486.357 370.1 486.331 370.074 486.292Z" fill="#263238"/>
<path d="M345.319 498.23L374.196 528.812C374.196 528.812 343.743 562.959 329.441 559.393C315.138 555.827 288.097 517.106 279.427 492.532C273.42 475.504 282.851 478.256 292.8 486.589C302.748 494.922 328.717 515.62 329.854 515.323C330.991 515.026 345.319 498.23 345.319 498.23Z" fill="#F54E02"/>
<path opacity="0.1" d="M335.552 559.083C333.562 559.711 331.445 559.818 329.402 559.393C315.1 555.827 288.058 517.119 279.389 492.532C275.435 481.331 278.2 478.695 283.394 480.607C298.976 503.721 319.712 534.703 335.552 559.083Z" fill="black"/>
<path d="M364.802 533.902C360.629 529.677 344.131 511.796 340.875 507.7C340.642 507.416 340.771 507.196 341.043 507.467C353.859 519.806 361.082 529.431 364.97 533.734C365.061 533.837 364.906 534.005 364.802 533.902Z" fill="#263238"/>
<path d="M315.397 582.74C315.397 582.74 220.706 600.053 220.215 599.536C219.724 599.02 230.641 496.603 262.773 479.29C267.941 476.551 280.177 474.936 285.422 480.285C300.384 495.505 316.637 581.358 315.397 582.74Z" fill="#F54E02"/>
<path d="M281.236 495.827C275.952 495.827 269.22 486.085 267.334 479.031C267.205 478.553 268.936 474.238 270.797 468.889C271.908 465.646 273.07 462.002 273.884 458.553L293.962 468.889C291.734 472.849 289.998 477.066 288.794 481.447C288.681 481.917 288.616 482.398 288.6 482.881C288.6 482.946 288.6 483.023 288.6 483.114C288.329 485.956 286.339 495.84 281.236 495.827Z" fill="#AD6359"/>
<path d="M293.975 469.045C291.745 473.004 290.01 477.221 288.807 481.603C288.694 482.073 288.629 482.554 288.613 483.037C288.619 483.11 288.619 483.184 288.613 483.257C287.861 483.197 287.117 483.063 286.391 482.856C274.052 479.575 274.259 463.36 274.556 459.006L293.975 469.045Z" fill="#263238"/>
<path d="M273.032 435.233C269.815 442.701 271.43 465.492 276.378 471.086C283.561 479.187 296.546 481.306 303.73 472.378C310.706 463.747 308.071 434.083 302.438 428.876C294.091 421.241 277.773 424.186 273.032 435.233Z" fill="#AD6359"/>
<path d="M293.82 451.628C293.82 451.563 293.717 451.705 293.717 451.77C293.911 453.294 293.872 455.064 292.541 455.646C292.541 455.646 292.541 455.749 292.541 455.736C294.221 455.387 294.246 453.036 293.82 451.628Z" fill="#263238"/>
<path d="M292.322 450.168C289.854 450.168 290.112 455.129 292.399 455.091C294.686 455.052 294.389 450.129 292.322 450.168Z" fill="#263238"/>
<path d="M302.787 451.137C302.787 451.137 302.916 451.201 302.916 451.266C302.916 452.79 303.239 454.535 304.647 454.974V455.064C302.942 454.909 302.58 452.584 302.787 451.137Z" fill="#263238"/>
<path d="M304.066 449.469C306.508 449.159 306.96 454.069 304.699 454.353C302.438 454.637 302.024 449.74 304.066 449.469Z" fill="#263238"/>
<path d="M290.216 448.01C290.853 447.784 291.478 447.526 292.089 447.235C292.789 447.064 293.409 446.658 293.846 446.085C293.963 445.876 294.004 445.633 293.961 445.398C293.919 445.162 293.796 444.949 293.613 444.793C293.232 444.547 292.792 444.405 292.339 444.382C291.885 444.359 291.434 444.457 291.029 444.664C290.133 444.966 289.381 445.593 288.924 446.421C288.821 446.614 288.777 446.833 288.798 447.051C288.819 447.269 288.904 447.475 289.042 447.645C289.18 447.814 289.365 447.94 289.574 448.005C289.782 448.07 290.006 448.072 290.216 448.01Z" fill="#263238"/>
<path d="M305.836 446.887C305.151 446.809 304.544 446.629 303.859 446.486C303.139 446.438 302.455 446.157 301.908 445.685C301.762 445.502 301.682 445.274 301.682 445.039C301.682 444.805 301.762 444.577 301.908 444.393C302.241 444.063 302.657 443.83 303.113 443.719C303.568 443.607 304.045 443.622 304.492 443.76C305.419 443.888 306.268 444.347 306.883 445.052C307.04 445.226 307.138 445.445 307.164 445.678C307.189 445.911 307.141 446.146 307.024 446.349C306.908 446.553 306.731 446.714 306.517 446.811C306.304 446.907 306.066 446.934 305.836 446.887Z" fill="#263238"/>
<path d="M294.608 460.71C295.027 461.294 295.562 461.783 296.181 462.148C296.799 462.513 297.487 462.745 298.2 462.829C298.821 462.92 299.452 462.92 300.073 462.829C300.305 462.806 300.534 462.763 300.758 462.7C300.839 462.683 300.912 462.639 300.966 462.576C301.02 462.513 301.051 462.434 301.055 462.351L300.784 459.095C301.223 459.289 303.458 460.155 303.368 459.535C302.954 454.245 302.002 449.011 300.525 443.914C300.521 443.896 300.513 443.878 300.502 443.862C300.491 443.847 300.477 443.833 300.461 443.823C300.445 443.813 300.427 443.806 300.408 443.803C300.389 443.8 300.37 443.8 300.351 443.804C300.332 443.809 300.315 443.817 300.299 443.828C300.283 443.839 300.27 443.853 300.26 443.869C300.25 443.885 300.243 443.903 300.239 443.922C300.236 443.941 300.237 443.96 300.241 443.979C300.603 448.863 301.817 453.656 302.257 458.566C301.458 458.244 300.619 458.035 299.763 457.945C299.673 457.945 300.202 461.938 300.189 461.976C299.231 462.122 298.254 462.073 297.315 461.833C296.376 461.594 295.495 461.168 294.724 460.581C294.634 460.478 294.517 460.594 294.608 460.71Z" fill="#263238"/>
<path d="M299.583 462.583C298.912 463.469 298.021 464.164 296.999 464.599C296.432 464.826 295.807 464.866 295.216 464.715C293.924 464.392 293.924 463.216 294.131 462.209C294.26 461.672 294.451 461.152 294.699 460.658C296.082 461.801 297.792 462.475 299.583 462.583Z" fill="#263238"/>
<path d="M296.999 464.613C296.432 464.84 295.807 464.88 295.216 464.729C293.924 464.406 293.924 463.23 294.131 462.223C294.808 462.24 295.459 462.486 295.98 462.919C296.5 463.353 296.859 463.95 296.999 464.613Z" fill="#FF9CBD"/>
<path d="M270.926 455.814C276.869 456.279 279.97 449.212 278.678 443.501C278.678 443.501 294.453 445.71 295.306 433.036C296.561 434.788 298.193 436.237 300.083 437.274C301.972 438.312 304.071 438.912 306.223 439.031L307.27 443.488C308.897 443.036 310.655 438.436 306.714 434.793C306.714 434.793 306.494 428.475 301.856 424.638C300.603 423.54 299.061 422.827 297.413 422.584C295.765 422.341 294.083 422.579 292.567 423.268C289.83 421.26 286.421 420.394 283.057 420.852C281.303 421.119 279.637 421.803 278.201 422.846C276.764 423.889 275.599 425.261 274.802 426.847C274.802 426.847 266.959 428.281 265.59 433.837C265.165 435.404 265.076 437.042 265.33 438.646C265.584 440.249 266.174 441.78 267.062 443.139C267.062 443.139 265.073 445.31 266.042 450.064C266.662 453.113 269.143 455.672 270.926 455.814Z" fill="#263238"/>
<path d="M294.97 431.898C295.074 432.929 295.074 433.968 294.97 434.999C294.889 436.018 294.69 437.024 294.376 437.997C293.755 439.914 292.436 441.528 290.681 442.519C288.873 443.445 286.872 443.932 284.841 443.94C283.82 443.94 282.787 443.94 281.753 443.837C280.719 443.733 279.699 443.591 278.665 443.501C279.673 443.746 280.693 443.966 281.714 444.198C282.735 444.431 283.794 444.392 284.841 444.495C286.984 444.597 289.118 444.152 291.042 443.203C292.935 442.11 294.326 440.32 294.918 438.216C295.467 436.148 295.485 433.975 294.97 431.898Z" fill="#263238"/>
<path d="M303.058 439.329C301.336 438.741 299.724 437.867 298.291 436.745C297.592 436.179 296.97 435.523 296.443 434.794C295.925 434.043 295.491 433.237 295.151 432.391C295.232 433.345 295.519 434.271 295.991 435.104C296.452 435.957 297.081 436.708 297.839 437.313C298.582 437.916 299.415 438.4 300.306 438.747C301.185 439.091 302.115 439.288 303.058 439.329Z" fill="#263238"/>
<path d="M290.823 459.328C289.582 459.267 288.383 458.859 287.362 458.15C286.341 457.441 285.54 456.46 285.049 455.318C284.559 454.176 284.398 452.92 284.586 451.691C284.774 450.463 285.303 449.312 286.113 448.369C286.922 447.426 287.98 446.73 289.166 446.358C290.352 445.987 291.618 445.956 292.821 446.268C294.024 446.581 295.115 447.225 295.97 448.126C296.825 449.028 297.41 450.152 297.658 451.37C298.002 453.092 297.652 454.881 296.684 456.347C295.716 457.813 294.209 458.838 292.49 459.199C291.942 459.313 291.382 459.357 290.823 459.328ZM291.43 446.938C290.949 446.913 290.467 446.952 289.996 447.054C288.568 447.354 287.308 448.186 286.472 449.382C285.636 450.577 285.287 452.047 285.496 453.491C285.705 454.935 286.456 456.245 287.597 457.154C288.738 458.064 290.183 458.504 291.637 458.387C293.091 458.269 294.446 457.601 295.425 456.52C296.405 455.438 296.935 454.024 296.909 452.565C296.882 451.107 296.301 449.713 295.284 448.667C294.266 447.622 292.888 447.003 291.43 446.938Z" fill="#FFC727"/>
<path d="M306.029 458.205C303.445 458.076 301.314 455.363 301.081 451.913C300.928 450.261 301.308 448.604 302.166 447.184C302.493 446.552 302.978 446.015 303.572 445.624C304.167 445.234 304.852 445.003 305.562 444.953C306.272 444.904 306.983 445.038 307.626 445.343C308.269 445.648 308.822 446.113 309.234 446.693C310.258 447.993 310.858 449.576 310.952 451.228C311.197 454.884 309.182 458.011 306.469 458.205H306.029ZM305.952 445.828H305.616C305.053 445.894 304.515 446.094 304.045 446.411C303.575 446.728 303.188 447.152 302.916 447.649C302.166 448.915 301.832 450.383 301.96 451.848C302.179 455.014 304.169 457.468 306.404 457.313C308.639 457.158 310.28 454.458 310.061 451.293C309.989 449.824 309.46 448.415 308.549 447.262C308.245 446.847 307.856 446.501 307.408 446.247C306.961 445.993 306.464 445.837 305.952 445.789V445.828Z" fill="#FFC727"/>
<path d="M297.489 452.144L296.869 451.511C297.812 450.594 300.06 449.302 301.805 450.917L301.197 451.563C299.647 450.116 297.58 452.067 297.489 452.144Z" fill="#FFC727"/>
<path d="M269.388 456.033L268.574 455.671C268.742 455.296 270.241 451.95 272.205 451.485C274.169 451.02 284.66 451.214 285.125 451.227V452.118C280.873 451.967 276.616 452.045 272.373 452.351C271.107 452.661 269.789 455.103 269.388 456.033Z" fill="#FFC727"/>
<path d="M276.533 455.413C276.533 455.413 272.128 447.661 268.678 449.224C265.228 450.787 268.097 461.575 271.818 463.358C272.278 463.628 272.789 463.799 273.318 463.862C273.848 463.925 274.385 463.878 274.895 463.724C275.406 463.57 275.879 463.312 276.285 462.967C276.692 462.622 277.022 462.196 277.257 461.717L276.533 455.413Z" fill="#AD6359"/>
<path d="M269.543 452.312C269.543 452.312 269.466 452.39 269.543 452.416C272.127 453.708 273.342 456.382 274.104 459.07C273.973 458.784 273.781 458.531 273.542 458.328C273.302 458.125 273.022 457.976 272.719 457.892C272.416 457.809 272.099 457.792 271.789 457.844C271.48 457.895 271.185 458.014 270.926 458.191C270.912 458.199 270.901 458.211 270.894 458.224C270.886 458.238 270.882 458.253 270.882 458.269C270.882 458.284 270.886 458.3 270.894 458.313C270.901 458.327 270.912 458.338 270.926 458.346C271.414 458.237 271.925 458.281 272.388 458.473C272.85 458.665 273.242 458.995 273.51 459.418C273.949 460.137 274.312 460.899 274.595 461.692C274.698 461.938 275.138 461.847 275.073 461.563V461.499C275.486 458.062 273.238 452.997 269.543 452.312Z" fill="#263238"/>
<path d="M288.846 485.62H288.781C288.562 489.935 287.773 499.832 280.835 498.54C278.092 497.777 275.62 496.254 273.704 494.147C269.965 490.201 266.843 485.715 264.44 480.84C264.375 480.723 264.22 480.839 264.259 480.943C265.095 483.466 266.227 485.882 267.631 488.139C269.193 490.752 271.106 493.139 273.316 495.232C275.422 497.17 277.967 499.108 280.939 499.599C282.212 499.816 283.522 499.593 284.652 498.966C285.781 498.338 286.664 497.345 287.153 496.15C288.535 492.821 289.115 489.214 288.846 485.62Z" fill="#263238"/>
<path d="M252.153 487.416C237.372 500.336 199.478 551.37 208.78 562.287C218.083 573.204 276.571 565.633 293.38 559.6C298.393 557.804 283.225 526.214 277.696 524.961C273.07 523.902 248.096 532.442 247.54 530.995C246.985 529.548 251.856 518.281 259.685 498.1C268.716 474.844 258.69 481.692 252.153 487.416Z" fill="#AD6359"/>
<path d="M302.373 517.726C314.143 517.274 317.231 519.018 326.921 513.308C333.304 509.599 338.42 512.08 334.337 518.592C327.657 529.225 312.593 532.998 306.998 532.804L302.373 517.726Z" fill="#AD6359"/>
<path d="M270.435 525.801C270.435 525.801 284.194 519.87 296.675 518.139C305.319 516.95 324.401 516.446 340.603 536.847C344.479 541.692 346.469 551.305 337.334 545.671C330.874 541.679 327.941 537.183 323.742 535.542C323.742 535.542 324.879 548.075 319.866 551.731C315.492 554.923 310.899 557.803 306.12 560.349C305.458 559.578 304.846 558.766 304.285 557.92C304.285 557.92 299.298 560.891 290.629 559.212L270.435 525.801Z" fill="#AD6359"/>
<path d="M305.112 518.334C308.988 520.84 316.947 526.293 321.908 533.024C327.464 540.505 336.12 556.422 330.591 560.466C326.508 563.438 322.658 557.65 322.658 557.65C322.658 557.65 324.854 564.975 320.578 566.849C316.702 568.554 313.975 563.903 313.975 563.903C313.975 563.903 314.557 568.58 310.487 569.51C305.59 570.621 305.203 560.634 299.273 557.469C297.968 556.758 305.112 518.334 305.112 518.334Z" fill="#AD6359"/>
<path d="M313.058 537.52C318.243 543.01 321.632 549.951 322.774 557.416C322.774 557.61 322.657 557.726 322.606 557.558C320.218 550.533 316.991 543.822 312.993 537.571C312.993 537.571 313.032 537.52 313.058 537.52Z" fill="#263238"/>
<path d="M305.72 543.411C308.226 546.228 313.575 555.311 314.234 563.838C314.234 564.032 314.105 564.148 314.053 563.967C312.033 556.835 309.215 549.952 305.655 543.45C305.655 543.45 305.642 543.372 305.72 543.411Z" fill="#263238"/>
<path d="M323.73 535.478C327.4 536.977 329.673 539.07 332.645 541.615C334.096 542.889 335.619 544.08 337.206 545.181C338.666 546.176 340.81 547.662 342.581 546.473C343.002 546.104 343.317 545.629 343.495 545.098C343.672 544.567 343.704 543.998 343.588 543.45C343.276 541.869 342.718 540.348 341.935 538.941C341.935 538.941 341.999 538.837 342.025 538.941C342.798 540.223 343.434 541.583 343.924 542.997C344.218 543.971 344.218 545.009 343.924 545.982C343.162 548.01 340.668 548.036 338.989 547.274C337.989 546.795 337.041 546.215 336.159 545.543C335.294 544.923 334.454 544.251 333.575 543.579C331.896 542.184 330.307 540.698 328.653 539.277C327.014 537.936 325.287 536.706 323.485 535.594C323.469 535.562 323.467 535.524 323.48 535.491C323.492 535.457 323.517 535.429 323.549 535.413C323.582 535.398 323.619 535.396 323.653 535.408C323.687 535.42 323.715 535.446 323.73 535.478Z" fill="#263238"/>
<path d="M270.435 525.801L284.853 566.125C284.853 566.125 211.7 574.988 206.778 561.939C201.855 548.89 234.53 502.907 248.471 489.974C264.634 474.974 265.926 480.762 261.261 495.013C256.391 509.949 247.708 531.37 247.708 531.37L270.435 525.801Z" fill="#F54E02"/>
<path d="M224.944 539.432C228.501 537.479 232.192 535.782 235.991 534.354C239.767 532.971 243.64 531.869 247.58 531.06C249.815 530.556 252.063 530.168 254.324 529.768C254.324 529.768 254.402 529.858 254.324 529.871C250.388 530.725 246.506 531.808 242.696 533.114C238.88 534.363 235.103 535.685 231.365 537.08C229.233 537.881 227.153 538.76 225.06 539.664C225.029 539.68 224.994 539.682 224.961 539.671C224.928 539.66 224.901 539.637 224.886 539.606C224.87 539.575 224.868 539.54 224.879 539.507C224.89 539.474 224.913 539.447 224.944 539.432Z" fill="#263238"/>
<path d="M270.254 525.672C269.88 525.736 249.673 530.232 249.001 530.465C249.104 530.181 253.665 520.129 254.337 518.656L254.531 518.217C254.957 517.571 255.383 516.925 255.823 516.266C256.262 515.607 256.843 514.573 257.347 513.682L255.719 516.15C255.474 516.537 255.228 516.925 254.996 517.325C255.448 516.279 255.887 515.232 256.288 514.186C256.985 512.506 257.58 510.814 258.277 509.121H258.187C256.895 512.054 255.409 514.935 254.065 517.868C252.722 520.801 247.605 531.55 247.605 531.55C247.605 531.55 269.918 526.111 270.358 525.969C270.397 525.955 270.429 525.926 270.448 525.889C270.466 525.851 270.468 525.808 270.454 525.769C270.441 525.729 270.412 525.697 270.374 525.679C270.337 525.66 270.294 525.658 270.254 525.672Z" fill="#263238"/>
<path d="M269.052 550.906C267.463 546.409 265.926 541.862 264.169 537.456C263.174 534.936 262.192 532.417 261.184 529.898C261.184 529.807 260.977 529.898 261.003 529.898C262.411 534.471 263.833 539.058 265.461 543.567C267.089 548.076 268.639 552.611 270.306 557.03C271.262 559.562 272.287 562.068 273.381 564.549C273.381 564.549 273.484 564.549 273.471 564.549C272.218 559.95 270.642 555.44 269.052 550.906Z" fill="#263238"/>
<path d="M285.72 566.81C285.125 565.518 284.428 563.761 283.743 562.534C283.575 562.198 283.33 562.25 283.459 562.534C283.898 563.658 284.221 564.911 284.66 566.074C283.627 566.164 282.606 566.242 281.585 566.358L278.032 566.733C275.707 566.974 273.381 567.194 271.056 567.392C266.353 567.779 261.641 568.068 256.921 568.257C247.45 568.695 237.962 568.635 228.497 568.076C225.913 567.908 223.213 567.689 220.577 567.392C217.941 567.095 215.022 566.733 212.825 566.242C212.761 566.242 212.735 566.332 212.825 566.358C215.008 567.053 217.241 567.575 219.505 567.921C221.882 568.27 224.259 568.567 226.65 568.774C231.417 569.2 236.197 569.368 240.978 569.407C250.452 569.485 259.927 569.166 269.402 568.451C272.05 568.257 274.686 568.025 277.335 567.766L281.327 567.34C282.645 567.237 285.823 567.03 285.72 566.81Z" fill="#263238"/>
<path d="M379.971 565.918H287.864V570.039H379.971V565.918Z" fill="#C7C7C7"/>
<path d="M379.971 565.918V570.039H317.36L320.513 565.918H379.971Z" fill="#A6A6A6"/>
<path d="M330.021 570.04H410.629L422.296 513.166H341.688L330.021 570.04Z" fill="#A6A6A6"/>
<path d="M333.795 570.04H414.403L426.07 513.166H345.462L333.795 570.04Z" fill="#C7C7C7"/>
<path d="M387.193 539.485C387.282 540.754 386.941 542.016 386.223 543.066C385.505 544.117 384.454 544.894 383.239 545.273C380.939 545.764 379.014 543.981 378.924 541.28C378.857 540.013 379.216 538.759 379.945 537.72C380.673 536.68 381.728 535.914 382.942 535.544C385.177 535.014 387.115 536.81 387.193 539.485Z" fill="white"/>
<path d="M567.686 688.102C566.484 691.229 508.641 761.359 504.739 762.651C503.266 763.142 492.556 755.312 479.894 745.48C477.155 743.361 474.339 741.152 471.496 738.891C453.021 724.253 433.757 708.296 433.757 708.296L472.388 661.268L509.055 693.154L517.117 700.157C517.117 700.157 551.2 683.206 555.631 682.224C560.063 681.242 568.887 684.976 567.686 688.102Z" fill="#AD6359"/>
<path d="M567.686 688.103C566.484 691.23 508.641 761.359 504.739 762.651C502.943 763.233 487.504 751.566 471.496 738.891L508.964 693.155L517.026 700.157C517.026 700.157 551.2 683.206 555.631 682.224C560.063 681.242 568.887 684.976 567.686 688.103Z" fill="#EBEBEB"/>
<path d="M567.685 688.103C566.483 691.23 508.641 761.359 504.739 762.651C503.266 763.142 492.555 755.313 479.894 745.481L517.051 700.157C517.051 700.157 551.199 683.206 555.631 682.224C560.062 681.242 568.887 684.976 567.685 688.103Z" fill="#F54E02"/>
<path d="M564.041 686.798C554.054 698.31 514.881 745.714 505.901 757.858C505.837 757.962 505.901 758.013 505.979 757.858C516.121 746.657 554.933 698.93 564.261 686.889C564.442 686.695 564.261 686.553 564.041 686.798Z" fill="#263238"/>
<path d="M549.391 684.692C548.279 685.972 547.444 687.469 546.939 689.088C546.434 690.706 546.271 692.412 546.458 694.098C546.789 697.111 548.259 699.884 550.567 701.85C550.644 701.85 550.747 701.772 550.683 701.707C548.691 699.383 547.503 696.477 547.296 693.423C547.089 690.368 547.873 687.329 549.533 684.756C549.61 684.718 549.468 684.601 549.391 684.692Z" fill="#263238"/>
<path d="M521.987 696.565C518.033 701.217 515.204 708.038 516.638 714.137C516.638 714.369 517.026 714.292 517.064 714.137C518.305 708.244 520.172 702.501 522.633 697.005C522.691 696.919 522.713 696.814 522.694 696.712C522.674 696.61 522.615 696.52 522.53 696.462C522.444 696.404 522.339 696.382 522.237 696.401C522.135 696.421 522.045 696.48 521.987 696.565Z" fill="#263238"/>
<path d="M526.393 694.097C522.453 698.748 519.61 705.57 521.044 711.668C521.044 711.901 521.445 711.823 521.484 711.668C522.716 705.775 524.579 700.031 527.039 694.536C527.097 694.45 527.119 694.345 527.1 694.243C527.08 694.142 527.021 694.052 526.936 693.993C526.85 693.935 526.745 693.913 526.643 693.933C526.541 693.952 526.451 694.011 526.393 694.097Z" fill="#263238"/>
<path d="M530.812 691.63C526.859 696.281 524.029 703.103 525.463 709.201C525.463 709.447 525.851 709.356 525.89 709.201C527.128 703.308 528.995 697.565 531.458 692.069C531.516 691.984 531.538 691.878 531.519 691.777C531.5 691.675 531.44 691.585 531.355 691.527C531.269 691.468 531.164 691.446 531.062 691.466C530.96 691.485 530.87 691.544 530.812 691.63Z" fill="#263238"/>
<path d="M535.217 689.162C531.277 693.814 528.434 700.648 529.868 706.746C529.933 706.979 530.269 706.901 530.308 706.746C531.544 700.854 533.407 695.111 535.863 689.615C535.923 689.529 535.947 689.423 535.929 689.32C535.91 689.217 535.852 689.125 535.766 689.065C535.681 689.005 535.575 688.982 535.472 689C535.369 689.018 535.277 689.077 535.217 689.162Z" fill="#263238"/>
<path d="M497.181 745.662C492.84 750.946 501.057 757.703 505.411 752.393C509.765 747.083 501.535 740.364 497.181 745.662Z" fill="white"/>
<path d="M513.615 681.114C509.739 681.876 509.132 686.463 509.972 689.628C511.518 695.028 514.454 699.929 518.486 703.84C518.576 703.93 518.68 703.84 518.744 703.84C518.848 703.895 518.962 703.924 519.079 703.926C519.196 703.928 519.312 703.902 519.416 703.85C519.521 703.798 519.612 703.722 519.682 703.628C519.751 703.535 519.798 703.425 519.817 703.31C520.269 698.052 521.393 692.47 520.204 687.238C519.52 684.124 517.349 680.403 513.615 681.114ZM518.899 695.145C518.744 697.729 518.46 700.313 518.395 702.897C516.662 700.18 515.066 697.377 513.615 694.499C512.926 693.096 512.338 691.645 511.858 690.158C511.147 687.858 511.018 679.99 516.535 683.698C519.52 685.817 519.042 692.044 518.899 695.145Z" fill="#263238"/>
<path d="M510.592 716.953C514.597 713.374 516.91 708.193 519.636 703.645C519.92 703.18 519.507 702.689 519.068 702.586C519.07 702.561 519.066 702.537 519.058 702.514C519.05 702.491 519.036 702.471 519.019 702.453C519.002 702.436 518.981 702.423 518.958 702.415C518.936 702.406 518.911 702.403 518.887 702.405C513.335 703.243 508.1 705.524 503.706 709.02C501.122 711.1 498.964 715.157 501.729 718.064C504.494 720.971 508.241 719.046 510.592 716.953ZM505.566 717.586C498.9 717.444 503.577 711.126 505.489 709.653C506.749 708.731 508.07 707.893 509.442 707.146C512.293 705.64 515.221 704.286 518.215 703.09C516.755 705.234 515.489 707.495 514.119 709.692C512.44 712.314 509.236 717.663 505.566 717.586Z" fill="#263238"/>
<path d="M507.103 685.971L464.17 736.85L334.686 644.653L321.921 635.609C321.921 635.609 318.252 638.025 312.735 640.984C305.073 645.105 293.846 650.299 283.962 651.63C267.373 653.801 242.411 653.258 228.677 634.42C217.049 618.555 221.068 598.102 221.068 598.102L239.349 590.492C239.349 590.492 282.812 555.169 310.694 554.433C322.528 554.097 339.66 563.283 355.5 572.844C371.34 582.405 507.103 685.971 507.103 685.971Z" fill="#263238"/>
<path d="M321.921 635.557C321.921 635.557 318.252 637.973 312.735 640.932C303.187 629.213 282.929 607.895 282.309 607.133L321.921 635.557Z" fill="#37474F"/>
<path d="M255.254 578.722C252.67 580.479 250.086 582.34 247.593 584.148C245.099 585.957 242.425 587.585 240.086 589.523C237.748 591.461 235.332 593.606 233.032 595.738C231.921 596.758 230.823 597.792 229.75 598.864C228.622 599.891 227.573 601.001 226.611 602.185C226.533 602.301 226.688 602.43 226.805 602.366C228.022 601.521 229.183 600.597 230.28 599.601L233.911 596.59C236.249 594.652 238.626 592.714 240.965 590.828C243.303 588.942 245.422 586.784 247.722 584.82C250.022 582.856 252.748 580.789 255.332 578.864C255.332 578.774 255.332 578.683 255.254 578.722Z" fill="#37474F"/>
<path d="M493.847 681.073C491.264 683.812 488.835 686.758 486.406 689.652C483.977 692.546 481.548 695.466 479.145 698.399C474.325 704.265 469.48 710.105 464.739 716.035C462.155 719.291 459.571 722.572 457.155 725.97C457.051 726.113 457.297 726.293 457.413 726.164C462.581 720.609 467.323 714.691 472.116 708.826C476.909 702.96 481.729 697.068 486.444 691.138C489.028 687.882 491.69 684.678 494.067 681.241C494.171 681.112 493.951 680.931 493.847 681.073Z" fill="#37474F"/>
<path d="M396.522 688.528C389.945 683.218 374.984 672.831 368.162 667.856C361.34 662.882 354.596 657.921 347.71 653.102C345.733 651.719 343.73 650.363 341.741 649.006C339.751 647.649 337.671 646.422 335.733 644.975C335.617 644.897 335.513 645.091 335.617 645.169C337.413 646.461 339.092 647.959 340.849 649.316C342.606 650.673 344.196 651.9 345.888 653.192C349.196 655.699 352.529 658.153 355.862 660.621C362.607 665.634 369.415 670.569 376.289 675.427C380.165 678.166 392.232 686.306 396.224 688.916C396.457 689.084 396.741 688.683 396.522 688.528Z" fill="#37474F"/>
<path d="M439.041 633.943C432.968 628.775 419.118 618.852 412.749 614.072C406.379 609.291 399.829 604.369 393.369 599.563L374.195 585.325C367.968 580.712 361.779 576.022 355.203 571.927C351.598 569.679 347.903 567.598 344.105 565.725C340.42 563.775 336.573 562.15 332.606 560.867C332.49 560.867 332.425 560.996 332.528 561.061C335.771 562.921 339.182 564.498 342.477 566.306C345.771 568.115 348.937 569.95 352.063 571.914C358.588 575.984 364.751 580.596 370.94 585.157C383.795 594.64 396.624 604.162 409.57 613.581C416.806 618.749 431.237 629.614 438.77 634.447C438.989 634.485 439.26 634.124 439.041 633.943Z" fill="#37474F"/>
</g>
</g>
<defs>
<filter id="filter0_d_309_30597" x="0" y="0" width="853" height="1168" filterUnits="userSpaceOnUse" color-interpolation-filters="sRGB">
<feFlood flood-opacity="0" result="BackgroundImageFix"/>
<feColorMatrix in="SourceAlpha" type="matrix" values="0 0 0 0 0 0 0 0 0 0 0 0 0 0 0 0 0 0 127 0" result="hardAlpha"/>
<feOffset/>
<feGaussianBlur stdDeviation="50"/>
<feComposite in2="hardAlpha" operator="out"/>
<feColorMatrix type="matrix" values="0 0 0 0 0 0 0 0 0 0 0 0 0 0 0 0 0 0 0.25 0"/>
<feBlend mode="normal" in2="BackgroundImageFix" result="effect1_dropShadow_309_30597"/>
<feBlend mode="normal" in="SourceGraphic" in2="effect1_dropShadow_309_30597" result="shape"/>
</filter>
<filter id="filter1_f_309_30597" x="-641.618" y="-1020.85" width="3075.3" height="3008.8" filterUnits="userSpaceOnUse" color-interpolation-filters="sRGB">
<feFlood flood-opacity="0" result="BackgroundImageFix"/>
<feBlend mode="normal" in="SourceGraphic" in2="BackgroundImageFix" result="shape"/>
<feGaussianBlur stdDeviation="327" result="effect1_foregroundBlur_309_30597"/>
</filter>
<filter id="filter2_f_309_30597" x="-1513.11" y="-1280.89" width="2755.43" height="3367.53" filterUnits="userSpaceOnUse" color-interpolation-filters="sRGB">
<feFlood flood-opacity="0" result="BackgroundImageFix"/>
<feBlend mode="normal" in="SourceGraphic" in2="BackgroundImageFix" result="shape"/>
<feGaussianBlur stdDeviation="327" result="effect1_foregroundBlur_309_30597"/>
</filter>
<clipPath id="clip0_309_30597">
<rect width="651" height="968" fill="white" transform="translate(99 100)"/>
</clipPath>
<clipPath id="clip1_309_30597">
<rect width="704" height="1251" fill="white" transform="translate(1385.9 1033.58) rotate(165)"/>
</clipPath>
<clipPath id="clip2_309_30597">
<rect width="704" height="1251" fill="white" transform="translate(-193.929 1138.2) rotate(-150)"/>
</clipPath>
</defs>
</svg>
