<svg width="19" height="20" viewBox="0 0 19 20" fill="none" xmlns="http://www.w3.org/2000/svg">
<path d="M14.0484 13.9746C13.8818 13.8079 13.7984 13.6038 13.7984 13.3621C13.7984 13.1204 13.8818 12.9163 14.0484 12.7496L15.9484 10.8496H8.14844C7.9151 10.8496 7.7151 10.7663 7.54844 10.5996C7.38177 10.4329 7.29844 10.2329 7.29844 9.99961C7.29844 9.74961 7.38177 9.54544 7.54844 9.38711C7.7151 9.22878 7.9151 9.14961 8.14844 9.14961H15.8984L13.9734 7.22461C13.8234 7.07461 13.7484 6.88294 13.7484 6.64961C13.7484 6.41628 13.8318 6.20794 13.9984 6.02461C14.1651 5.85794 14.3693 5.77461 14.6109 5.77461C14.8526 5.77461 15.0568 5.85794 15.2234 6.02461L18.6234 9.42461C18.7068 9.52461 18.7693 9.62461 18.8109 9.72461C18.8526 9.82461 18.8734 9.92461 18.8734 10.0246C18.8734 10.1413 18.8526 10.2454 18.8109 10.3371C18.7693 10.4288 18.7068 10.5246 18.6234 10.6246L15.2484 13.9996C15.0984 14.1496 14.9068 14.2246 14.6734 14.2246C14.4401 14.2246 14.2318 14.1413 14.0484 13.9746ZM2.49844 19.1496C2.03177 19.1496 1.6276 18.9788 1.28594 18.6371C0.944271 18.2954 0.773438 17.8996 0.773438 17.4496V2.54961C0.773438 2.08294 0.944271 1.68294 1.28594 1.34961C1.6276 1.01628 2.03177 0.849609 2.49844 0.849609H8.94844C9.19844 0.849609 9.4026 0.932943 9.56094 1.09961C9.71927 1.26628 9.79844 1.46628 9.79844 1.69961C9.79844 1.94961 9.71927 2.15378 9.56094 2.31211C9.4026 2.47044 9.19844 2.54961 8.94844 2.54961H2.49844V17.4496H8.94844C9.19844 17.4496 9.4026 17.5329 9.56094 17.6996C9.71927 17.8663 9.79844 18.0663 9.79844 18.2996C9.79844 18.5496 9.71927 18.7538 9.56094 18.9121C9.4026 19.0704 9.19844 19.1496 8.94844 19.1496H2.49844Z" fill="black"/>
</svg>
