<svg width="24" height="15" viewBox="0 0 24 15" fill="none" xmlns="http://www.w3.org/2000/svg">
<rect width="24" height="14.8235" rx="4" fill="#6C6C6C"/>
<path d="M5.477 7.39522C5.477 7.63322 5.505 7.84789 5.561 8.03922C5.62167 8.23055 5.70567 8.39622 5.813 8.53622C5.925 8.67155 6.06033 8.77655 6.219 8.85122C6.37767 8.92589 6.55967 8.96322 6.765 8.96322C6.96567 8.96322 7.14533 8.92589 7.304 8.85122C7.46733 8.77655 7.60267 8.67155 7.71 8.53622C7.822 8.39622 7.906 8.23055 7.962 8.03922C8.02267 7.84789 8.053 7.63322 8.053 7.39522C8.053 7.15722 8.02267 6.94255 7.962 6.75122C7.906 6.55522 7.822 6.38955 7.71 6.25422C7.60267 6.11422 7.46733 6.00689 7.304 5.93222C7.14533 5.85755 6.96567 5.82022 6.765 5.82022C6.55967 5.82022 6.37767 5.85989 6.219 5.93922C6.06033 6.01389 5.925 6.12122 5.813 6.26122C5.70567 6.39655 5.62167 6.56222 5.561 6.75822C5.505 6.94955 5.477 7.16189 5.477 7.39522ZM9.18 7.39522C9.18 7.81055 9.117 8.17689 8.991 8.49422C8.86967 8.80689 8.70167 9.07055 8.487 9.28522C8.27233 9.49522 8.01567 9.65389 7.717 9.76122C7.423 9.86855 7.10567 9.92222 6.765 9.92222C6.43367 9.92222 6.121 9.86855 5.827 9.76122C5.533 9.65389 5.27633 9.49522 5.057 9.28522C4.83767 9.07055 4.665 8.80689 4.539 8.49422C4.413 8.17689 4.35 7.81055 4.35 7.39522C4.35 6.97989 4.41533 6.61589 4.546 6.30322C4.67667 5.98589 4.85167 5.71989 5.071 5.50522C5.295 5.29055 5.55167 5.12955 5.841 5.02222C6.135 4.91489 6.443 4.86122 6.765 4.86122C7.09633 4.86122 7.409 4.91489 7.703 5.02222C7.997 5.12955 8.25367 5.29055 8.473 5.50522C8.69233 5.71989 8.865 5.98589 8.991 6.30322C9.117 6.61589 9.18 6.97989 9.18 7.39522ZM13.5242 4.97322V5.90422H12.0612V9.82422H10.9692V5.90422H9.50621V4.97322H13.5242ZM15.682 4.91722C16.4053 4.91722 16.9607 5.04555 17.348 5.30222C17.7353 5.55422 17.929 5.96955 17.929 6.54822C17.929 7.13155 17.733 7.55389 17.341 7.81522C16.949 8.07189 16.389 8.20022 15.661 8.20022H15.318V9.82422H14.226V5.04322C14.464 4.99655 14.716 4.96389 14.982 4.94522C15.248 4.92655 15.4813 4.91722 15.682 4.91722ZM15.752 5.84822C15.6727 5.84822 15.5933 5.85055 15.514 5.85522C15.4393 5.85989 15.374 5.86455 15.318 5.86922V7.26922H15.661C16.039 7.26922 16.3237 7.21789 16.515 7.11522C16.7063 7.01255 16.802 6.82122 16.802 6.54122C16.802 6.40589 16.7763 6.29389 16.725 6.20522C16.6783 6.11655 16.6083 6.04655 16.515 5.99522C16.4263 5.93922 16.3167 5.90189 16.186 5.88322C16.0553 5.85989 15.9107 5.84822 15.752 5.84822Z" fill="white"/>
</svg>
