<svg width="393" height="306" viewBox="0 0 393 306" fill="none" xmlns="http://www.w3.org/2000/svg">
<rect width="393" height="306" fill="#DD96FF"/>
<mask id="mask0_611_173" style="mask-type:alpha" maskUnits="userSpaceOnUse" x="0" y="0" width="393" height="306">
<rect width="393" height="306" fill="#D9D9D9"/>
</mask>
<g mask="url(#mask0_611_173)">
<path d="M45.0005 351.502C60.7797 285.13 99.0005 279.451 99.0005 279.451L117.936 351.502H45.0005Z" fill="black"/>
<path d="M91.9885 351.501C87.0794 326.656 84.9755 306.78 86.0274 292.937C86.3781 286.904 90.5859 281.58 96.5469 280.16L193.677 254.25L296.417 279.805C302.729 281.58 307.638 287.613 307.287 294.357C306.586 314.943 305.183 334.109 303.079 351.501H91.9885Z" fill="black"/>
<path d="M243.82 266.673L194.028 254.25L136.872 269.512C136.872 269.512 145.288 296.842 185.262 295.777C224.885 294.357 243.82 266.673 243.82 266.673Z" fill="black"/>
<path d="M278.883 351.501L296.416 280.16C296.416 280.16 338.494 283.709 369 351.501H278.883Z" fill="black"/>
<path d="M266.779 99.1465C266.779 99.1465 265.727 142.448 282.558 154.515C319.026 179.715 316.571 209.53 303.597 238.279L84.0907 239.699C84.0907 239.699 53.9349 179.715 91.4544 154.515C106.883 144.223 107.234 148.127 108.636 106.245L266.779 99.1465Z" fill="black"/>
<path d="M108.285 97.0151C107.584 139.252 138.792 174.035 184.026 174.745C229.259 175.455 266.077 141.736 266.779 99.1447C267.129 56.9081 231.013 21.7701 186.129 21.4152C140.896 20.7053 108.987 54.7785 108.285 97.0151Z" fill="black"/>
<path d="M208.053 160.193L219.273 267.382L164.572 273.771L169.481 171.906L208.053 160.193Z" fill="black"/>
<path d="M239.43 120.797C239.43 120.797 160.183 94.1774 159.131 38.0985C159.131 38.0985 197.702 18.2225 226.456 50.876C255.209 83.5295 239.43 120.797 239.43 120.797Z" fill="black"/>
<path d="M219.441 98.082V150.612L243.285 111.569L219.441 98.082Z" fill="black"/>
<path d="M254.154 137.478C256.609 147.771 249.245 159.484 238.025 163.033C226.804 166.583 215.583 161.259 213.479 150.966C211.025 140.673 218.388 128.96 229.609 125.411C240.83 121.861 251.7 127.185 254.154 137.478Z" fill="black"/>
<path d="M243.285 138.542C243.285 138.542 231.012 135.703 224.701 148.835Z" fill="black"/>
<path d="M173.157 43.4217C173.157 43.4217 128.625 42.3569 110.041 88.4978C110.041 88.4978 107.586 53.7147 143.352 40.5823L177.365 35.6133L173.157 43.4217Z" fill="black"/>
</g>
</svg>
