<svg width="393" height="306" viewBox="0 0 393 306" fill="none" xmlns="http://www.w3.org/2000/svg">
<rect width="393" height="306" fill="#ADD8FF"/>
<mask id="mask0_611_58" style="mask-type:alpha" maskUnits="userSpaceOnUse" x="0" y="0" width="393" height="306">
<rect width="393" height="306" fill="#D9D9D9"/>
</mask>
<g mask="url(#mask0_611_58)">
<path d="M216.162 361.743C203.83 343.608 204.193 319.671 217.975 301.899C236.473 278.687 270.566 276.148 292.327 296.459L361.238 361.743H216.162Z" fill="#005688"/>
<path d="M79.4265 361.74L80.5146 332.362C79.7892 321.119 69.6338 310.238 79.7892 304.798C138.545 274.332 184.97 268.529 184.97 268.529C211.809 267.441 252.43 278.322 274.917 285.575C284.71 288.477 291.238 297.907 290.875 308.062L292.326 361.74H79.4265Z" fill="#005688"/>
<path d="M147.975 277.236L169.374 271.433L205.643 264.904L226.316 273.246L238.285 275.785C238.285 275.785 256.782 304.075 217.249 308.79C170.099 313.868 151.239 290.655 147.975 277.236Z" fill="#DE9961"/>
<path d="M-0.000428915 361.743L74.3513 308.427C94.2993 294.282 121.501 296.458 139.273 313.505C152.33 326.562 157.045 345.059 152.693 361.743H-0.000428915Z" fill="#005688"/>
<path d="M162.484 195.267C162.484 195.267 147.977 200.708 140.723 193.454C133.469 186.2 144.35 173.506 144.35 173.506L160.671 181.485L162.484 195.267Z" fill="#1C1C1C"/>
<path d="M133.107 67.2359C133.107 67.2359 110.258 59.9821 99.7399 90.0854C89.2218 120.189 129.843 157.183 129.843 157.183L133.107 67.2359Z" fill="#1C1C1C"/>
<path d="M281.811 143.764C284.35 153.919 277.459 165.163 266.578 168.79C255.697 172.779 244.454 167.339 241.915 157.546C239.376 147.391 246.267 136.148 257.148 132.521C268.392 128.531 279.272 133.609 281.811 143.764Z" fill="#1C1C1C"/>
<path d="M278.547 103.868C276.008 143.764 240.464 190.188 197.304 191.639C154.144 193.09 124.766 160.085 113.523 121.64C100.828 78.4795 149.429 47.288 192.589 46.2C219.428 45.8373 281.086 60.3449 278.547 103.868Z" fill="#1C1C1C"/>
<path d="M179.169 174.232L166.475 292.832L225.23 291.382L218.339 185.113L179.169 174.232Z" fill="#DE9961"/>
<path d="M223.779 269.619L176.267 202.521L218.702 192.729L223.779 269.619Z" fill="#CA8046"/>
<path d="M180.618 63.2466C193.675 59.257 207.82 57.8062 221.24 60.3451C239.737 63.6093 263.312 74.1273 267.301 107.495C273.83 162.987 268.752 202.883 241.55 218.478C221.602 230.085 194.763 228.271 175.903 211.225C167.924 204.333 161.033 192.727 155.592 174.23L142.898 147.754C142.898 148.116 117.873 82.4692 180.618 63.2466Z" fill="#DE9961"/>
<path d="M235.384 143.766L244.814 162.988L238.286 168.429" stroke="black" stroke-width="0.4432" stroke-miterlimit="10" stroke-linecap="round" stroke-linejoin="round"/>
<path d="M218.701 141.588C218.701 141.588 212.173 119.826 183.883 136.873C183.883 136.873 196.214 159.36 218.701 141.588Z" fill="white"/>
<mask id="mask1_611_58" style="mask-type:luminance" maskUnits="userSpaceOnUse" x="183" y="130" width="36" height="19">
<path d="M218.701 141.588C218.701 141.588 212.173 119.826 183.883 136.873C183.883 136.873 196.214 159.36 218.701 141.588Z" fill="white"/>
</mask>
<g mask="url(#mask1_611_58)">
<path d="M212.898 138.324C213.623 144.127 209.997 149.205 204.556 149.93C199.116 150.655 194.038 147.028 192.95 141.225C192.225 135.422 195.852 130.345 201.292 129.619C206.732 128.894 212.173 132.521 212.898 138.324Z" fill="#242424"/>
</g>
<path d="M184.244 137.236C189.322 133.246 196.213 131.433 202.379 131.433C205.643 131.433 208.907 132.158 211.446 133.971C213.985 135.422 216.161 138.324 216.524 141.225C216.524 141.951 217.249 142.313 217.974 142.313C218.7 142.313 219.062 141.588 219.062 140.863C217.974 137.236 215.436 134.334 212.534 132.158C209.27 130.345 206.006 129.619 202.379 129.619C195.488 129.982 188.596 132.158 183.156 136.51C182.793 136.873 182.793 137.236 183.156 137.236C183.519 137.236 184.244 137.598 184.244 137.236Z" fill="#242424"/>
<path d="M243.002 140.499C243.002 140.499 250.982 118.374 267.303 132.882C267.303 133.245 261.862 154.644 243.002 140.499Z" fill="white"/>
<mask id="mask2_611_58" style="mask-type:luminance" maskUnits="userSpaceOnUse" x="243" y="127" width="25" height="19">
<path d="M243.002 140.499C243.002 140.499 250.982 118.374 267.303 132.882C267.303 133.245 261.862 154.644 243.002 140.499Z" fill="white"/>
</mask>
<g mask="url(#mask2_611_58)">
<path d="M248.442 135.783C247.717 140.86 250.618 145.575 254.608 146.301C258.597 147.026 262.587 143.037 263.312 137.959C264.038 132.881 261.136 128.166 257.147 127.441C253.157 126.716 249.167 130.705 248.442 135.783Z" fill="#242424"/>
</g>
<path d="M267.664 132.885C265.125 129.258 260.41 126.719 255.695 127.807C249.53 128.895 244.815 133.61 242.276 139.413C241.913 140.138 242.276 140.501 243.001 140.864C243.726 141.226 244.089 140.864 244.452 140.138C246.265 135.061 250.618 130.346 256.058 129.62C260.048 128.532 264.4 130.346 266.576 133.61C266.576 133.973 266.939 133.973 267.301 133.61C268.027 133.61 268.027 133.247 267.664 132.885Z" fill="#242424"/>
<path d="M240.825 105.319C240.825 105.319 238.648 113.298 247.353 114.386C253.881 115.474 257.871 115.837 261.498 117.651C263.674 118.739 265.85 117.651 266.938 115.474C268.026 113.661 267.664 111.485 266.938 109.671C264.762 106.407 260.41 100.967 252.793 99.5161C242.638 98.0653 240.825 105.319 240.825 105.319Z" fill="#242424"/>
<path d="M217.251 104.955C217.251 104.955 220.153 112.934 208.184 114.748C199.117 116.199 188.236 120.188 183.158 122.364C180.257 123.452 176.992 122.727 175.179 120.551C173.728 118.737 173.728 116.561 175.179 114.748C178.081 111.121 189.324 102.054 200.205 100.24C214.35 97.7014 217.251 104.955 217.251 104.955Z" fill="#242424"/>
<path d="M243 180.758C243 180.758 225.591 187.649 215.073 178.582" stroke="black" stroke-width="0.4432" stroke-miterlimit="10" stroke-linecap="round" stroke-linejoin="round"/>
<path d="M159.944 163.712C159.944 163.712 183.882 78.4793 144.711 77.7539L124.401 120.551L137.095 155.37L159.944 163.712Z" fill="#1C1C1C"/>
<path d="M124.038 155.371C121.862 166.252 129.479 178.221 141.448 181.848C153.416 185.474 165.023 179.671 167.561 168.428C170.1 157.185 162.121 145.578 150.152 141.951C138.183 138.325 126.215 144.128 124.038 155.371Z" fill="#DE9961"/>
<path d="M135.646 156.097C135.646 156.097 148.703 152.833 155.594 166.615" stroke="black" stroke-width="0.5596" stroke-miterlimit="10" stroke-linecap="round" stroke-linejoin="round"/>
<path d="M147.614 82.1068C147.614 82.1068 272.742 112.573 287.25 66.8738C301.758 21.1747 219.427 9.56861 194.038 39.672L173.002 54.905L147.614 82.1068Z" fill="#1C1C1C"/>
<path d="M199.117 39.6715C199.117 39.6715 167.926 21.1743 143.988 40.7596C118.962 61.433 143.625 92.6244 143.625 92.6244L188.962 67.5987L199.117 39.6715Z" fill="#1C1C1C"/>
</g>
<rect y="147" width="393" height="159" fill="url(#paint0_linear_611_58)"/>
<defs>
<linearGradient id="paint0_linear_611_58" x1="196.5" y1="147" x2="196.5" y2="306" gradientUnits="userSpaceOnUse">
<stop stop-opacity="0"/>
<stop offset="1" stop-opacity="0.44"/>
</linearGradient>
</defs>
</svg>
