<svg width="393" height="306" viewBox="0 0 393 306" fill="none" xmlns="http://www.w3.org/2000/svg">
<rect width="393" height="306" fill="#FFAFAA"/>
<mask id="mask0_611_115" style="mask-type:alpha" maskUnits="userSpaceOnUse" x="0" y="0" width="393" height="306">
<rect width="393" height="306" fill="#D9D9D9"/>
</mask>
<g mask="url(#mask0_611_115)">
<path d="M45.0005 351.502C60.7797 285.13 99.0005 279.451 99.0005 279.451L117.936 351.502H45.0005Z" fill="#FF0F00"/>
<path d="M91.9885 351.501C87.0794 326.656 84.9755 306.78 86.0274 292.937C86.3781 286.904 90.5859 281.58 96.5469 280.16L193.677 254.25L296.417 279.805C302.729 281.58 307.638 287.613 307.287 294.357C306.586 314.943 305.183 334.109 303.079 351.501H91.9885Z" fill="#FF0F00"/>
<path d="M243.82 266.673L194.028 254.25L136.872 269.512C136.872 269.512 145.288 296.842 185.262 295.777C224.885 294.357 243.82 266.673 243.82 266.673Z" fill="#AF6F3B"/>
<path d="M278.883 351.501L296.416 280.16C296.416 280.16 338.494 283.709 369 351.501H278.883Z" fill="#FF0F00"/>
<path d="M276.779 99.1465C276.779 99.1465 275.727 142.448 292.558 154.515C329.026 179.715 326.571 209.53 313.597 238.279L94.0907 239.699C94.0907 239.699 63.9349 179.715 101.454 154.515C116.883 144.223 117.234 148.127 118.636 106.245L276.779 99.1465Z" fill="#242424"/>
<path d="M229.442 50.5212C229.442 50.5212 268.715 -28.983 305.182 11.4789C342.351 53.3606 247.676 62.9437 247.676 62.9437L229.442 50.5212Z" fill="#242424"/>
<path d="M108.467 128.961C106.013 139.254 113.376 150.966 124.597 154.515C135.818 158.065 147.039 152.741 149.143 142.448C151.597 132.155 144.234 120.442 133.013 116.893C121.792 112.989 110.922 118.668 108.467 128.961Z" fill="#965726"/>
<path d="M118.285 97.0151C117.584 139.252 148.792 174.035 194.026 174.745C239.259 175.455 276.077 141.736 276.779 99.1447C277.129 56.9081 241.013 21.7701 196.129 21.4152C150.896 20.7053 118.987 54.7785 118.285 97.0151Z" fill="#242424"/>
<path d="M208.053 160.193L219.273 267.382L164.572 273.771L169.481 171.906L208.053 160.193Z" fill="#AF6F3B"/>
<path d="M165.973 244.312L213.311 181.135L169.129 179.715L165.973 244.312Z" fill="#965726"/>
<path d="M205.598 44.1335C192.273 40.2293 178.247 39.1645 164.922 41.649C146.689 45.1983 123.195 55.8462 120.039 88.1448C114.78 142.094 121.091 182.911 148.442 195.688C169.13 205.981 184.559 202.432 208.754 189.3C217.871 184.331 230.494 165.519 232.948 155.226L242.065 128.607C242.416 128.607 268.715 62.2349 205.598 44.1335Z" fill="#AF6F3B"/>
<path d="M152.298 149.191L145.986 143.867L153.35 133.219" stroke="black" stroke-width="0.4585" stroke-miterlimit="10" stroke-linecap="round" stroke-linejoin="round"/>
<path d="M168.778 124.345C168.778 124.345 177.194 102.695 205.947 119.376C206.298 119.376 191.57 138.897 168.778 124.345Z" fill="white"/>
<mask id="mask1_611_115" style="mask-type:luminance" maskUnits="userSpaceOnUse" x="168" y="113" width="38" height="17">
<path d="M168.778 124.345C168.778 124.345 177.194 102.695 205.947 119.376C206.298 119.376 191.57 138.897 168.778 124.345Z" fill="white"/>
</mask>
<g mask="url(#mask1_611_115)">
<path d="M175.793 119.374C175.092 125.053 178.949 130.377 184.559 131.086C190.17 131.796 195.079 127.892 196.131 121.858C196.832 116.179 192.975 110.855 187.364 110.146C181.754 109.436 176.494 113.34 175.793 119.374Z" fill="#242424"/>
</g>
<path d="M206.648 118.667C201.038 113.698 193.674 111.568 186.311 111.568C182.804 111.568 178.947 111.923 175.441 114.053C171.934 115.828 169.479 119.022 168.428 123.281C168.428 123.991 168.778 124.701 169.479 125.056C170.181 125.056 170.882 124.701 171.233 123.991C171.934 121.151 174.038 117.957 176.843 116.537C179.648 114.763 183.155 114.053 186.661 114.053C193.674 114.053 200.687 115.828 206.298 120.442C206.648 120.797 206.999 120.797 207.35 120.442C206.999 119.377 206.999 119.022 206.648 118.667Z" fill="#242424"/>
<path d="M144.586 123.636C144.586 123.636 136.17 101.631 120.04 116.538C120.04 116.538 129.157 137.834 144.586 123.636Z" fill="white"/>
<mask id="mask2_611_115" style="mask-type:luminance" maskUnits="userSpaceOnUse" x="120" y="111" width="25" height="18">
<path d="M144.586 123.636C144.586 123.636 136.17 101.631 120.04 116.538C120.04 116.538 129.157 137.834 144.586 123.636Z" fill="white"/>
</mask>
<g mask="url(#mask2_611_115)">
<path d="M138.625 118.313C139.326 123.282 136.871 127.896 133.014 128.606C129.157 129.316 125.3 125.766 124.599 120.442C123.897 115.473 126.352 110.859 130.209 110.149C134.066 109.795 137.573 113.344 138.625 118.313Z" fill="#242424"/>
</g>
<path d="M120.741 116.893C123.195 113.344 127.403 111.569 131.26 112.634C136.871 113.699 141.078 118.313 142.832 123.282C143.182 123.992 143.533 123.992 144.234 123.992C144.936 123.637 144.936 123.282 144.936 122.572C142.481 116.893 137.572 111.924 131.26 111.214C126.351 110.149 121.793 112.634 119.338 116.538C119.338 116.893 119.338 117.248 119.338 117.248C120.039 117.248 120.39 117.248 120.741 116.893Z" fill="#242424"/>
<path d="M144.233 161.259C144.233 161.259 146.687 169.777 156.155 169.422C169.48 168.712 174.389 158.064 174.389 158.064L144.233 161.259Z" fill="#E7A794"/>
<path d="M173.336 158.064C173.336 158.064 146.336 153.45 144.933 160.904C144.583 160.904 163.518 163.743 173.336 158.064Z" fill="#E7A794"/>
<path d="M142.831 160.194C142.831 160.194 157.208 167.293 175.441 157" stroke="black" stroke-width="0.4585" stroke-miterlimit="10" stroke-linecap="round" stroke-linejoin="round"/>
<path d="M142.481 90.2704C142.481 90.2704 144.585 98.4338 136.169 99.8535C129.507 100.918 125.65 101.628 121.793 103.403C119.689 104.468 117.234 103.403 116.182 101.273C115.13 99.4985 115.13 97.014 116.182 95.2394C118.286 91.6901 122.494 86.0112 130.559 84.5915C140.728 82.8169 142.481 90.2704 142.481 90.2704Z" fill="#242424"/>
<path d="M166.675 86.7222C166.675 86.7222 163.87 94.8856 175.792 96.6603C184.908 98.08 196.129 101.984 201.389 104.114C204.194 105.179 207.701 104.469 209.454 101.984C210.857 100.21 210.857 97.725 209.454 95.9504C206.298 92.4011 195.077 83.1729 183.857 81.3983C169.129 79.2687 166.675 86.7222 166.675 86.7222Z" fill="#242424"/>
<path d="M249.43 120.797C249.43 120.797 170.183 94.1774 169.131 38.0985C169.131 38.0985 207.702 18.2225 236.456 50.876C265.209 83.5295 249.43 120.797 249.43 120.797Z" fill="#242424"/>
<path d="M229.441 98.082V150.612L253.285 111.569L229.441 98.082Z" fill="#242424"/>
<path d="M264.154 137.48C266.609 147.773 259.245 159.486 248.025 163.035C236.804 166.585 225.583 161.261 223.479 150.968C221.025 140.675 228.388 128.962 239.609 125.413C250.83 121.863 261.7 127.187 264.154 137.48Z" fill="#AF6F3B"/>
<path d="M253.285 138.544C253.285 138.544 241.012 135.704 234.701 148.837" stroke="black" stroke-width="0.545" stroke-miterlimit="10" stroke-linecap="round" stroke-linejoin="round"/>
<path d="M183.155 43.4217C183.155 43.4217 138.623 42.3569 120.039 88.4978C120.039 88.4978 117.584 53.7147 153.35 40.5823L187.363 35.6133L183.155 43.4217Z" fill="#242424"/>
</g>
</svg>
