<svg width="50" height="50" viewBox="0 0 50 50" fill="none" xmlns="http://www.w3.org/2000/svg">
<rect x="1" y="1" width="48" height="48" rx="7" stroke="black" stroke-width="2"/>
<path d="M25.9999 37C24.1332 37 22.5457 36.4958 21.2374 35.4875C19.9291 34.4792 18.9916 33.2667 18.4249 31.85L15.8499 25.375C15.5332 24.575 15.4416 23.9792 15.5749 23.5875C15.7082 23.1958 16.0082 23 16.4749 23C17.0916 23 17.5749 23.1792 17.9249 23.5375C18.2749 23.8958 18.5582 24.35 18.7749 24.9L19.8749 27.725C19.8916 27.775 20.0249 27.8667 20.2749 28H20.6249V16.3C20.6249 15.95 20.7541 15.6458 21.0124 15.3875C21.2707 15.1292 21.5749 15 21.9249 15C22.2749 15 22.5749 15.1292 22.8249 15.3875C23.0749 15.6458 23.1999 15.95 23.1999 16.3V24.5C23.1999 24.6333 23.2499 24.75 23.3499 24.85C23.4499 24.95 23.5666 25 23.6999 25C23.8332 25 23.9499 24.95 24.0499 24.85C24.1499 24.75 24.1999 24.6333 24.1999 24.5V14.3C24.1999 13.95 24.3291 13.6458 24.5874 13.3875C24.8457 13.1292 25.1499 13 25.4999 13C25.8499 13 26.1541 13.1292 26.4124 13.3875C26.6707 13.6458 26.7999 13.95 26.7999 14.3V24.5C26.7999 24.6333 26.8499 24.75 26.9499 24.85C27.0499 24.95 27.1666 25 27.2999 25C27.4332 25 27.5499 24.95 27.6499 24.85C27.7499 24.75 27.7999 24.6333 27.7999 24.5V15.8C27.7999 15.45 27.9291 15.1458 28.1874 14.8875C28.4457 14.6292 28.7499 14.5 29.0999 14.5C29.4499 14.5 29.7541 14.6292 30.0124 14.8875C30.2707 15.1458 30.3999 15.45 30.3999 15.8V24.5C30.3999 24.6333 30.4499 24.75 30.5499 24.85C30.6499 24.95 30.7666 25 30.8999 25C31.0332 25 31.1499 24.95 31.2499 24.85C31.3499 24.75 31.3999 24.6333 31.3999 24.5V18.8C31.3999 18.45 31.5291 18.1458 31.7874 17.8875C32.0457 17.6292 32.3499 17.5 32.6999 17.5C33.0499 17.5 33.354 17.6292 33.6124 17.8875C33.8707 18.1458 33.9999 18.45 33.9999 18.8V29.25C33.9999 31.5333 33.2374 33.3958 31.7124 34.8375C30.1874 36.2792 28.2832 37 25.9999 37Z" fill="black"/>
</svg>
