<svg width="17" height="16" viewBox="0 0 17 16" fill="none" xmlns="http://www.w3.org/2000/svg">
<path d="M8.94995 0.526561L15.8 7.40156C15.9 7.50156 15.9708 7.5974 16.0125 7.68906C16.0541 7.78073 16.075 7.8849 16.075 8.00156C16.075 8.11823 16.0541 8.2224 16.0125 8.31406C15.9708 8.40573 15.9 8.50156 15.8 8.60156L8.92495 15.5016C8.75829 15.6516 8.56245 15.7266 8.33745 15.7266C8.11245 15.7266 7.91662 15.6432 7.74995 15.4766C7.56662 15.2932 7.47495 15.0891 7.47495 14.8641C7.47495 14.6391 7.56662 14.4432 7.74995 14.2766L13.15 8.85156L1.12495 8.85156C0.874952 8.85156 0.670787 8.77239 0.512453 8.61406C0.354119 8.45573 0.274952 8.25156 0.274952 8.00156C0.274952 7.75156 0.354119 7.5474 0.512453 7.38906C0.670787 7.23073 0.874952 7.15156 1.12495 7.15156L13.15 7.15156L7.72495 1.70156C7.55829 1.55156 7.47495 1.36406 7.47495 1.13906C7.47495 0.914062 7.56662 0.709894 7.74995 0.526561C7.91662 0.359894 8.11245 0.276561 8.33745 0.276561C8.56245 0.276561 8.76662 0.359894 8.94995 0.526561Z" fill="white"/>
</svg>
