<svg width="16" height="16" viewBox="0 0 16 16" fill="none" xmlns="http://www.w3.org/2000/svg">
<path d="M14.1125 15.4923L11.271 12.6548C10.7749 13.0635 10.1976 13.384 9.53895 13.6164C8.88029 13.8487 8.17628 13.9649 7.42693 13.9649C5.58903 13.9649 4.03285 13.3272 2.75838 12.0519C1.48391 10.7765 0.84668 9.2319 0.84668 7.41802C0.84668 5.60412 1.48436 4.05949 2.75973 2.78414C4.0351 1.50878 5.5825 0.871094 7.40193 0.871094C9.22138 0.871094 10.766 1.50878 12.0358 2.78414C13.3056 4.05949 13.9405 5.60495 13.9405 7.42052C13.9405 8.14903 13.8272 8.84086 13.6005 9.49599C13.3738 10.1511 13.0449 10.7538 12.6137 11.3041L15.4989 14.1579C15.6826 14.338 15.7741 14.5564 15.7734 14.8129C15.7727 15.0695 15.6734 15.2954 15.4753 15.4908C15.2899 15.6782 15.0611 15.7718 14.7889 15.7718C14.5167 15.7718 14.2912 15.6786 14.1125 15.4923ZM7.41168 12.0711C8.7023 12.0711 9.79745 11.6174 10.6972 10.7101C11.5968 9.80283 12.0467 8.70545 12.0467 7.41802C12.0467 6.13057 11.5966 5.03319 10.6966 4.12589C9.79647 3.21858 8.70151 2.76492 7.41168 2.76492C6.1126 2.76492 5.0093 3.21858 4.10178 4.12589C3.19428 5.03319 2.74053 6.13057 2.74053 7.41802C2.74053 8.70545 3.19409 9.80283 4.1012 10.7101C5.00832 11.6174 6.11181 12.0711 7.41168 12.0711Z" fill="white"/>
</svg>
