<svg width="121" height="33" viewBox="0 0 121 33" fill="none" xmlns="http://www.w3.org/2000/svg">
<path d="M26.3332 10.8083L9.02577 0.814699C7.83612 0.126985 6.44674 -0.132317 5.08912 0.0799997C3.7315 0.292316 2.48763 0.963429 1.56475 1.98152C2.39695 2.72091 3.06238 3.62884 3.51688 4.64505C3.97139 5.66126 4.20458 6.76251 4.20098 7.87572C4.19946 9.30776 3.80751 10.7123 3.0673 11.9382C2.32709 13.1641 1.26663 14.1649 1.47497e-05 14.8331V26.0101C-0.002327 27.0673 0.274213 28.1064 0.801732 29.0225C1.32925 29.9387 2.08908 30.6995 3.00456 31.2281C3.92003 31.7568 4.95876 32.0347 6.01592 32.0337C7.07309 32.0327 8.11129 31.7529 9.02577 31.2225L26.3332 21.2289C27.2494 20.7021 28.0104 19.943 28.5396 19.0282C29.0688 18.1135 29.3475 17.0754 29.3475 16.0186C29.3475 14.9618 29.0688 13.9237 28.5396 13.0089C28.0104 12.0942 27.2494 11.3351 26.3332 10.8083Z" fill="#F54E02"/>
<path d="M40.6211 21.4104C40.0991 21.4168 39.5789 21.347 39.0771 21.2031C38.6574 21.0811 38.2554 20.9048 37.8812 20.6788C37.5709 20.4933 37.2824 20.2737 37.0211 20.0239C36.8235 19.8398 36.6508 19.6308 36.5072 19.4021C36.3584 19.2268 36.247 19.023 36.1797 18.8032C36.1359 18.6307 36.1558 18.4482 36.2357 18.2892C36.3497 18.0818 36.5057 17.9004 36.6937 17.7566C36.8593 17.5852 37.0788 17.4761 37.3154 17.4478C37.5169 17.4436 37.7141 17.5054 37.8771 17.6239C38.0796 17.7714 38.2591 17.9481 38.4097 18.1483C38.6683 18.5134 39.0157 18.8065 39.419 19.0001C39.7705 19.1631 40.1528 19.2493 40.5403 19.2529C40.9732 19.2582 41.4038 19.1881 41.8128 19.0457C42.1442 18.9348 42.4365 18.7304 42.6542 18.4571C42.8631 18.1624 42.9681 17.8066 42.9526 17.4457C42.9634 17.1413 42.8565 16.8444 42.6542 16.6167C42.424 16.3767 42.1476 16.1857 41.8418 16.055C41.4732 15.8903 41.0954 15.747 40.7102 15.626C40.2957 15.4934 39.8812 15.3545 39.4667 15.2115C39.154 15.1042 38.8475 14.9796 38.5486 14.8385C38.2588 14.6961 37.9815 14.5297 37.7196 14.3411C37.4599 14.156 37.23 13.9323 37.0377 13.6779C36.8372 13.4107 36.685 13.1105 36.588 12.7908C36.4771 12.4142 36.424 12.0228 36.4305 11.6302C36.4185 10.9627 36.6007 10.3061 36.9548 9.74012C37.3121 9.18382 37.8134 8.73475 38.4056 8.44066C39.0703 8.11135 39.8048 7.9478 40.5465 7.96398C41.0089 7.95855 41.4706 8.00512 41.9226 8.10284C42.2803 8.18252 42.6279 8.3021 42.9589 8.45931C43.212 8.57857 43.4528 8.72225 43.678 8.88832C43.8271 8.99687 43.9659 9.11898 44.0925 9.25308C44.391 9.54116 44.5568 9.78364 44.5879 9.9826C44.6189 10.1816 44.5029 10.4448 44.2417 10.7681C43.9806 11.0914 43.7278 11.2696 43.4853 11.3007C43.1822 11.3124 42.8859 11.2088 42.6563 11.0106C42.4827 10.8225 42.2864 10.6568 42.0718 10.5173C41.8636 10.3864 41.6364 10.2885 41.3983 10.2272C41.1131 10.1602 40.8207 10.1289 40.5278 10.1339C40.2843 10.1334 40.0421 10.1683 39.8087 10.2375C39.5948 10.2975 39.3948 10.3989 39.2201 10.536C39.0529 10.6686 38.9186 10.838 38.8277 11.0311C38.7368 11.2241 38.6916 11.4355 38.6957 11.6489C38.6828 11.935 38.7783 12.2155 38.9631 12.4344C39.1676 12.6561 39.4199 12.8283 39.7009 12.938C40.0432 13.0794 40.3934 13.2012 40.7496 13.3028C41.1351 13.4147 41.5288 13.5349 41.9268 13.6592C42.3413 13.7971 42.7475 13.9591 43.1433 14.1442C43.5315 14.3238 43.8906 14.5607 44.2086 14.8468C44.5292 15.1388 44.7842 15.4955 44.9568 15.8934C45.1555 16.3732 45.2515 16.8892 45.2386 17.4084C45.2532 18.0293 45.1189 18.6448 44.8469 19.2032C44.5938 19.6983 44.2248 20.1249 43.7713 20.4467C43.3171 20.7698 42.811 21.0131 42.2749 21.1658C41.7378 21.3243 41.1811 21.4067 40.6211 21.4104Z" fill="black"/>
<path d="M47.8189 21.2426C47.5534 21.2613 47.288 21.2061 47.052 21.083C46.9771 21.0374 46.912 20.9772 46.8608 20.906C46.8095 20.8348 46.773 20.754 46.7536 20.6685C46.7152 20.4838 46.6964 20.2955 46.6977 20.1068V8.95675C46.6955 8.76143 46.7171 8.56658 46.7619 8.37645C46.7827 8.29007 46.8207 8.2088 46.8738 8.13756C46.9269 8.06631 46.9939 8.00657 47.0707 7.96195C47.3089 7.84603 47.5733 7.79458 47.8375 7.81273C48.1002 7.79244 48.3632 7.84706 48.5961 7.97024C48.7445 8.06562 48.8511 8.21376 48.8945 8.38474C48.9412 8.57738 48.9635 8.77513 48.9608 8.97333V13.1805C49.2398 12.8692 49.564 12.6017 49.9225 12.3867C50.3556 12.1317 50.8521 12.0045 51.3546 12.0199C52.0721 12.0079 52.7783 12.199 53.3918 12.5712C53.9957 12.9444 54.4871 13.4745 54.8136 14.1049C55.173 14.8101 55.3524 15.5932 55.3358 16.3846V20.1151C55.3373 20.3004 55.3185 20.4852 55.2799 20.6664C55.2617 20.7497 55.2265 20.8284 55.1766 20.8976C55.1267 20.9668 55.0631 21.0249 54.9897 21.0685C54.7493 21.1864 54.4817 21.2379 54.2146 21.2177C53.9564 21.2348 53.6983 21.1833 53.4664 21.0685C53.3909 21.0252 53.3247 20.9674 53.2717 20.8984C53.2187 20.8294 53.1799 20.7505 53.1576 20.6664C53.1116 20.473 53.09 20.2745 53.0934 20.0757V16.3722C53.1047 15.9767 53.0276 15.5837 52.8675 15.2219C52.7253 14.9124 52.4945 14.6521 52.2043 14.4738C51.8783 14.2843 51.5056 14.1902 51.1287 14.2023C50.5897 14.1861 50.0636 14.369 49.651 14.7162C49.2583 15.05 49.0108 15.5235 48.9608 16.0364V20.1213C48.9617 20.3099 48.9395 20.4978 48.8945 20.6809C48.8539 20.8532 48.7466 21.0023 48.5961 21.0954C48.3546 21.2125 48.0864 21.2633 47.8189 21.2426Z" fill="black"/>
<path d="M58.1048 21.2433C57.8419 21.2633 57.5788 21.2079 57.3462 21.0837C57.1987 20.9891 57.0944 20.8402 57.0561 20.6692C57.0171 20.4782 56.9983 20.2837 57.0001 20.0889V13.146C56.9986 12.9506 57.0209 12.7557 57.0664 12.5657C57.0856 12.4816 57.122 12.4025 57.1734 12.3333C57.2248 12.2641 57.29 12.2063 57.3649 12.1636C57.6019 12.0539 57.8629 12.0062 58.1234 12.0248C58.3763 12.0085 58.6293 12.0533 58.8612 12.1553C59.0006 12.2241 59.1077 12.3446 59.1597 12.4911C59.2007 12.612 59.223 12.7385 59.226 12.8662L59.0768 13.2019C59.1575 13.076 59.2447 12.9542 59.3379 12.8372C59.4694 12.676 59.6205 12.5319 59.7876 12.4082C59.9921 12.2547 60.2194 12.1344 60.4612 12.0517C60.7626 11.9525 61.0787 11.9055 61.3959 11.9129C61.5558 11.9135 61.7154 11.9287 61.8726 11.9584C62.0433 11.9903 62.2115 12.0339 62.3762 12.089C62.5369 12.1388 62.6907 12.2085 62.8342 12.2963C62.9626 12.3738 63.0717 12.4794 63.1534 12.6051C63.2286 12.7255 63.2675 12.8651 63.2653 13.0071C63.277 13.3669 63.1724 13.7209 62.9669 14.0164C62.8916 14.1387 62.7874 14.2405 62.6634 14.3128C62.5394 14.3851 62.3994 14.4257 62.256 14.4309C62.1154 14.439 61.9745 14.4193 61.8415 14.3729C61.7677 14.3416 61.6981 14.3012 61.6342 14.2527C61.5593 14.2 61.4768 14.1588 61.3897 14.1304C61.2285 14.0861 61.0614 14.0673 60.8944 14.0745C60.7007 14.0756 60.5084 14.107 60.3244 14.1677C60.132 14.2303 59.9518 14.3256 59.7918 14.4496C59.6286 14.575 59.4943 14.734 59.398 14.9159C59.2949 15.1185 59.2437 15.3435 59.2488 15.5708V20.122C59.2507 20.3135 59.232 20.5046 59.1928 20.692C59.1737 20.776 59.1372 20.8552 59.0859 20.9244C59.0345 20.9936 58.9693 21.0514 58.8944 21.094C58.6486 21.2115 58.3765 21.2629 58.1048 21.2433Z" fill="black"/>
<path d="M72.4277 21.2064C72.1414 21.23 71.8554 21.157 71.6153 20.9992C71.5318 20.9311 71.4642 20.8455 71.4173 20.7485C71.3704 20.6514 71.3453 20.5453 71.3438 20.4375L71.4744 19.8158C71.332 20.0275 71.1619 20.2191 70.9687 20.3857C70.6948 20.6289 70.3824 20.825 70.0444 20.966C69.6019 21.1459 69.127 21.232 68.6496 21.2189C68.0767 21.222 67.5103 21.0974 66.9916 20.8541C66.4723 20.6101 66.0056 20.2673 65.6175 19.8448C65.2175 19.4141 64.9006 18.9131 64.6828 18.3671C64.4562 17.799 64.3429 17.1922 64.3491 16.5806C64.3453 15.9877 64.4602 15.4 64.6869 14.8521C65.1308 13.7771 65.9569 12.9044 67.0061 12.4024C67.5192 12.158 68.0812 12.0333 68.6496 12.0377C69.0863 12.028 69.521 12.0982 69.9324 12.2449C70.26 12.3665 70.5658 12.5401 70.8381 12.7589C71.072 12.9464 71.2809 13.163 71.4599 13.4035L71.3666 12.8625C71.3541 12.747 71.3697 12.6302 71.4119 12.522C71.4541 12.4138 71.5217 12.3173 71.6091 12.2408C71.8504 12.1108 72.1183 12.0382 72.3922 12.0285C72.6661 12.0188 72.9385 12.0723 73.1884 12.1848C73.2641 12.2345 73.3289 12.299 73.3787 12.3746C73.4286 12.4501 73.4626 12.5351 73.4785 12.6242C73.5175 12.8291 73.5362 13.0374 73.5345 13.246V20.0645C73.5363 20.2593 73.5175 20.4539 73.4785 20.6448C73.4619 20.7304 73.4275 20.8115 73.3775 20.8829C73.3275 20.9543 73.2631 21.0144 73.1884 21.0593C72.9528 21.1764 72.6899 21.2272 72.4277 21.2064ZM68.9874 19.0365C69.3869 19.0396 69.7792 18.9296 70.119 18.7194C70.4621 18.5064 70.7425 18.206 70.9314 17.849C71.1334 17.4726 71.2368 17.0512 71.2319 16.6241C71.2393 16.1898 71.1329 15.761 70.9231 15.3806C70.7265 15.0265 70.4407 14.73 70.0941 14.5205C69.7516 14.3092 69.3566 14.1986 68.9542 14.2014C68.5298 14.1936 68.1114 14.3018 67.7439 14.5144C67.3765 14.7269 67.0741 15.0358 66.8693 15.4076C66.6608 15.7885 66.5544 16.2169 66.5605 16.6511C66.554 17.0713 66.6609 17.4856 66.8699 17.8503C67.0788 18.215 67.3822 18.5166 67.748 18.7236C68.1261 18.9359 68.5538 19.0439 68.9874 19.0365Z" fill="black"/>
<path d="M79.3271 21.2238C78.7712 21.225 78.222 21.1033 77.7188 20.8673C77.2091 20.6328 76.749 20.3028 76.3634 19.8953C75.9633 19.4635 75.6495 18.9591 75.439 18.4093C75.211 17.8285 75.0963 17.2094 75.1012 16.5855C75.0981 15.3895 75.5492 14.2368 76.3634 13.3607C76.7476 12.9489 77.2079 12.6153 77.7188 12.3783C78.2222 12.1425 78.7712 12.0201 79.3271 12.0198C79.8896 12.0088 80.4469 12.1302 80.954 12.3742C81.4246 12.6071 81.8368 12.9429 82.1602 13.3565C82.4996 13.7897 82.7567 14.2814 82.9187 14.8073C83.0965 15.3853 83.1845 15.9871 83.1798 16.5917C83.1966 17.1964 83.1146 17.7998 82.9374 18.3782C82.775 18.909 82.518 19.4061 82.1788 19.8455C81.8463 20.2835 81.4141 20.6358 80.9181 20.8734C80.4222 21.1109 79.8767 21.2267 79.3271 21.2113V21.2238ZM79.6462 19.0352C80.0507 19.0398 80.4487 18.933 80.7965 18.7264C81.142 18.52 81.4277 18.2272 81.6255 17.8767C81.8363 17.4967 81.9429 17.0677 81.9343 16.6332C81.9412 16.1999 81.8378 15.7719 81.6338 15.3897C81.4416 15.0345 81.1546 14.7396 80.8048 14.5379C80.4476 14.3302 80.0407 14.2234 79.6276 14.2291C79.2218 14.225 78.8225 14.3307 78.4719 14.535C78.1213 14.7393 77.8324 15.0346 77.6359 15.3897C77.4261 15.7701 77.3197 16.1988 77.3271 16.6332C77.3185 17.0677 77.425 17.4967 77.6359 17.8767C77.8341 18.231 78.125 18.5247 78.4773 18.7264C78.8323 18.9321 79.236 19.0387 79.6462 19.0352ZM83.1073 21.2238C82.8363 21.2426 82.5658 21.1806 82.3301 21.0455C82.2418 20.9774 82.1689 20.8914 82.116 20.7932C82.0632 20.695 82.0316 20.5868 82.0234 20.4756V8.97527C82.0216 8.78087 82.0369 8.5867 82.069 8.39496C82.0843 8.31127 82.1162 8.23148 82.1629 8.1603C82.2095 8.08911 82.2699 8.02797 82.3405 7.98046C82.5692 7.85612 82.8292 7.80137 83.0887 7.82295C83.3497 7.80355 83.611 7.85511 83.8451 7.97217C83.9203 8.01773 83.9857 8.07786 84.0373 8.14905C84.0889 8.22024 84.1257 8.30103 84.1456 8.38668C84.1904 8.5768 84.212 8.77166 84.2099 8.96698V20.0818C84.2122 20.2771 84.1907 20.472 84.1456 20.6621C84.1059 20.8325 84.0019 20.9809 83.8555 21.0766C83.6244 21.1936 83.3655 21.2445 83.1073 21.2238Z" fill="black"/>
<path d="M90.0793 21.2256C89.5241 21.2271 88.9755 21.1054 88.4731 20.8692C87.9625 20.6352 87.5016 20.3052 87.1156 19.8971C86.7164 19.4678 86.4027 18.9663 86.1912 18.4195C85.9632 17.8387 85.8485 17.2196 85.8534 16.5957C85.8503 15.3996 86.3014 14.247 87.1156 13.3708C87.5002 12.9585 87.9612 12.6249 88.4731 12.3885C88.975 12.1496 89.5234 12.0243 90.0793 12.0216C90.6418 12.0107 91.1991 12.1321 91.7062 12.376C92.1768 12.609 92.589 12.9447 92.9124 13.3584C93.2526 13.791 93.5098 14.2829 93.6709 14.8092C93.8486 15.3871 93.9367 15.9889 93.932 16.5936C93.9487 17.1983 93.8668 17.8017 93.6896 18.3801C93.5282 18.9113 93.2711 19.4086 92.931 19.8474C92.5985 20.2854 92.1663 20.6377 91.6703 20.8752C91.1744 21.1127 90.6289 21.2286 90.0793 21.2132V21.2256ZM90.3984 19.0371C90.8029 19.0417 91.2009 18.9348 91.5487 18.7283C91.8942 18.5219 92.1799 18.229 92.3777 17.8785C92.5885 17.4985 92.6951 17.0695 92.6865 16.635C92.6934 16.2017 92.59 15.7738 92.386 15.3915C92.1938 15.0364 91.9068 14.7415 91.5569 14.5397C91.1998 14.332 90.7929 14.2253 90.3798 14.2309C89.974 14.2269 89.5747 14.3326 89.2241 14.5369C88.8735 14.7412 88.5846 15.0365 88.3881 15.3915C88.1783 15.7719 88.0719 16.2007 88.0793 16.635C88.0707 17.0695 88.1772 17.4985 88.3881 17.8785C88.5869 18.2324 88.8776 18.526 89.2295 18.7283C89.5845 18.9339 89.9882 19.0406 90.3984 19.0371ZM93.8574 21.2256C93.5871 21.2448 93.3171 21.1827 93.0823 21.0474C92.9934 20.9796 92.92 20.8938 92.8667 20.7956C92.8135 20.6973 92.7817 20.5889 92.7735 20.4775V8.97713C92.7717 8.78274 92.787 8.58856 92.8191 8.39683C92.8344 8.31313 92.8664 8.23334 92.913 8.16216C92.9596 8.09098 93.02 8.02984 93.0906 7.98233C93.3194 7.85822 93.5794 7.80348 93.8388 7.82482C94.0998 7.80542 94.3612 7.85698 94.5952 7.97404C94.6704 8.01959 94.7358 8.07973 94.7874 8.15092C94.839 8.2221 94.8758 8.3029 94.8958 8.38854C94.9405 8.57867 94.9621 8.77352 94.96 8.96884V20.0837C94.9624 20.279 94.9408 20.4739 94.8958 20.664C94.856 20.8343 94.7521 20.9828 94.6056 21.0785C94.3745 21.1954 94.1156 21.2464 93.8574 21.2256Z" fill="black"/>
<path d="M97.8967 21.2425C97.6312 21.2615 97.3657 21.2063 97.1298 21.0829C97.0549 21.0374 96.9898 20.9772 96.9386 20.906C96.8873 20.8348 96.8508 20.754 96.8314 20.6684C96.7962 20.482 96.7809 20.2923 96.7858 20.1027V8.95673C96.7837 8.76142 96.8053 8.56656 96.8501 8.37643C96.8708 8.29005 96.9089 8.20878 96.962 8.13754C97.0151 8.06629 97.082 8.00655 97.1589 7.96193C97.3969 7.84573 97.6614 7.79427 97.9257 7.81271C98.1877 7.79247 98.45 7.8471 98.6822 7.97022C98.831 8.06552 98.9384 8.21359 98.9827 8.38472C99.0286 8.57746 99.0502 8.7752 99.0469 8.97331V13.1805C99.3271 12.8697 99.6519 12.6022 100.011 12.3867C100.443 12.1321 100.939 12.0056 101.441 12.022C102.159 12.0097 102.866 12.2008 103.48 12.5733C104.083 12.9465 104.574 13.4766 104.9 14.1069C105.261 14.8115 105.441 15.595 105.424 16.3867V20.1172C105.425 20.3024 105.407 20.4873 105.368 20.6684C105.35 20.7518 105.315 20.8305 105.265 20.8997C105.215 20.9688 105.151 21.027 105.078 21.0705C104.837 21.1884 104.57 21.24 104.303 21.2197C104.045 21.2371 103.786 21.1856 103.555 21.0705C103.479 21.0273 103.413 20.9695 103.36 20.9005C103.307 20.8314 103.268 20.7526 103.246 20.6684C103.199 20.4751 103.177 20.2767 103.179 20.0778V16.3721C103.19 15.977 103.114 15.5843 102.956 15.2219C102.813 14.9124 102.583 14.6521 102.292 14.4737C101.966 14.2848 101.594 14.1907 101.217 14.2022C100.678 14.186 100.152 14.369 99.7391 14.7162C99.3459 15.0498 99.0976 15.5232 99.0469 16.0364V20.1213C99.0485 20.3098 99.0269 20.4977 98.9827 20.6809C98.9412 20.8533 98.8331 21.0023 98.6822 21.0954C98.4384 21.2144 98.167 21.2653 97.8967 21.2425Z" fill="black"/>
<path d="M114.746 21.2054C114.459 21.2291 114.173 21.1561 113.932 20.9982C113.849 20.9297 113.781 20.844 113.735 20.7471C113.688 20.6501 113.662 20.5442 113.66 20.4365L113.791 19.8148C113.649 20.026 113.479 20.2176 113.287 20.3847C113.012 20.6278 112.699 20.8239 112.361 20.965C111.919 21.1451 111.445 21.2312 110.968 21.2178C110.395 21.2209 109.829 21.0963 109.31 20.8531C108.791 20.6081 108.325 20.2654 107.936 19.8438C107.537 19.4125 107.22 18.9116 107.001 18.3661C106.776 17.7977 106.662 17.1911 106.668 16.5796C106.664 15.9869 106.778 15.3994 107.003 14.8511C107.449 13.7771 108.275 12.905 109.323 12.4014C109.836 12.1567 110.399 12.032 110.968 12.0367C111.404 12.0269 111.838 12.0971 112.249 12.2439C112.578 12.367 112.885 12.5419 113.159 12.762C113.393 12.9494 113.602 13.166 113.78 13.4066L113.687 12.8657C113.675 12.7502 113.69 12.6334 113.732 12.5251C113.775 12.4169 113.842 12.3205 113.93 12.2439C114.179 12.0829 114.475 12.0099 114.771 12.0367C115.028 12.0173 115.285 12.072 115.511 12.1942C115.586 12.2441 115.651 12.3087 115.701 12.3842C115.751 12.4597 115.785 12.5445 115.801 12.6335C115.84 12.8385 115.859 13.0467 115.857 13.2553V20.0635C115.859 20.2583 115.84 20.4528 115.801 20.6438C115.784 20.729 115.749 20.8097 115.699 20.881C115.649 20.9523 115.585 21.0126 115.511 21.0583C115.274 21.1761 115.01 21.227 114.746 21.2054ZM111.304 19.0355C111.703 19.0391 112.096 18.9291 112.435 18.7184C112.779 18.5056 113.06 18.2052 113.25 17.848C113.451 17.4715 113.554 17.0501 113.548 16.6231C113.556 16.1888 113.449 15.76 113.24 15.3796C113.043 15.0258 112.757 14.7294 112.411 14.5195C112.067 14.3082 111.672 14.1976 111.269 14.2004C110.844 14.1933 110.426 14.3018 110.059 14.5143C109.692 14.7268 109.389 15.0352 109.184 15.4065C108.975 15.7875 108.869 16.2158 108.875 16.6501C108.87 17.0701 108.977 17.4838 109.186 17.8483C109.395 18.2127 109.697 18.5146 110.062 18.7226C110.441 18.9348 110.87 19.0428 111.304 19.0355Z" fill="black"/>
<path d="M118.727 21.2442C118.254 21.2442 117.923 21.1537 117.737 20.9727C117.55 20.7917 117.457 20.4704 117.457 20.009C117.445 19.7513 117.486 19.4939 117.577 19.2525C117.659 19.0772 117.802 18.9379 117.979 18.8608C118.223 18.7634 118.484 18.7189 118.746 18.7302C119.209 18.7302 119.533 18.8235 119.718 19.01C119.907 19.1965 120 19.5281 120 20.0007C120.01 20.2557 119.968 20.5101 119.878 20.7488C119.842 20.8373 119.789 20.9177 119.722 20.9853C119.654 21.053 119.574 21.1064 119.486 21.1426C119.242 21.2237 118.984 21.2581 118.727 21.2442Z" fill="black"/>
<path d="M17.5583 13.0577C14.6009 8.57697 19.9956 7.04746 20.5178 4.31175C20.5286 4.26091 20.5555 4.21491 20.5946 4.18067C20.6337 4.14642 20.6829 4.12576 20.7347 4.1218C20.7865 4.11783 20.8382 4.13076 20.8821 4.15865C20.9259 4.18655 20.9596 4.2279 20.9779 4.27652C22.6774 8.49821 18.0308 7.85573 17.9998 12.9126C18.0012 12.9648 17.9857 13.0161 17.9557 13.0587C17.9257 13.1014 17.8827 13.1333 17.8331 13.1496C17.7835 13.1659 17.73 13.1658 17.6805 13.1492C17.631 13.1326 17.5881 13.1006 17.5583 13.0577Z" fill="black"/>
<path d="M18.779 12.6057C18.638 10.0938 21.1209 9.25861 21.668 7.40787C21.6965 7.33065 21.7473 7.26366 21.814 7.21541C21.8806 7.16717 21.9602 7.13986 22.0424 7.13697C22.1246 7.13408 22.2059 7.15574 22.2758 7.19919C22.3457 7.24263 22.401 7.3059 22.4349 7.38093C23.6079 10.4462 22.524 12.1974 21.1105 13.1839C20.5779 13.5632 18.9137 14.444 18.779 12.6057Z" fill="white"/>
<path d="M18.0659 17.0922C17.6405 17.089 17.2156 17.0613 16.7934 17.0093C16.3499 16.9533 15.9002 16.8787 15.4546 16.7854C15.009 16.6922 14.5966 16.5492 14.1841 16.4186L14.0411 16.373C14.1137 16.3067 14.1862 16.2362 14.2484 16.1658C14.5904 15.8258 14.8928 15.4483 15.1499 15.0404C15.432 14.606 15.6524 14.1345 15.8048 13.6394C15.9849 13.0839 16.0744 12.5031 16.0701 11.9192C16.0726 11.286 15.9479 10.6587 15.7033 10.0747C15.4657 9.48737 15.1134 8.95331 14.667 8.50372C14.2107 8.02908 13.6629 7.65188 13.0567 7.39493C12.4001 7.12185 11.6953 6.9837 10.9842 6.98872C10.2764 6.97986 9.57337 7.1043 8.91168 7.35556C8.32615 7.57924 7.78561 7.90637 7.31585 8.32134C6.87765 8.71268 6.52003 9.18576 6.26302 9.71406C6.00918 10.2395 5.8774 10.8155 5.87753 11.399C5.85754 12.2564 6.05505 13.1049 6.45161 13.8653L6.46405 13.886C6.88412 14.5704 7.43992 15.1614 8.09718 15.6228L8.2091 15.7015C7.77387 15.8777 7.34486 16.0311 6.92415 16.1658C6.09514 16.431 5.13972 16.6818 4.10969 16.9119L3.31592 17.0797L5.10656 20.3957L5.57287 20.2818C6.60913 20.0268 7.64538 19.7367 8.66505 19.4196C9.46226 19.165 10.2378 18.8468 10.9842 18.4683C11.3133 18.6787 11.6552 18.8684 12.008 19.0362H12.0266C12.4826 19.2434 12.9261 19.4155 13.3427 19.575L13.3758 19.5854C13.608 19.66 13.8339 19.7284 14.0515 19.7926L6.2941 23.6475L8.80598 26.8081L18.6877 21.088V17.0922H18.0659ZM11.1396 14L10.4889 13.4715C10.1716 13.2217 9.89231 12.9271 9.65985 12.5969C9.48088 12.2697 9.39352 11.9002 9.407 11.5275C9.40208 11.3433 9.44568 11.161 9.53343 10.999V10.9845C9.61769 10.8196 9.73476 10.6736 9.87746 10.5555C10.0203 10.4348 10.1849 10.3426 10.3624 10.284H10.3894C10.5752 10.2148 10.7714 10.1777 10.9697 10.1742C11.1712 10.165 11.3721 10.2027 11.5566 10.2843C11.7411 10.3659 11.9041 10.4893 12.0329 10.6446C12.3237 10.9826 12.4722 11.4201 12.4474 11.8653C12.4475 12.1834 12.3847 12.4984 12.2628 12.7922C12.1408 13.086 11.9619 13.3528 11.7365 13.5772C11.109 14.2043 10.3759 14.7157 9.57073 15.0881L11.1396 14Z" fill="white"/>
<path d="M20.3666 28.1872L17.2578 27.151V13.6797C17.8796 14.5087 19.1231 15.1304 20.3666 14.3014V28.1872Z" fill="black"/>
</svg>
