<svg width="134" height="36" viewBox="0 0 134 36" fill="none" xmlns="http://www.w3.org/2000/svg">
<path d="M29.4051 12.0604L10.0787 0.901013C8.75024 0.133074 7.19878 -0.156476 5.68279 0.0806081C4.1668 0.317692 2.77782 1.06709 1.74729 2.20395C2.67656 3.0296 3.41962 4.04343 3.92714 5.17819C4.43467 6.31294 4.69506 7.54265 4.69104 8.78572C4.68935 10.3848 4.25167 11.9532 3.42511 13.3221C2.59855 14.691 1.41438 15.8086 1.64703e-05 16.5547V29.0356C-0.00259845 30.2161 0.306202 31.3763 0.895257 32.3994C1.48431 33.4224 2.33278 34.2719 3.35505 34.8623C4.37732 35.4526 5.53722 35.7629 6.7177 35.7618C7.89819 35.7607 9.0575 35.4482 10.0787 34.8559L29.4051 23.6966C30.4281 23.1083 31.2779 22.2607 31.8689 21.2392C32.4598 20.2178 32.771 19.0586 32.771 17.8785C32.771 16.6984 32.4598 15.5392 31.8689 14.5177C31.2779 13.4963 30.4281 12.6487 29.4051 12.0604Z" fill="black"/>
<path d="M19.6066 14.5709C16.3042 9.56746 22.3282 7.85953 22.9114 4.8047C22.9234 4.74792 22.9535 4.69656 22.9972 4.65832C23.0408 4.62008 23.0957 4.59701 23.1535 4.59258C23.2114 4.58815 23.2692 4.60259 23.3181 4.63374C23.3671 4.66489 23.4047 4.71107 23.4252 4.76536C25.3229 9.47952 20.1343 8.7621 20.0996 14.4089C20.1011 14.4672 20.0839 14.5244 20.0504 14.5721C20.0168 14.6197 19.9688 14.6553 19.9134 14.6735C19.8581 14.6917 19.7983 14.6916 19.743 14.6731C19.6877 14.6546 19.6399 14.6188 19.6066 14.5709Z" fill="white"/>
<path d="M20.9693 14.0659C20.812 11.2611 23.5845 10.3284 24.1954 8.26176C24.2272 8.17554 24.2839 8.10073 24.3584 8.04686C24.4328 7.99299 24.5216 7.9625 24.6135 7.95927C24.7053 7.95604 24.796 7.98023 24.8741 8.02874C24.9521 8.07725 25.0139 8.1479 25.0517 8.23168C26.3616 11.6545 25.1512 13.61 23.5729 14.7116C22.9781 15.1351 21.1198 16.1187 20.9693 14.0659Z" fill="white"/>
<path d="M17.2627 13.2956C17.2676 13.873 17.1793 14.4473 17.0012 14.9966C16.8506 15.4938 16.6309 15.9675 16.3486 16.4037C16.083 16.8176 15.7726 17.201 15.4229 17.5469C15.0905 17.8857 14.7297 18.1954 14.3444 18.4726C14.7533 18.684 15.18 18.8591 15.6196 18.9956C16.0979 19.1499 16.5877 19.2911 17.0892 19.4192C17.6145 19.5302 18.1375 19.6159 18.6606 19.6807C19.1595 19.7445 19.6618 19.7777 20.1648 19.7802V23.1336L10.0052 29.0234L8.10055 26.6374L17.5891 21.9278V21.7982C17.2859 21.7543 16.9133 21.6895 16.4782 21.6015C16.0431 21.5136 15.6173 21.3701 15.1382 21.2104C14.6592 21.0507 14.2125 20.8378 13.6988 20.6203C13.2083 20.3881 12.7384 20.1148 12.294 19.8033C11.3878 20.3004 10.4342 20.7059 9.44746 21.0137C8.33661 21.3608 7.20339 21.6763 6.0478 21.9602L4.74023 19.5418C5.91588 19.2795 6.98353 18.9964 7.94318 18.6925C8.94719 18.3676 9.92767 17.974 10.8777 17.5145C11.9017 17.0553 12.8328 16.4121 13.6247 15.6168C14.2528 14.9814 14.6053 14.1242 14.606 13.2308C14.6303 12.5592 14.3959 11.9039 13.951 11.4002C13.7439 11.1573 13.4852 10.9637 13.1937 10.8336C12.9022 10.7034 12.5854 10.6401 12.2662 10.6481C11.965 10.6508 11.6665 10.7064 11.3845 10.8124C11.0972 10.8995 10.8304 11.0435 10.6 11.2359C10.3697 11.4273 10.1807 11.6635 10.0445 11.9302C9.88386 12.2201 9.80394 12.5477 9.81311 12.879C9.79784 13.428 9.9331 13.9706 10.2042 14.4481C10.5053 14.8811 10.8696 15.2664 11.285 15.5914L9.45209 16.8665C8.79424 16.408 8.23803 15.8187 7.81821 15.1354C7.4303 14.3904 7.23761 13.5591 7.25816 12.7194C7.25701 12.1759 7.37968 11.6393 7.61687 11.1503C7.86288 10.641 8.20741 10.1856 8.63052 9.81032C9.0916 9.40139 9.6233 9.07986 10.1996 8.86147C10.8587 8.60764 11.56 8.48121 12.2662 8.48887C12.9732 8.47821 13.6749 8.61209 14.3282 8.8823C14.9192 9.13126 15.4531 9.49824 15.8973 9.96075C16.3283 10.4018 16.6674 10.9242 16.8948 11.4974C17.1371 12.066 17.2623 12.6776 17.2627 13.2956Z" fill="white"/>
<path fill-rule="evenodd" clip-rule="evenodd" d="M14.0455 9.5578C13.4849 9.32634 12.883 9.21166 12.2766 9.2208L12.2671 9.22095L12.2576 9.22084C11.644 9.21418 11.0347 9.32403 10.462 9.54457L10.4602 9.54527L10.4584 9.54597C9.96521 9.73285 9.51022 10.008 9.11567 10.3579M14.0455 9.5578C14.5437 9.76806 14.9939 10.0777 15.3685 10.4677L15.3707 10.47L15.3729 10.4723C15.7361 10.844 16.0218 11.2841 16.2134 11.7672L16.2169 11.7758L16.2205 11.7844C16.4242 12.2623 16.5294 12.7764 16.5298 13.2959L16.5298 13.2987L16.5298 13.3016C16.534 13.8002 16.4578 14.2962 16.304 14.7706L16.3018 14.7773L16.2998 14.7841C16.169 15.2158 15.9782 15.627 15.7332 16.0056L15.7316 16.0081C15.4951 16.3767 15.2187 16.7181 14.9073 17.0261L14.9033 17.03L14.8995 17.0339C14.5964 17.3429 14.2674 17.6253 13.9161 17.878L12.9476 18.5749L14.0074 19.1228C14.4533 19.3534 14.9186 19.5443 15.3978 19.6935C15.8897 19.8521 16.3929 19.997 16.9073 20.1284L16.9221 20.1322L16.937 20.1353C17.4836 20.2509 18.0267 20.3398 18.5683 20.4069C18.8553 20.4436 19.1433 20.4707 19.4319 20.4883V22.7115L10.1831 28.0732L9.23823 26.8896L18.3206 22.3816V21.1643L17.6934 21.0734C17.4062 21.0317 17.0472 20.9694 16.6226 20.8836C16.2431 20.8069 15.8654 20.681 15.381 20.5195L15.3691 20.5156C15.0517 20.4098 14.7613 20.2831 14.4185 20.1335C14.2875 20.0764 14.1488 20.0159 13.9979 19.9519C13.5497 19.7388 13.12 19.4885 12.7136 19.2036L12.3406 18.942L11.9411 19.1611C11.0776 19.6348 10.169 20.0212 9.22871 20.3145L9.22834 20.3146C8.30834 20.6021 7.37245 20.8677 6.42066 21.1114L5.83948 20.0365C6.67002 19.8332 7.44488 19.6179 8.16355 19.3903L8.16574 19.3896L8.16792 19.3889C9.20054 19.0547 10.209 18.6502 11.1863 18.1781C12.2882 17.6824 13.2902 16.9895 14.1428 16.1333L14.1447 16.1314C14.9052 15.3621 15.3333 14.3253 15.3374 13.244C15.365 12.3916 15.0668 11.5606 14.5033 10.9201C14.2262 10.5965 13.8806 10.3384 13.4915 10.1647C13.1022 9.99096 12.6792 9.90592 12.2531 9.91575C11.8759 9.91978 11.5023 9.98838 11.1484 10.1185C10.776 10.2347 10.4301 10.4231 10.1306 10.6731C9.82743 10.9253 9.57811 11.2357 9.39734 11.586C9.18052 11.9817 9.07112 12.4272 9.07996 12.8782C9.06473 13.554 9.2329 14.2214 9.56676 14.8094L9.58327 14.8385L9.60237 14.866C9.75989 15.0925 9.9326 15.3075 10.1192 15.5097L9.47335 15.959C9.07581 15.6193 8.73214 15.2199 8.4551 14.7742C8.13229 14.1448 7.97213 13.4445 7.98944 12.7371L7.98968 12.7273L7.98966 12.7176C7.98874 12.2853 8.08631 11.8586 8.27496 11.4696L8.27547 11.4686C8.47938 11.0465 8.76496 10.669 9.11567 10.3579M12.264 7.7564C13.0675 7.74557 13.8648 7.89835 14.6074 8.20545L14.6096 8.20637L14.6118 8.20731C15.2936 8.49456 15.9098 8.91777 16.4225 9.45109C16.9181 9.95887 17.3085 10.5596 17.5713 11.2186C17.8495 11.8745 17.9933 12.5795 17.9942 13.292C17.9994 13.9448 17.8998 14.5942 17.6992 15.2155C17.5289 15.7753 17.2812 16.3087 16.9634 16.8C16.6699 17.2573 16.3271 17.681 15.941 18.0634C15.8741 18.1316 15.8061 18.1986 15.737 18.2646C15.77 18.2754 15.8031 18.2859 15.8362 18.2962L15.8399 18.2974L15.8437 18.2986C16.3024 18.4466 16.7728 18.5823 17.2548 18.7057C17.7534 18.8107 18.2509 18.892 18.7499 18.9538L18.7527 18.9542C19.222 19.0142 19.6946 19.0454 20.1677 19.0478L20.8963 19.0514V23.5552L9.82586 29.9731L6.96144 26.3847L15.5591 22.1174C15.3581 22.0556 15.1588 21.9892 14.9601 21.9229C14.942 21.9169 14.924 21.9108 14.906 21.9048C14.5214 21.7766 14.1436 21.6118 13.7794 21.4529C13.6555 21.3988 13.5331 21.3454 13.4126 21.2943L13.3985 21.2884L13.3848 21.2819C12.9937 21.0968 12.6147 20.8874 12.2501 20.6549C11.4205 21.0808 10.5555 21.4346 9.66477 21.7125C8.53928 22.0642 7.3916 22.3837 6.22176 22.6711L5.67215 22.8061L3.63477 19.0379L4.58008 18.827C5.73796 18.5686 6.78391 18.2911 7.71925 17.9949C8.17972 17.8458 8.63508 17.6818 9.08461 17.5032L9.03266 17.467C8.29222 16.9509 7.66617 16.2876 7.19364 15.5186L7.18003 15.4964L7.16803 15.4734C6.72443 14.6213 6.50334 13.6711 6.52522 12.7108C6.52532 12.0597 6.67296 11.417 6.95709 10.831C7.24519 10.2349 7.64857 9.70168 8.14394 9.26232C8.67104 8.79483 9.27882 8.42716 9.93754 8.17727C10.6796 7.89175 11.4689 7.74896 12.264 7.7564ZM11.2445 16.5108C11.9256 16.1298 12.5517 15.6555 13.1042 15.1009C13.5963 14.6026 13.8725 13.9305 13.873 13.2301L13.873 13.2171L13.8735 13.2041C13.891 12.72 13.7221 12.2478 13.4015 11.8847L13.3972 11.8799L13.3931 11.875C13.2567 11.7151 13.0864 11.5876 12.8945 11.502C12.7026 11.4163 12.494 11.3746 12.2839 11.3799L12.278 11.38L12.2721 11.3801C12.0566 11.382 11.8431 11.4218 11.6414 11.4976L11.619 11.506L11.5961 11.5129C11.4029 11.5715 11.2235 11.6683 11.0686 11.7977L11.0673 11.7988C10.9133 11.9268 10.787 12.0847 10.6959 12.263L10.6903 12.2741L10.6842 12.285C10.5871 12.4602 10.5388 12.6583 10.5443 12.8586L10.5449 12.8789L10.5443 12.8992C10.5331 13.3037 10.6299 13.7037 10.8245 14.0581C11.0799 14.4195 11.3868 14.7417 11.7354 15.0144L12.5168 15.6257L11.2445 16.5108Z" fill="white"/>
<path d="M22.7429 31.4655L19.2715 30.3084V15.2656C19.9658 16.1913 21.3543 16.8856 22.7429 15.9599V31.4655Z" fill="white"/>
<path d="M45.3599 23.899C44.7769 23.9061 44.1961 23.8282 43.6357 23.6676C43.1667 23.5323 42.7177 23.3354 42.3004 23.0821C41.9539 22.875 41.6318 22.6297 41.34 22.3508C41.1193 22.1452 40.9264 21.9118 40.766 21.6565C40.5999 21.4607 40.4755 21.2331 40.4004 20.9877C40.3515 20.7951 40.3737 20.5913 40.4629 20.4137C40.5902 20.1821 40.7644 19.9796 40.9743 19.8189C41.1592 19.6276 41.4044 19.5058 41.6686 19.4741C41.8935 19.4694 42.1138 19.5385 42.2958 19.6708C42.5219 19.8355 42.7224 20.0328 42.8905 20.2563C43.1793 20.664 43.5672 20.9914 44.0176 21.2075C44.4103 21.3888 44.8371 21.4843 45.2696 21.4875C45.7523 21.4977 46.233 21.4241 46.6906 21.27C47.0611 21.1471 47.3876 20.9187 47.6301 20.6127C47.8634 20.2836 47.9806 19.8864 47.9634 19.4834C47.9754 19.1435 47.856 18.812 47.6301 18.5577C47.373 18.2897 47.0645 18.0764 46.723 17.9305C46.3114 17.7465 45.8895 17.5866 45.4594 17.4515C44.9965 17.3033 44.5337 17.1483 44.0708 16.9886C43.7218 16.8639 43.3796 16.721 43.0456 16.5605C42.7216 16.4024 42.4118 16.2165 42.1199 16.005C41.8294 15.799 41.5725 15.5491 41.3585 15.2645C41.1346 14.9661 40.9646 14.6309 40.8563 14.274C40.7324 13.8533 40.6731 13.4164 40.6804 12.978C40.667 12.2326 40.8704 11.4993 41.2659 10.8674C41.6649 10.2462 42.2247 9.74471 42.8859 9.41632C43.6282 9.04859 44.4484 8.86597 45.2765 8.88403C45.793 8.87796 46.3084 8.92997 46.8132 9.03909C47.2123 9.12911 47.6003 9.26259 47.9703 9.43714C48.253 9.57031 48.5219 9.73076 48.7734 9.9162C48.9399 10.0374 49.0948 10.1738 49.2363 10.3235C49.5695 10.6452 49.7546 10.916 49.7894 11.1381C49.8241 11.3603 49.6945 11.6542 49.4029 12.0152C49.1113 12.3763 48.8289 12.5753 48.5582 12.61C48.2197 12.6231 47.8889 12.5073 47.6325 12.286C47.4381 12.0766 47.2189 11.8916 46.9798 11.7352C46.7473 11.5891 46.4936 11.4798 46.2277 11.4112C45.9093 11.3364 45.5828 11.3015 45.2557 11.3071C44.9838 11.3066 44.7133 11.3455 44.4527 11.4228C44.2139 11.4897 43.9905 11.603 43.7954 11.756C43.6088 11.9042 43.4588 12.0934 43.3573 12.3089C43.2557 12.5245 43.2053 12.7606 43.2099 12.9988C43.1955 13.3183 43.3021 13.6315 43.5084 13.8759C43.7368 14.1235 44.0185 14.3158 44.3323 14.4383C44.7146 14.5962 45.1056 14.7322 45.5033 14.8456C45.9338 14.9706 46.3735 15.1048 46.8178 15.2436C47.2808 15.3977 47.7344 15.5785 48.1763 15.7852C48.6098 15.9858 49.0108 16.2502 49.3658 16.5697C49.7239 16.8958 50.0086 17.2941 50.2013 17.7384C50.4228 18.2743 50.53 18.8505 50.516 19.4302C50.5323 20.1235 50.3824 20.8108 50.0786 21.4343C49.796 21.9872 49.3839 22.4636 48.8775 22.8229C48.3704 23.1837 47.8053 23.4553 47.2066 23.6259C46.6069 23.8029 45.9852 23.8949 45.3599 23.899Z" fill="black"/>
<path d="M53.3967 23.712C53.1003 23.733 52.8039 23.6713 52.5404 23.5338C52.4567 23.4829 52.3841 23.4157 52.3268 23.3362C52.2696 23.2567 52.2289 23.1665 52.2072 23.071C52.1643 22.8647 52.1433 22.6545 52.1447 22.4438V9.99304C52.1423 9.77493 52.1664 9.55734 52.2164 9.34504C52.2396 9.24858 52.2821 9.15783 52.3414 9.07828C52.4007 8.99872 52.4755 8.93201 52.5613 8.88219C52.8272 8.75274 53.1225 8.69529 53.4175 8.71556C53.7108 8.6929 54.0045 8.75389 54.2646 8.89144C54.4298 8.99846 54.5487 9.16367 54.5978 9.3543C54.65 9.5694 54.6749 9.79022 54.6719 10.0115V14.7095C54.9834 14.3619 55.3454 14.0631 55.7457 13.8231C56.2294 13.5383 56.7838 13.3963 57.3448 13.4135C58.146 13.4001 58.9347 13.6135 59.6198 14.0291C60.2941 14.4459 60.8428 15.0378 61.2074 15.7417C61.6084 16.5293 61.8087 17.4037 61.7906 18.2874V22.4531C61.7921 22.6599 61.7711 22.8663 61.7281 23.0686C61.7078 23.1617 61.6685 23.2496 61.6128 23.3268C61.557 23.4041 61.486 23.469 61.4041 23.5176C61.1356 23.6493 60.8367 23.7068 60.5385 23.6842C60.2502 23.7033 59.962 23.6459 59.7031 23.5176C59.6187 23.4694 59.5448 23.4048 59.4856 23.3277C59.4264 23.2507 59.3831 23.1626 59.3583 23.0686C59.307 22.8526 59.2829 22.6311 59.2865 22.4091V18.2735C59.2992 17.8319 59.213 17.3931 59.0343 16.9891C58.8755 16.6435 58.6177 16.3527 58.2937 16.1536C57.9296 15.942 57.5135 15.837 57.0926 15.8504C56.4907 15.8323 55.9033 16.0367 55.4425 16.4244C55.004 16.7971 54.7277 17.3258 54.6719 17.8986V22.46C54.6729 22.6705 54.648 22.8804 54.5978 23.0848C54.5756 23.1802 54.5347 23.2702 54.4775 23.3496C54.4203 23.4291 54.3479 23.4964 54.2646 23.5477C53.995 23.6785 53.6954 23.7352 53.3967 23.712Z" fill="black"/>
<path d="M64.8821 23.7126C64.5885 23.735 64.2947 23.6732 64.0351 23.5344C63.8703 23.4288 63.7539 23.2625 63.7111 23.0716C63.6675 22.8584 63.6466 22.6412 63.6486 22.4236V14.6708C63.6469 14.4526 63.6718 14.235 63.7226 14.0228C63.744 13.9289 63.7847 13.8406 63.8421 13.7633C63.8994 13.686 63.9722 13.6215 64.0559 13.5738C64.3206 13.4513 64.612 13.398 64.9029 13.4188C65.1853 13.4006 65.4678 13.4506 65.7268 13.5646C65.8825 13.6414 66.002 13.7759 66.06 13.9395C66.1058 14.0745 66.1308 14.2158 66.1341 14.3584L65.9675 14.7333C66.0577 14.5926 66.155 14.4567 66.2591 14.326C66.4059 14.146 66.5746 13.9851 66.7613 13.8469C66.9895 13.6756 67.2434 13.5412 67.5134 13.4489C67.8499 13.3381 68.2029 13.2856 68.5571 13.2938C68.7357 13.2945 68.9139 13.3115 69.0894 13.3447C69.28 13.3802 69.4679 13.429 69.6518 13.4905C69.8312 13.5462 70.003 13.6239 70.1632 13.7219C70.3065 13.8085 70.4284 13.9264 70.5196 14.0668C70.6036 14.2013 70.647 14.3572 70.6446 14.5157C70.6577 14.9175 70.5408 15.3127 70.3114 15.6428C70.2273 15.7793 70.1109 15.8929 69.9724 15.9737C69.834 16.0544 69.6777 16.0997 69.5176 16.1056C69.3607 16.1139 69.2037 16.0927 69.0547 16.0431C68.9726 16.0066 68.895 15.9608 68.8233 15.9066C68.7396 15.8477 68.6475 15.8017 68.5502 15.7701C68.3702 15.7206 68.1836 15.6995 67.9971 15.7076C67.7808 15.7088 67.5661 15.744 67.3607 15.8117C67.1457 15.8816 66.9445 15.988 66.7659 16.1265C66.5837 16.2665 66.4337 16.4441 66.3262 16.6472C66.2111 16.8734 66.1538 17.1247 66.1596 17.3785V22.4606C66.1618 22.6744 66.1409 22.8878 66.0971 23.097C66.0757 23.1909 66.035 23.2793 65.9776 23.3566C65.9203 23.4338 65.8475 23.4984 65.7638 23.546C65.4894 23.6772 65.1855 23.7346 64.8821 23.7126Z" fill="black"/>
<path d="M80.8768 23.6698C80.557 23.6961 80.2377 23.6146 79.9696 23.4384C79.8763 23.3623 79.8008 23.2667 79.7484 23.1584C79.6961 23.05 79.6681 22.9315 79.6664 22.8112L79.8122 22.1169C79.6532 22.3533 79.4633 22.5673 79.2475 22.7533C78.9416 23.0249 78.5928 23.2438 78.2154 23.4013C77.7213 23.6022 77.191 23.6983 76.6579 23.6837C76.0181 23.6872 75.3856 23.548 74.8064 23.2764C74.2266 23.0039 73.7055 22.6211 73.2721 22.1493C72.8254 21.6683 72.4715 21.1089 72.2283 20.4992C71.9753 19.8649 71.8487 19.1872 71.8557 18.5043C71.8515 17.8423 71.9798 17.186 72.233 16.5742C72.7286 15.3738 73.6511 14.3993 74.8226 13.8388C75.3956 13.5658 76.0232 13.4265 76.6579 13.4315C77.1455 13.4206 77.631 13.499 78.0904 13.6629C78.4561 13.7987 78.7976 13.9925 79.1017 14.2368C79.3628 14.4462 79.5961 14.6881 79.796 14.9566L79.6919 14.3525C79.6779 14.2236 79.6953 14.0932 79.7424 13.9723C79.7895 13.8515 79.8651 13.7437 79.9626 13.6583C80.232 13.5131 80.5313 13.432 80.8371 13.4212C81.1429 13.4103 81.4471 13.4701 81.7261 13.5958C81.8105 13.6514 81.8827 13.7236 81.9384 13.8079C81.9941 13.8922 82.0321 13.987 82.0501 14.0864C82.0936 14.3152 82.1146 14.5478 82.1126 14.7807V22.3946C82.1146 22.6122 82.0937 22.8294 82.0501 23.0426C82.0316 23.1382 81.9931 23.2288 81.9373 23.3085C81.8815 23.3882 81.8095 23.4553 81.7261 23.5055C81.4631 23.6362 81.1695 23.693 80.8768 23.6698ZM77.0351 21.2467C77.4812 21.2501 77.9192 21.1274 78.2987 20.8927C78.6818 20.6548 78.9949 20.3193 79.2059 19.9207C79.4315 19.5004 79.5469 19.0299 79.5414 18.5529C79.5497 18.0679 79.4308 17.5892 79.1966 17.1644C78.9771 16.769 78.658 16.4379 78.2709 16.204C77.8885 15.968 77.4474 15.8445 76.998 15.8476C76.5241 15.8389 76.0569 15.9597 75.6466 16.1971C75.2363 16.4344 74.8986 16.7793 74.6699 17.1945C74.4371 17.6198 74.3183 18.0982 74.3251 18.583C74.3179 19.0523 74.4372 19.5149 74.6706 19.9221C74.9039 20.3293 75.2426 20.6662 75.6511 20.8973C76.0733 21.1344 76.5509 21.255 77.0351 21.2467Z" fill="black"/>
<path d="M88.5803 23.6918C87.9596 23.6932 87.3464 23.5573 86.7844 23.2938C86.2153 23.0319 85.7015 22.6635 85.2709 22.2084C84.8241 21.7262 84.4738 21.163 84.2387 20.5491C83.9841 19.9005 83.856 19.2092 83.8615 18.5125C83.858 17.1769 84.3617 15.8899 85.2709 14.9115C85.7 14.4517 86.2139 14.0792 86.7844 13.8145C87.3465 13.5512 87.9596 13.4146 88.5803 13.4142C89.2085 13.402 89.8308 13.5375 90.397 13.8099C90.9225 14.0701 91.3828 14.4449 91.7439 14.9069C92.1229 15.3905 92.41 15.9396 92.5909 16.5269C92.7894 17.1723 92.8877 17.8443 92.8825 18.5195C92.9012 19.1947 92.8097 19.8685 92.6117 20.5144C92.4305 21.1071 92.1435 21.6622 91.7647 22.1529C91.3934 22.6419 90.9108 23.0353 90.357 23.3006C89.8032 23.5658 89.1941 23.6952 88.5803 23.678V23.6918ZM88.9367 21.248C89.3885 21.2542 89.8332 21.1348 90.2211 20.9032C90.6069 20.6727 90.926 20.3457 91.1468 19.9543C91.3823 19.53 91.5013 19.0509 91.4916 18.5657C91.4994 18.0819 91.3839 17.6041 91.1561 17.1772C90.9415 16.7806 90.621 16.4513 90.2304 16.226C89.8315 15.9941 89.3772 15.8749 88.9159 15.8812C88.4628 15.8767 88.0169 15.9947 87.6253 16.2229C87.2338 16.451 86.9113 16.7807 86.6918 17.1772C86.4576 17.602 86.3387 18.0807 86.347 18.5657C86.3374 19.0509 86.4564 19.53 86.6918 19.9543C86.9132 20.3499 87.238 20.6779 87.6314 20.9032C88.0276 21.1335 88.4785 21.2526 88.9367 21.248ZM92.8015 23.6918C92.4989 23.7129 92.1969 23.6436 91.9337 23.4928C91.8351 23.4167 91.7536 23.3208 91.6946 23.2111C91.6356 23.1014 91.6003 22.9806 91.5912 22.8564V10.0145C91.5893 9.79745 91.6063 9.58063 91.6421 9.36652C91.6592 9.27306 91.6948 9.18397 91.7469 9.10448C91.799 9.025 91.8664 8.95672 91.9452 8.90367C92.2006 8.76483 92.491 8.70369 92.7807 8.72779C93.0721 8.70612 93.364 8.7637 93.6254 8.89441C93.7094 8.94528 93.7823 9.01243 93.84 9.09192C93.8976 9.17142 93.9387 9.26163 93.961 9.35727C94.011 9.56957 94.0351 9.78716 94.0327 10.0053V22.4167C94.0353 22.6348 94.0113 22.8524 93.961 23.0647C93.9165 23.2549 93.8005 23.4207 93.637 23.5275C93.3789 23.6581 93.0898 23.715 92.8015 23.6918Z" fill="black"/>
<path d="M100.588 23.6917C99.9682 23.6934 99.3556 23.5575 98.7945 23.2937C98.2244 23.0324 97.7097 22.6639 97.2787 22.2083C96.8329 21.7289 96.4826 21.1688 96.2465 20.5582C95.9919 19.9097 95.8638 19.2184 95.8693 18.5217C95.8658 17.1861 96.3695 15.899 97.2787 14.9207C97.7082 14.4603 98.223 14.0877 98.7945 13.8237C99.355 13.557 99.9674 13.4171 100.588 13.4141C101.216 13.4019 101.839 13.5374 102.405 13.8098C102.93 14.07 103.391 14.4448 103.752 14.9068C104.132 15.3899 104.419 15.9391 104.599 16.5268C104.797 17.1722 104.896 17.8442 104.89 18.5194C104.909 19.1946 104.818 19.8684 104.62 20.5143C104.439 21.1074 104.152 21.6627 103.773 22.1528C103.401 22.6418 102.919 23.0352 102.365 23.3005C101.811 23.5657 101.202 23.6951 100.588 23.6779V23.6917ZM100.944 21.2479C101.396 21.2541 101.841 21.1347 102.229 20.9031C102.615 20.6726 102.934 20.3456 103.155 19.9542C103.39 19.5299 103.509 19.0508 103.499 18.5656C103.507 18.0818 103.392 17.604 103.164 17.1771C102.949 16.7805 102.629 16.4512 102.238 16.2259C101.839 15.994 101.385 15.8748 100.924 15.8811C100.471 15.8766 100.025 15.9946 99.6332 16.2228C99.2417 16.4509 98.9191 16.7806 98.6997 17.1771C98.4654 17.6019 98.3465 18.0806 98.3548 18.5656C98.3452 19.0508 98.4642 19.5299 98.6997 19.9542C98.9238 20.351 99.2503 20.6804 99.6452 20.908C100.04 21.1356 100.489 21.2529 100.944 21.2479ZM104.807 23.6917C104.505 23.7132 104.204 23.6439 103.941 23.4927C103.842 23.4171 103.76 23.3212 103.701 23.2115C103.641 23.1018 103.606 22.9807 103.597 22.8563V10.0144C103.595 9.79736 103.612 9.58054 103.648 9.36643C103.665 9.27296 103.7 9.18387 103.752 9.10438C103.804 9.0249 103.872 8.95662 103.951 8.90357C104.206 8.76498 104.497 8.70386 104.786 8.72769C105.078 8.70602 105.37 8.7636 105.631 8.89432C105.715 8.94518 105.788 9.01234 105.845 9.09183C105.903 9.17132 105.944 9.26154 105.966 9.35717C106.016 9.56948 106.041 9.78706 106.038 10.0052V22.4166C106.041 22.6347 106.017 22.8523 105.966 23.0646C105.922 23.2548 105.806 23.4206 105.642 23.5274C105.384 23.658 105.095 23.7149 104.807 23.6917Z" fill="black"/>
<path d="M109.318 23.712C109.021 23.7332 108.725 23.6715 108.461 23.5338C108.378 23.4829 108.305 23.4157 108.248 23.3362C108.19 23.2567 108.15 23.1665 108.128 23.0709C108.089 22.8627 108.072 22.651 108.077 22.4391V9.99301C108.075 9.77491 108.099 9.55732 108.149 9.34502C108.172 9.24856 108.215 9.15781 108.274 9.07826C108.333 8.9987 108.408 8.93199 108.494 8.88216C108.76 8.75241 109.055 8.69494 109.35 8.71554C109.643 8.69294 109.936 8.75393 110.195 8.89142C110.361 8.99834 110.48 9.16347 110.53 9.35428C110.582 9.5695 110.606 9.79031 110.602 10.0115V14.7095C110.915 14.3624 111.278 14.0637 111.678 13.8231C112.161 13.5388 112.715 13.3976 113.275 13.4158C114.077 13.4021 114.866 13.6155 115.552 14.0314C116.226 14.4483 116.774 15.0402 117.138 15.744C117.54 16.531 117.742 17.4057 117.723 18.2897V22.4553C117.725 22.6622 117.704 22.8686 117.661 23.0709C117.64 23.164 117.601 23.2519 117.545 23.3291C117.49 23.4064 117.418 23.4713 117.337 23.5199C117.068 23.6516 116.769 23.7091 116.471 23.6865C116.183 23.706 115.894 23.6485 115.636 23.5199C115.551 23.4716 115.477 23.4071 115.418 23.33C115.359 23.253 115.316 23.1649 115.291 23.0709C115.239 22.855 115.214 22.6335 115.217 22.4114V18.2735C115.229 17.8322 115.143 17.3937 114.967 16.989C114.808 16.6435 114.55 16.3527 114.226 16.1536C113.862 15.9426 113.446 15.8376 113.025 15.8504C112.423 15.8323 111.836 16.0367 111.375 16.4244C110.936 16.7969 110.659 17.3255 110.602 17.8986V22.46C110.604 22.6704 110.58 22.8803 110.53 23.0848C110.508 23.1803 110.466 23.2704 110.409 23.3498C110.351 23.4293 110.278 23.4965 110.195 23.5477C109.923 23.6806 109.619 23.7374 109.318 23.712Z" fill="black"/>
<path d="M128.133 23.6701C127.812 23.6966 127.492 23.6151 127.223 23.4387C127.13 23.3623 127.055 23.2666 127.003 23.1583C126.95 23.0501 126.922 22.9318 126.92 22.8116L127.066 22.1173C126.907 22.3532 126.718 22.5671 126.503 22.7537C126.196 23.0252 125.847 23.2441 125.469 23.4017C124.976 23.6028 124.446 23.6989 123.914 23.684C123.274 23.6874 122.641 23.5483 122.062 23.2767C121.483 23.0031 120.962 22.6204 120.528 22.1497C120.082 21.668 119.728 21.1088 119.484 20.4996C119.232 19.865 119.106 19.1875 119.112 18.5047C119.108 17.8429 119.235 17.1869 119.486 16.5746C119.984 15.3753 120.906 14.4015 122.076 13.8391C122.65 13.5659 123.278 13.4266 123.914 13.4318C124.401 13.4209 124.885 13.4994 125.344 13.6632C125.711 13.8007 126.054 13.996 126.36 14.2418C126.621 14.451 126.854 14.6929 127.054 14.9616L126.95 14.3575C126.936 14.2286 126.953 14.0981 127 13.9773C127.048 13.8564 127.123 13.7487 127.221 13.6632C127.499 13.4834 127.83 13.402 128.16 13.4318C128.447 13.4102 128.734 13.4712 128.987 13.6077C129.071 13.6637 129.142 13.736 129.198 13.8203C129.254 13.9045 129.292 13.9991 129.311 14.0983C129.354 14.3272 129.375 14.5597 129.373 14.7926V22.395C129.375 22.6126 129.354 22.8298 129.311 23.043C129.291 23.1382 129.252 23.2285 129.197 23.3081C129.141 23.3877 129.069 23.455 128.987 23.5058C128.722 23.6374 128.427 23.6942 128.133 23.6701ZM124.289 21.2471C124.735 21.2511 125.173 21.1283 125.552 20.893C125.936 20.6554 126.25 20.32 126.462 19.921C126.687 19.5006 126.801 19.03 126.795 18.5533C126.803 18.0683 126.684 17.5895 126.45 17.1647C126.23 16.7696 125.911 16.4386 125.524 16.2043C125.141 15.9683 124.699 15.8448 124.249 15.8479C123.775 15.84 123.308 15.9612 122.898 16.1984C122.488 16.4357 122.15 16.7802 121.921 17.1948C121.688 17.6202 121.569 18.0985 121.576 18.5834C121.57 19.0524 121.69 19.5144 121.924 19.9214C122.157 20.3283 122.495 20.6654 122.902 20.8977C123.325 21.1346 123.804 21.2552 124.289 21.2471Z" fill="black"/>
<path d="M132.577 23.7115C132.048 23.7115 131.679 23.6104 131.471 23.4083C131.263 23.2062 131.158 22.8475 131.158 22.3322C131.145 22.0444 131.191 21.757 131.293 21.4875C131.384 21.2917 131.544 21.1361 131.742 21.0501C132.013 20.9413 132.305 20.8917 132.598 20.9043C133.115 20.9043 133.477 21.0084 133.683 21.2167C133.894 21.425 133.998 21.7953 133.998 22.3229C134.009 22.6077 133.962 22.8918 133.861 23.1584C133.822 23.2571 133.762 23.3469 133.687 23.4224C133.612 23.4979 133.523 23.5577 133.424 23.5981C133.151 23.6886 132.864 23.7271 132.577 23.7115Z" fill="black"/>
</svg>
