<svg width="121" height="32" viewBox="0 0 121 32" fill="none" xmlns="http://www.w3.org/2000/svg">
<path d="M26.165 10.7354L8.96811 0.802023C7.78607 0.118454 6.40556 -0.139285 5.05662 0.071752C3.70767 0.282789 2.47174 0.949855 1.55476 1.96181C2.38164 2.69675 3.04282 3.5992 3.49442 4.60928C3.94602 5.61936 4.17772 6.71397 4.17414 7.82047C4.17264 9.24388 3.78319 10.6399 3.04771 11.8584C2.31222 13.077 1.25854 14.0718 1.46555e-05 14.7359V25.8455C-0.00231214 26.8963 0.272462 27.9292 0.796611 28.8398C1.32076 29.7504 2.07574 30.5066 2.98536 31.0321C3.89499 31.5576 4.92708 31.8338 5.9775 31.8328C7.02791 31.8318 8.05948 31.5537 8.96811 31.0265L26.165 21.0931C27.0753 20.5695 27.8315 19.815 28.3573 18.9058C28.8831 17.9965 29.16 16.9647 29.16 15.9142C29.16 14.8638 28.8831 13.832 28.3573 12.9227C27.8315 12.0135 27.0753 11.259 26.165 10.7354Z" fill="white"/>
<path d="M17.4465 12.9726C14.5079 8.51885 19.8682 6.99857 20.3871 4.27936C20.3978 4.22881 20.4246 4.1831 20.4634 4.14906C20.5023 4.11502 20.5511 4.09449 20.6026 4.09054C20.6541 4.0866 20.7055 4.09945 20.749 4.12718C20.7926 4.1549 20.826 4.19601 20.8443 4.24433C22.5329 8.44057 17.916 7.80197 17.8851 12.8284C17.8865 12.8803 17.8712 12.9312 17.8413 12.9736C17.8115 13.0161 17.7688 13.0477 17.7195 13.0639C17.6702 13.0801 17.617 13.08 17.5679 13.0635C17.5187 13.0471 17.4761 13.0152 17.4465 12.9726Z" fill="black"/>
<path d="M18.6581 12.518C18.518 10.0213 20.985 9.19113 21.5287 7.35155C21.557 7.2748 21.6074 7.2082 21.6737 7.16025C21.7399 7.1123 21.819 7.08516 21.9007 7.08229C21.9824 7.07941 22.0631 7.10094 22.1326 7.14412C22.202 7.18731 22.257 7.25019 22.2906 7.32477C23.4562 10.3715 22.3792 12.1122 20.9747 13.0928C20.4455 13.4698 18.7919 14.3453 18.6581 12.518Z" fill="#F54E02"/>
<path d="M15.3595 11.8378C15.3638 12.3517 15.2852 12.863 15.1268 13.3519C14.9927 13.7945 14.7972 14.2161 14.5461 14.6043C14.3098 14.9728 14.0335 15.3141 13.7224 15.622C13.4266 15.9236 13.1056 16.1993 12.7627 16.446C13.1266 16.6342 13.5063 16.79 13.8974 16.9116C14.323 17.0489 14.7589 17.1746 15.205 17.2885C15.6725 17.3874 16.1379 17.4636 16.6033 17.5213C17.0472 17.5781 17.4942 17.6077 17.9418 17.6099V20.5949L8.90163 25.8376L7.20685 23.7137L15.6498 19.5216V19.4062C15.3801 19.3671 15.0485 19.3094 14.6614 19.2311C14.2742 19.1528 13.8953 19.0251 13.4691 18.883C13.0428 18.7408 12.6454 18.5513 12.1882 18.3577C11.7518 18.151 11.3336 17.9078 10.9382 17.6305C10.1319 18.073 9.28336 18.4339 8.40534 18.7079C7.4169 19.0169 6.40854 19.2977 5.38028 19.5504L4.2168 17.3977C5.2629 17.1643 6.21291 16.9122 7.06682 16.6417C7.9602 16.3525 8.83264 16.0021 9.67797 15.5932C10.5892 15.1844 11.4177 14.6118 12.1223 13.9039C12.6812 13.3384 12.9949 12.5753 12.9954 11.7801C13.0171 11.1823 12.8085 10.599 12.4127 10.1506C12.2284 9.93436 11.9982 9.76203 11.7388 9.6462C11.4794 9.53037 11.1975 9.47396 10.9135 9.48111C10.6455 9.4835 10.3799 9.53301 10.1289 9.62737C9.87331 9.70487 9.63589 9.83308 9.43086 10.0043C9.22597 10.1747 9.05782 10.385 8.93663 10.6224C8.79366 10.8804 8.72254 11.1721 8.73071 11.467C8.71712 11.9556 8.83747 12.4386 9.07872 12.8636C9.34664 13.249 9.67081 13.5921 10.0404 13.8813L8.40946 15.0163C7.8241 14.6082 7.32918 14.0836 6.95562 13.4755C6.61045 12.8122 6.43899 12.0723 6.45728 11.3248C6.45625 10.841 6.56541 10.3634 6.77646 9.92813C6.99537 9.47483 7.30193 9.06943 7.67842 8.73538C8.08869 8.37138 8.56181 8.08518 9.0746 7.89078C9.66108 7.66484 10.2851 7.5523 10.9135 7.55912C11.5426 7.54963 12.167 7.6688 12.7483 7.90932C13.2742 8.13093 13.7493 8.45759 14.1445 8.86928C14.528 9.2619 14.8297 9.72686 15.0321 10.2371C15.2477 10.7432 15.3591 11.2876 15.3595 11.8378Z" fill="#F54E02"/>
<path fill-rule="evenodd" clip-rule="evenodd" d="M12.4787 8.55707C11.987 8.354 11.4591 8.2534 10.9272 8.26142L10.9181 8.26156L10.9089 8.26146C10.37 8.25561 9.83493 8.35211 9.33202 8.54585L9.33025 8.54654L9.32847 8.54721C8.89606 8.71114 8.49709 8.95249 8.1511 9.25945C7.84457 9.53142 7.59496 9.8615 7.41672 10.2306L7.41623 10.2316C7.25206 10.5702 7.16714 10.9417 7.16794 11.3181L7.16796 11.3275L7.16773 11.3369C7.15258 11.9565 7.29262 12.5699 7.57492 13.1213C7.81052 13.5001 8.10085 13.8408 8.43575 14.1328L8.92234 13.7941C8.77101 13.6261 8.63016 13.4485 8.50073 13.2623L8.48228 13.2358L8.46633 13.2077C8.16447 12.6758 8.01234 12.0722 8.0259 11.4611C8.01806 11.0505 8.11764 10.645 8.31484 10.2848C8.47907 9.96658 8.70553 9.68458 8.98083 9.45551C9.25269 9.22855 9.56653 9.0574 9.90439 8.95177C10.2249 8.83406 10.5631 8.772 10.9046 8.7683C11.292 8.75941 11.6765 8.83678 12.0304 8.99481C12.3841 9.15279 12.6983 9.3874 12.9503 9.68164C13.4607 10.2622 13.7308 11.0153 13.7061 11.7877C13.7022 12.7645 13.3155 13.7011 12.6287 14.3961L12.6269 14.3979C11.8636 15.1647 10.9666 15.7853 9.9801 16.2293C9.1084 16.6505 8.20886 17.0115 7.2878 17.3097L7.2857 17.3104L7.28358 17.311C6.6631 17.5076 5.99585 17.6939 5.28228 17.87L5.74429 18.7248C6.57563 18.5111 7.39327 18.2786 8.19723 18.0272L8.19759 18.0271C9.03066 17.7672 9.83573 17.4247 10.6008 17.0049L10.987 16.793L11.3476 17.0459C11.7063 17.2975 12.0855 17.5185 12.4812 17.7067C12.6164 17.7641 12.7403 17.8182 12.857 17.8691C13.1609 18.0018 13.4161 18.1131 13.696 18.2064L13.7042 18.2092C14.1372 18.3536 14.4704 18.4647 14.8047 18.5323C15.1817 18.6085 15.5001 18.6638 15.7545 18.7007L16.3605 18.7886V19.955L8.30983 23.9524L9.07732 24.9142L17.2372 20.182V18.2876C16.9968 18.2718 16.7568 18.2487 16.5177 18.2181C16.0344 18.1582 15.5496 18.0788 15.0616 17.9756L15.0472 17.9726L15.0329 17.9689C14.5742 17.8517 14.1255 17.7224 13.6867 17.5809C13.2572 17.4472 12.8403 17.276 12.4407 17.0693L11.4169 16.5397L12.3524 15.8664C12.6624 15.6433 12.9527 15.394 13.2202 15.1213L13.2239 15.1175L13.2277 15.1137C13.5018 14.8425 13.7452 14.5418 13.9534 14.2171L13.955 14.2147C14.1702 13.882 14.3377 13.5208 14.4526 13.1415L14.4545 13.1349L14.4566 13.1284C14.5916 12.7119 14.6586 12.2763 14.6549 11.8385L14.6549 11.8357L14.6549 11.833C14.6545 11.378 14.5624 10.9278 14.3841 10.5093L14.3806 10.501L14.3773 10.4927C14.2095 10.0696 13.9593 9.68405 13.6413 9.3585L13.6392 9.35631L13.6371 9.3541C13.3091 9.01244 12.9149 8.74125 12.4787 8.55707ZM10.9151 6.84618C11.6374 6.83653 12.3542 6.97397 13.0219 7.25018L13.024 7.25107L13.0262 7.25197C13.6399 7.5106 14.1944 7.89163 14.6559 8.37176C15.1018 8.82886 15.4531 9.36952 15.6896 9.96271C15.9399 10.5532 16.0693 11.1879 16.0701 11.8293C16.0748 12.4161 15.9853 12.9998 15.8051 13.5583C15.652 14.0614 15.4295 14.5407 15.144 14.9823C14.8807 15.3926 14.5732 15.7728 14.227 16.1159C14.1889 16.1547 14.1505 16.193 14.1117 16.231L14.1141 16.2317L14.1177 16.2329C14.5245 16.3641 14.9415 16.4845 15.3689 16.594C15.8104 16.687 16.2512 16.759 16.6933 16.8138L16.6961 16.8141C17.1114 16.8673 17.5296 16.8949 17.9483 16.897L18.6525 16.9005V20.9972L8.732 26.7505L6.10993 23.4645L13.6978 19.697C13.5634 19.6542 13.4301 19.6097 13.2975 19.5655C13.2811 19.56 13.2647 19.5545 13.2483 19.549C12.9034 19.434 12.5638 19.2858 12.2392 19.1441C12.1294 19.0961 12.0213 19.0489 11.9152 19.004L11.9017 18.9983L11.8884 18.992C11.548 18.8308 11.2179 18.6491 10.8999 18.4478C10.1677 18.8217 9.40481 19.133 8.61951 19.378M10.9151 6.84618C10.2008 6.83958 9.49171 6.96793 8.82502 7.22451C8.23253 7.44937 7.6859 7.78018 7.21182 8.2008C6.76551 8.59679 6.40207 9.07734 6.14252 9.61464C5.88612 10.1436 5.75286 10.7238 5.75267 11.3115C5.7331 12.1754 5.93198 13.0303 6.33094 13.7969L6.34254 13.8192L6.35568 13.8406C6.77187 14.5181 7.32063 15.1044 7.96886 15.5642C7.60142 15.708 7.22965 15.8409 6.85405 15.9625C6.02365 16.2255 5.09462 16.4722 4.06569 16.7018L3.15234 16.9057L5.02091 20.3629L5.55219 20.2324C6.59421 19.9763 7.61655 19.6916 8.61915 19.3781M11.4533 10.2871C11.2902 10.2142 11.1129 10.1788 10.9344 10.1833L10.9286 10.1834L10.9229 10.1835C10.7377 10.1851 10.5543 10.2193 10.381 10.2845L10.3594 10.2926L10.3373 10.2993C10.1726 10.3492 10.0196 10.4318 9.88755 10.5422L9.88634 10.5432C9.75517 10.6523 9.64751 10.7869 9.5699 10.9389L9.56445 10.9496L9.55863 10.9601C9.47704 11.1073 9.43644 11.2738 9.4411 11.4421L9.44165 11.4617L9.4411 11.4814C9.43139 11.8305 9.51463 12.1758 9.682 12.4819C9.90578 12.7981 10.1744 13.08 10.4795 13.3188L11.1454 13.8399C11.3106 13.7006 11.47 13.554 11.6229 13.4004C12.0504 12.9673 12.2904 12.3832 12.2908 11.7743L12.2908 11.7618L12.2913 11.7492C12.3064 11.3326 12.161 10.9261 11.8852 10.6137L11.8811 10.609L11.8771 10.6043C11.7612 10.4683 11.6164 10.3599 11.4533 10.2871Z" fill="#F54E02"/>
<path d="M20.2364 28.0119L17.1475 26.9819V13.5918C17.7652 14.4158 19.0008 15.0338 20.2364 14.2098V28.0119Z" fill="black"/>
<path d="M38.8287 21.7119C38.2641 21.7188 37.7014 21.6433 37.1586 21.4877C36.7043 21.3567 36.2693 21.1659 35.8651 20.9206C35.5295 20.72 35.2174 20.4823 34.9347 20.2122C34.721 20.0131 34.5341 19.787 34.3788 19.5396C34.2179 19.35 34.0974 19.1295 34.0246 18.8917C33.9772 18.7052 33.9987 18.5078 34.0851 18.3358C34.2085 18.1114 34.3772 17.9152 34.5805 17.7596C34.7596 17.5743 34.9972 17.4563 35.2531 17.4256C35.471 17.4211 35.6843 17.488 35.8606 17.6162C36.0797 17.7756 36.2739 17.9668 36.4367 18.1833C36.7164 18.5783 37.0922 18.8954 37.5285 19.1047C37.9089 19.2804 38.3223 19.3728 38.7413 19.376C39.2088 19.3858 39.6746 19.3145 40.1178 19.1652C40.4767 19.0462 40.793 18.8249 41.0279 18.5286C41.2538 18.2098 41.3674 17.825 41.3507 17.4346C41.3623 17.1053 41.2467 16.7842 41.0279 16.5379C40.7789 16.2783 40.48 16.0716 40.1491 15.9303C39.7505 15.7521 39.3418 15.5972 38.9251 15.4663C38.4768 15.3228 38.0284 15.1726 37.5801 15.0179C37.242 14.8971 36.9105 14.7587 36.5869 14.6032C36.2731 14.4501 35.9731 14.2701 35.6902 14.0652C35.4088 13.8656 35.16 13.6236 34.9527 13.3478C34.7358 13.0588 34.5711 12.7341 34.4662 12.3883C34.3463 11.9809 34.2888 11.5576 34.2958 11.1329C34.2829 10.4109 34.4799 9.7006 34.863 9.08841C35.2495 8.48667 35.7918 8.00092 36.4323 7.68281C37.1513 7.3266 37.9458 7.1497 38.748 7.1672C39.2483 7.16132 39.7476 7.2117 40.2366 7.3174C40.6232 7.4046 40.999 7.5339 41.3575 7.70299C41.6312 7.83198 41.8918 7.9874 42.1354 8.16704C42.2967 8.28446 42.4467 8.41654 42.5837 8.56159C42.9065 8.8732 43.0859 9.13549 43.1195 9.3507C43.1531 9.56591 43.0276 9.85062 42.7451 10.2003C42.4627 10.5501 42.1892 10.7428 41.9269 10.7765C41.599 10.7892 41.2786 10.677 41.0302 10.4626C40.8419 10.2598 40.6296 10.0806 40.398 9.92908C40.1728 9.7875 39.927 9.68163 39.6694 9.61523C39.3609 9.5428 39.0447 9.50891 38.7278 9.51435C38.4645 9.51385 38.2025 9.5516 37.9499 9.62644C37.7186 9.6913 37.5023 9.80099 37.3133 9.94926C37.1325 10.0927 36.9872 10.276 36.8889 10.4848C36.7905 10.6936 36.7416 10.9223 36.7461 11.1531C36.7321 11.4626 36.8354 11.766 37.0353 12.0027C37.2565 12.2426 37.5294 12.4289 37.8334 12.5475C38.2037 12.7005 38.5824 12.8322 38.9677 12.942C39.3847 13.0631 39.8106 13.1931 40.2411 13.3276C40.6895 13.4768 41.1289 13.652 41.557 13.8522C41.9769 14.0465 42.3653 14.3027 42.7093 14.6122C43.0561 14.928 43.3319 15.3139 43.5185 15.7443C43.7331 16.2634 43.837 16.8215 43.8234 17.383C43.8392 18.0547 43.6939 18.7204 43.3997 19.3244C43.1259 19.86 42.7268 20.3214 42.2362 20.6695C41.7449 21.019 41.1976 21.2821 40.6177 21.4474C40.0367 21.6188 39.4345 21.7079 38.8287 21.7119Z" fill="white"/>
<path d="M46.6133 21.5313C46.3262 21.5516 46.0391 21.4918 45.7839 21.3586C45.7028 21.3093 45.6324 21.2442 45.577 21.1672C45.5215 21.0902 45.4821 21.0028 45.4611 20.9103C45.4195 20.7105 45.3992 20.5068 45.4005 20.3028V8.24194C45.3983 8.03067 45.4216 7.8199 45.47 7.61424C45.4925 7.52081 45.5337 7.4329 45.5911 7.35583C45.6485 7.27877 45.721 7.21415 45.8041 7.16588C46.0617 7.0405 46.3477 6.98484 46.6335 7.00448C46.9176 6.98253 47.2021 7.0416 47.454 7.17485C47.6141 7.27851 47.7293 7.43855 47.7768 7.62321C47.8274 7.83158 47.8515 8.04548 47.8486 8.25988V12.8107C48.1503 12.474 48.501 12.1846 48.8888 11.9521C49.3573 11.6762 49.8944 11.5386 50.4378 11.5553C51.2139 11.5423 51.9779 11.749 52.6415 12.1516C53.2947 12.5554 53.8262 13.1287 54.1794 13.8105C54.5679 14.5735 54.7619 15.4205 54.7443 16.2765V20.3117C54.7458 20.5121 54.7255 20.712 54.6838 20.908C54.6641 20.9982 54.6261 21.0833 54.5721 21.1581C54.5181 21.233 54.4493 21.2959 54.3699 21.3429C54.1098 21.4705 53.8204 21.5262 53.5315 21.5044C53.2522 21.5228 52.973 21.4672 52.7222 21.3429C52.6405 21.2962 52.5689 21.2337 52.5116 21.159C52.4542 21.0844 52.4123 20.999 52.3882 20.908C52.3385 20.6988 52.3151 20.4842 52.3187 20.2691V16.2631C52.331 15.8353 52.2475 15.4102 52.0743 15.0189C51.9205 14.6841 51.6709 14.4025 51.357 14.2096C51.0043 14.0046 50.6012 13.9029 50.1935 13.9159C49.6104 13.8984 49.0414 14.0963 48.5951 14.4719C48.1703 14.8329 47.9026 15.345 47.8486 15.8999V20.3184C47.8496 20.5224 47.8255 20.7257 47.7768 20.9237C47.7553 21.0161 47.7157 21.1033 47.6603 21.1802C47.6049 21.2572 47.5348 21.3224 47.454 21.3721C47.1929 21.4988 46.9027 21.5537 46.6133 21.5313Z" fill="white"/>
<path d="M57.7409 21.5308C57.4565 21.5525 57.1719 21.4926 56.9204 21.3582C56.7608 21.2559 56.648 21.0948 56.6066 20.9099C56.5644 20.7033 56.5441 20.4929 56.546 20.2822V12.7722C56.5444 12.5608 56.5685 12.35 56.6178 12.1445C56.6385 12.0536 56.6779 11.9679 56.7335 11.8931C56.789 11.8182 56.8596 11.7557 56.9406 11.7096C57.197 11.5909 57.4793 11.5392 57.7611 11.5594C58.0346 11.5417 58.3083 11.5902 58.5592 11.7006C58.7099 11.775 58.8258 11.9053 58.882 12.0638C58.9263 12.1946 58.9505 12.3314 58.9537 12.4695L58.7923 12.8327C58.8797 12.6965 58.9739 12.5648 59.0748 12.4381C59.217 12.2638 59.3804 12.1079 59.5612 11.9741C59.7824 11.8081 60.0282 11.678 60.2898 11.5885C60.6158 11.4812 60.9577 11.4304 61.3009 11.4383C61.4739 11.439 61.6465 11.4555 61.8165 11.4876C62.0011 11.522 62.1831 11.5692 62.3612 11.6289C62.535 11.6828 62.7014 11.7581 62.8567 11.853C62.9955 11.9369 63.1135 12.0511 63.2019 12.1871C63.2833 12.3174 63.3253 12.4684 63.323 12.622C63.3356 13.0111 63.2224 13.394 63.0001 13.7137C62.9187 13.8459 62.806 13.956 62.6718 14.0342C62.5377 14.1124 62.3864 14.1564 62.2312 14.1621C62.0793 14.1701 61.9272 14.1496 61.7828 14.1015C61.7033 14.0661 61.6281 14.0218 61.5587 13.9693C61.4776 13.9123 61.3884 13.8677 61.2941 13.837C61.1198 13.7891 60.939 13.7687 60.7583 13.7765C60.5488 13.7777 60.3408 13.8117 60.1419 13.8774C59.9337 13.945 59.7388 14.0482 59.5657 14.1823C59.3892 14.3179 59.2439 14.4899 59.1398 14.6867C59.0283 14.9058 58.9728 15.1492 58.9784 15.3951V20.318C58.9806 20.5251 58.9603 20.7318 58.9178 20.9345C58.8971 21.0254 58.8577 21.111 58.8021 21.1859C58.7466 21.2608 58.676 21.3233 58.595 21.3694C58.3292 21.4965 58.0348 21.5521 57.7409 21.5308Z" fill="white"/>
<path d="M73.2339 21.4913C72.9241 21.5168 72.6148 21.4379 72.3551 21.2672C72.2647 21.1935 72.1916 21.1009 72.1409 20.996C72.0901 20.891 72.063 20.7762 72.0614 20.6596L72.2026 19.9871C72.0486 20.2161 71.8646 20.4234 71.6557 20.6036C71.3593 20.8666 71.0215 21.0787 70.6558 21.2313C70.1772 21.4258 69.6635 21.519 69.1471 21.5048C68.5274 21.5082 67.9147 21.3734 67.3537 21.1102C66.792 20.8463 66.2872 20.4755 65.8674 20.0185C65.4347 19.5526 65.0919 19.0107 64.8563 18.4201C64.6112 17.8056 64.4886 17.1492 64.4954 16.4877C64.4913 15.8463 64.6155 15.2106 64.8608 14.618C65.3409 13.4552 66.2345 12.5112 67.3694 11.9682C67.9244 11.7038 68.5323 11.5689 69.1471 11.5737C69.6194 11.5632 70.0897 11.6391 70.5348 11.7979C70.889 11.9294 71.2198 12.1171 71.5144 12.3538C71.7673 12.5567 71.9933 12.791 72.187 13.051L72.0861 12.4659C72.0726 12.341 72.0894 12.2147 72.135 12.0976C72.1807 11.9805 72.2539 11.8762 72.3484 11.7934C72.6093 11.6528 72.8992 11.5742 73.1954 11.5637C73.4917 11.5532 73.7863 11.6111 74.0566 11.7328C74.1383 11.7867 74.2083 11.8566 74.2622 11.9383C74.3162 12.02 74.353 12.1118 74.3705 12.2081C74.4126 12.4298 74.4329 12.655 74.431 12.8806V20.2561C74.4329 20.4669 74.4127 20.6773 74.3705 20.8838C74.3525 20.9764 74.3153 21.0641 74.2612 21.1414C74.2071 21.2186 74.1374 21.2836 74.0566 21.3322C73.8019 21.4588 73.5175 21.5139 73.2339 21.4913ZM69.5125 19.1442C69.9447 19.1475 70.369 19.0286 70.7365 18.8012C71.1077 18.5707 71.411 18.2458 71.6153 17.8597C71.8338 17.4526 71.9457 16.9968 71.9404 16.5348C71.9484 16.0649 71.8332 15.6012 71.6063 15.1897C71.3937 14.8067 71.0846 14.4859 70.7096 14.2593C70.3392 14.0308 69.9119 13.9111 69.4766 13.9141C69.0176 13.9057 68.5649 14.0228 68.1675 14.2527C67.7701 14.4826 67.4429 14.8167 67.2214 15.2188C66.9958 15.6308 66.8808 16.0942 66.8874 16.5639C66.8804 17.0185 66.996 17.4666 67.222 17.8611C67.4481 18.2555 67.7762 18.5818 68.1719 18.8057C68.5809 19.0354 69.0435 19.1522 69.5125 19.1442Z" fill="white"/>
<path d="M80.6962 21.5121C80.095 21.5134 79.5009 21.3818 78.9565 21.1265C78.4052 20.8728 77.9075 20.5159 77.4904 20.0751C77.0576 19.608 76.7183 19.0624 76.4906 18.4677C76.2439 17.8395 76.1199 17.1699 76.1252 16.495C76.1218 15.2012 76.6097 13.9545 77.4904 13.0067C77.9061 12.5613 78.4039 12.2005 78.9565 11.9441C79.501 11.6891 80.0949 11.5567 80.6962 11.5563C81.3047 11.5445 81.9075 11.6758 82.456 11.9397C82.965 12.1916 83.4109 12.5548 83.7607 13.0023C84.1278 13.4708 84.4059 14.0027 84.5812 14.5715C84.7734 15.1967 84.8687 15.8476 84.8637 16.5017C84.8817 17.1558 84.7931 17.8085 84.6014 18.4341C84.4258 19.0083 84.1478 19.546 83.7809 20.0213C83.4211 20.495 82.9537 20.8761 82.4172 21.1331C81.8807 21.39 81.2908 21.5153 80.6962 21.4986V21.5121ZM81.0414 19.1448C81.4791 19.1508 81.9098 19.0352 82.2856 18.8107C82.6593 18.5875 82.9684 18.2707 83.1823 17.8916C83.4104 17.4806 83.5256 17.0165 83.5163 16.5465C83.5239 16.0778 83.412 15.615 83.1913 15.2015C82.9834 14.8173 82.673 14.4983 82.2946 14.2801C81.9082 14.0554 81.4681 13.94 81.0212 13.9461C80.5823 13.9417 80.1504 14.056 79.7711 14.277C79.3919 14.498 79.0794 14.8174 78.8669 15.2015C78.64 15.6129 78.5248 16.0767 78.5328 16.5465C78.5235 17.0165 78.6388 17.4806 78.8669 17.8916C79.0813 18.2749 79.3959 18.5926 79.777 18.8107C80.1607 19.0338 80.5976 19.1492 81.0414 19.1448ZM84.7852 21.5121C84.4921 21.5325 84.1995 21.4654 83.9445 21.3193C83.849 21.2456 83.7701 21.1526 83.7129 21.0464C83.6558 20.9402 83.6216 20.8231 83.6127 20.7028V8.26312C83.6109 8.05285 83.6274 7.84283 83.662 7.63542C83.6786 7.54489 83.7132 7.45858 83.7636 7.38159C83.814 7.30459 83.8794 7.23845 83.9557 7.18706C84.2031 7.05257 84.4844 6.99335 84.765 7.01669C85.0473 6.9957 85.3301 7.05147 85.5833 7.1781C85.6646 7.22737 85.7353 7.29242 85.7911 7.36942C85.8469 7.44642 85.8868 7.53382 85.9083 7.62646C85.9568 7.83211 85.9801 8.04288 85.9778 8.25416V20.2769C85.9804 20.4881 85.957 20.6989 85.9083 20.9046C85.8653 21.0888 85.7529 21.2494 85.5945 21.3529C85.3445 21.4794 85.0645 21.5345 84.7852 21.5121Z" fill="white"/>
<path d="M92.3261 21.512C91.7255 21.5136 91.1321 21.3819 90.5887 21.1264C90.0363 20.8733 89.5378 20.5164 89.1203 20.075C88.6885 19.6106 88.3491 19.0681 88.1205 18.4766C87.8738 17.8484 87.7497 17.1787 87.755 16.5038C87.7516 15.2101 88.2396 13.9633 89.1203 13.0156C89.5363 12.5696 90.035 12.2088 90.5887 11.953C91.1316 11.6946 91.7248 11.5591 92.3261 11.5562C92.9346 11.5444 93.5374 11.6757 94.0859 11.9396C94.5949 12.1915 95.0408 12.5547 95.3906 13.0022C95.7586 13.4701 96.0368 14.0022 96.2111 14.5714C96.4033 15.1966 96.4986 15.8475 96.4935 16.5016C96.5116 17.1557 96.423 17.8084 96.2312 18.434C96.0567 19.0086 95.7786 19.5465 95.4107 20.0212C95.051 20.4949 94.5836 20.876 94.0471 21.133C93.5106 21.3899 92.9206 21.5152 92.3261 21.4985V21.512ZM92.6713 19.1447C93.1089 19.1507 93.5397 19.0351 93.9155 18.8106C94.2892 18.5874 94.5983 18.2706 94.8122 17.8915C95.0403 17.4805 95.1555 17.0164 95.1462 16.5464C95.1538 16.0778 95.0419 15.6149 94.8212 15.2014C94.6133 14.8172 94.3028 14.4982 93.9244 14.28C93.5381 14.0553 93.098 13.9399 92.6511 13.946C92.2122 13.9416 91.7803 14.0559 91.401 14.2769C91.0218 14.4979 90.7093 14.8173 90.4968 15.2014C90.2698 15.6128 90.1547 16.0766 90.1627 16.5464C90.1534 17.0164 90.2687 17.4805 90.4968 17.8915C90.7139 18.2759 91.0302 18.595 91.4127 18.8154C91.7952 19.0359 92.2298 19.1496 92.6713 19.1447ZM96.4128 21.512C96.1204 21.5327 95.8284 21.4656 95.5744 21.3192C95.4783 21.2459 95.3988 21.1531 95.3412 21.0468C95.2836 20.9405 95.2493 20.8232 95.2404 20.7027V8.26303C95.2386 8.05276 95.2551 7.84273 95.2897 7.63533C95.3063 7.54479 95.3408 7.45849 95.3913 7.38149C95.4417 7.30449 95.507 7.23836 95.5834 7.18697C95.8308 7.05272 96.1121 6.99351 96.3927 7.01659C96.675 6.9956 96.9577 7.05138 97.2109 7.178C97.2923 7.22727 97.3629 7.29233 97.4188 7.36933C97.4746 7.44633 97.5144 7.53372 97.536 7.62636C97.5844 7.83202 97.6078 8.04279 97.6055 8.25406V20.2768C97.608 20.4881 97.5847 20.6989 97.536 20.9045C97.4929 21.0887 97.3805 21.2493 97.2221 21.3528C96.9721 21.4793 96.6921 21.5344 96.4128 21.512Z" fill="white"/>
<path d="M100.783 21.5312C100.495 21.5518 100.208 21.492 99.9532 21.3586C99.8721 21.3093 99.8017 21.2442 99.7463 21.1672C99.6908 21.0902 99.6514 21.0028 99.6304 20.9103C99.5923 20.7086 99.5757 20.5034 99.5811 20.2983V8.24192C99.5788 8.03065 99.6021 7.81988 99.6505 7.61422C99.673 7.52079 99.7142 7.43288 99.7716 7.35581C99.829 7.27875 99.9015 7.21413 99.9846 7.16586C100.242 7.04017 100.528 6.98451 100.814 7.00446C101.097 6.98256 101.381 7.04165 101.632 7.17483C101.793 7.2784 101.909 7.43836 101.957 7.62319C102.007 7.83167 102.03 8.04556 102.027 8.25986V12.8107C102.33 12.4745 102.681 12.1851 103.069 11.9521C103.537 11.6767 104.074 11.5398 104.616 11.5575C105.393 11.5442 106.158 11.751 106.822 12.1538C107.475 12.5576 108.005 13.131 108.358 13.8128C108.748 14.5751 108.943 15.4225 108.925 16.2787V20.3139C108.926 20.5143 108.906 20.7143 108.864 20.9103C108.845 21.0004 108.807 21.0855 108.753 21.1604C108.699 21.2352 108.63 21.2981 108.55 21.3452C108.29 21.4727 108.001 21.5285 107.712 21.5066C107.433 21.5254 107.153 21.4697 106.903 21.3452C106.821 21.2984 106.749 21.2359 106.692 21.1612C106.635 21.0866 106.593 21.0013 106.569 20.9103C106.518 20.7011 106.494 20.4865 106.497 20.2713V16.263C106.509 15.8356 106.426 15.4108 106.255 15.0188C106.101 14.6841 105.851 14.4024 105.537 14.2096C105.185 14.0052 104.782 13.9034 104.374 13.9159C103.791 13.8984 103.222 14.0963 102.776 14.4718C102.35 14.8327 102.082 15.3447 102.027 15.8999V20.3184C102.029 20.5223 102.005 20.7256 101.957 20.9237C101.935 21.0162 101.895 21.1035 101.84 21.1804C101.784 21.2574 101.713 21.3225 101.632 21.3721C101.369 21.5008 101.075 21.5558 100.783 21.5312Z" fill="white"/>
<path d="M119.008 21.4899C118.698 21.5155 118.388 21.4366 118.127 21.2657C118.037 21.1917 117.965 21.099 117.914 20.9941C117.863 20.8893 117.836 20.7747 117.834 20.6582L117.975 19.9857C117.821 20.2142 117.638 20.4215 117.43 20.6022C117.133 20.8651 116.794 21.0772 116.428 21.2299C115.95 21.4247 115.437 21.5178 114.921 21.5034C114.302 21.5067 113.689 21.3719 113.128 21.1088C112.567 20.8438 112.062 20.4731 111.642 20.0171C111.21 19.5505 110.867 19.0088 110.631 18.4187C110.387 17.8039 110.264 17.1477 110.27 16.4863C110.266 15.8452 110.389 15.2097 110.633 14.6166C111.115 13.4549 112.008 12.5115 113.141 11.9668C113.697 11.7021 114.306 11.5672 114.921 11.5723C115.393 11.5617 115.863 11.6377 116.307 11.7964C116.663 11.9296 116.995 12.1188 117.291 12.3569C117.544 12.5595 117.77 12.7938 117.964 13.0541L117.863 12.469C117.849 12.344 117.866 12.2177 117.912 12.1006C117.957 11.9836 118.03 11.8792 118.125 11.7964C118.395 11.6222 118.715 11.5433 119.035 11.5723C119.313 11.5513 119.59 11.6105 119.835 11.7426C119.917 11.7969 119.986 11.8669 120.04 11.9485C120.094 12.0302 120.131 12.1217 120.149 12.2179C120.191 12.4395 120.212 12.6648 120.21 12.8904V20.2547C120.212 20.4655 120.191 20.6759 120.149 20.8824C120.131 20.9747 120.093 21.0621 120.039 21.1392C119.985 21.2164 119.916 21.2816 119.835 21.3308C119.579 21.4582 119.293 21.5133 119.008 21.4899ZM115.285 19.1428C115.717 19.1467 116.141 19.0277 116.509 18.7998C116.881 18.5696 117.185 18.2447 117.39 17.8582C117.607 17.451 117.719 16.9951 117.712 16.5333C117.721 16.0635 117.605 15.5998 117.378 15.1883C117.165 14.8055 116.856 14.4849 116.482 14.2579C116.11 14.0293 115.682 13.9097 115.246 13.9127C114.788 13.905 114.335 14.0224 113.938 14.2522C113.541 14.4821 113.213 14.8157 112.991 15.2174C112.766 15.6294 112.651 16.0928 112.657 16.5625C112.652 17.0168 112.768 17.4643 112.994 17.8585C113.22 18.2528 113.547 18.5793 113.942 18.8043C114.352 19.0338 114.815 19.1506 115.285 19.1428Z" fill="white"/>
</svg>
