<svg width="18" height="19" viewBox="0 0 18 19" fill="none" xmlns="http://www.w3.org/2000/svg">
<g clip-path="url(#clip0_309_29846)">
<path d="M2.72588 16.272H6.05251V10.0516H11.9464V16.272H15.273V6.85972L8.99943 2.15554L2.72588 6.86104V16.272ZM2.72588 18.1659C2.20506 18.1659 1.75922 17.9805 1.38836 17.6096C1.01747 17.2387 0.832031 16.7929 0.832031 16.272V6.85972C0.832031 6.56012 0.899365 6.27628 1.03403 6.00819C1.1687 5.74013 1.35481 5.51908 1.59236 5.34504L7.85993 0.642868C8.03446 0.517152 8.21774 0.422194 8.40976 0.357994C8.60176 0.29381 8.79951 0.261719 9.00303 0.261719C9.20655 0.261719 9.40345 0.29381 9.59373 0.357994C9.78403 0.422194 9.96576 0.517152 10.1389 0.642868L16.4065 5.34504C16.645 5.52051 16.832 5.74205 16.9675 6.00967C17.103 6.27727 17.1708 6.56062 17.1708 6.85972V16.272C17.1708 16.7929 16.985 17.2387 16.6133 17.6096C16.2417 17.9805 15.7949 18.1659 15.273 18.1659H10.1263V11.8717H7.87261V18.1659H2.72588Z" fill="black" fill-opacity="0.5"/>
</g>
<defs>
<clipPath id="clip0_309_29846">
<rect width="18" height="19" fill="white"/>
</clipPath>
</defs>
</svg>
