<svg width="20" height="20" viewBox="0 0 20 20" fill="none" xmlns="http://www.w3.org/2000/svg">
<g clip-path="url(#clip0_309_28036)">
<path d="M10.7936 6.48145V1.6481C10.7936 1.38143 10.8847 1.15695 11.067 0.974647C11.2493 0.79233 11.4738 0.701172 11.7405 0.701172H18.3521C18.6188 0.701172 18.8432 0.79233 19.0255 0.974647C19.2079 1.15695 19.299 1.38143 19.299 1.6481V6.48145C19.299 6.74811 19.2079 6.97261 19.0255 7.15492C18.8432 7.33722 18.6188 7.42837 18.3521 7.42837H11.7405C11.4738 7.42837 11.2493 7.33722 11.067 7.15492C10.8847 6.97261 10.7936 6.74811 10.7936 6.48145ZM0.701172 10.014V1.6481C0.701172 1.38143 0.79233 1.15695 0.974647 0.974647C1.15695 0.79233 1.38143 0.701172 1.6481 0.701172H8.2597C8.52636 0.701172 8.75086 0.79233 8.93317 0.974647C9.11547 1.15695 9.20662 1.38143 9.20662 1.6481V10.014C9.20662 10.2807 9.11547 10.5052 8.93317 10.6875C8.75086 10.8698 8.52636 10.961 8.2597 10.961H1.6481C1.38143 10.961 1.15695 10.8698 0.974647 10.6875C0.79233 10.5052 0.701172 10.2807 0.701172 10.014ZM10.7936 18.3342V9.96822C10.7936 9.70155 10.8847 9.47706 11.067 9.29475C11.2493 9.11245 11.4738 9.0213 11.7405 9.0213H18.3521C18.6188 9.0213 18.8432 9.11245 19.0255 9.29475C19.2079 9.47706 19.299 9.70155 19.299 9.96822V18.3342C19.299 18.6035 19.2079 18.8293 19.0255 19.0116C18.8432 19.1939 18.6188 19.2851 18.3521 19.2851H11.7405C11.4738 19.2851 11.2493 19.1939 11.067 19.0116C10.8847 18.8293 10.7936 18.6035 10.7936 18.3342ZM0.701172 18.3342V13.5008C0.701172 13.2341 0.79233 13.0096 0.974647 12.8273C1.15695 12.645 1.38143 12.5539 1.6481 12.5539H8.2597C8.52636 12.5539 8.75086 12.645 8.93317 12.8273C9.11547 13.0096 9.20662 13.2341 9.20662 13.5008V18.3342C9.20662 18.6035 9.11547 18.8293 8.93317 19.0116C8.75086 19.1939 8.52636 19.2851 8.2597 19.2851H1.6481C1.38143 19.2851 1.15695 19.1939 0.974647 19.0116C0.79233 18.8293 0.701172 18.6035 0.701172 18.3342ZM2.599 9.06712H7.3128V2.59502H2.599V9.06712ZM12.6914 17.3872H17.4052V10.9191H12.6914V17.3872ZM12.6914 5.53455H17.4052V2.59502H12.6914V5.53455ZM2.599 17.3872H7.3128V14.4517H2.599V17.3872Z" fill="black"/>
</g>
<defs>
<clipPath id="clip0_309_28036">
<rect width="20" height="20" fill="white"/>
</clipPath>
</defs>
</svg>
