<svg width="20" height="20" viewBox="0 0 20 20" fill="none" xmlns="http://www.w3.org/2000/svg">
<g clip-path="url(#clip0_309_29840)">
<path d="M10.7936 6.47949V1.64614C10.7936 1.37948 10.8847 1.15499 11.067 0.972694C11.2493 0.790377 11.4738 0.699219 11.7405 0.699219H18.3521C18.6188 0.699219 18.8432 0.790377 19.0255 0.972694C19.2079 1.15499 19.299 1.37948 19.299 1.64614V6.47949C19.299 6.74616 19.2079 6.97065 19.0255 7.15297C18.8432 7.33527 18.6188 7.42642 18.3521 7.42642H11.7405C11.4738 7.42642 11.2493 7.33527 11.067 7.15297C10.8847 6.97065 10.7936 6.74616 10.7936 6.47949ZM0.701172 10.0121V1.64614C0.701172 1.37948 0.79233 1.15499 0.974647 0.972694C1.15695 0.790377 1.38143 0.699219 1.6481 0.699219H8.2597C8.52636 0.699219 8.75086 0.790377 8.93317 0.972694C9.11547 1.15499 9.20662 1.37948 9.20662 1.64614V10.0121C9.20662 10.2788 9.11547 10.5032 8.93317 10.6855C8.75086 10.8679 8.52636 10.959 8.2597 10.959H1.6481C1.38143 10.959 1.15695 10.8679 0.974647 10.6855C0.79233 10.5032 0.701172 10.2788 0.701172 10.0121ZM10.7936 18.3322V9.96627C10.7936 9.6996 10.8847 9.47511 11.067 9.29279C11.2493 9.11049 11.4738 9.01934 11.7405 9.01934H18.3521C18.6188 9.01934 18.8432 9.11049 19.0255 9.29279C19.2079 9.47511 19.299 9.6996 19.299 9.96627V18.3322C19.299 18.6015 19.2079 18.8273 19.0255 19.0096C18.8432 19.192 18.6188 19.2831 18.3521 19.2831H11.7405C11.4738 19.2831 11.2493 19.192 11.067 19.0096C10.8847 18.8273 10.7936 18.6015 10.7936 18.3322ZM0.701172 18.3322V13.4988C0.701172 13.2322 0.79233 13.0077 0.974647 12.8254C1.15695 12.6431 1.38143 12.5519 1.6481 12.5519H8.2597C8.52636 12.5519 8.75086 12.6431 8.93317 12.8254C9.11547 13.0077 9.20662 13.2322 9.20662 13.4988V18.3322C9.20662 18.6015 9.11547 18.8273 8.93317 19.0096C8.75086 19.192 8.52636 19.2831 8.2597 19.2831H1.6481C1.38143 19.2831 1.15695 19.192 0.974647 19.0096C0.79233 18.8273 0.701172 18.6015 0.701172 18.3322ZM2.599 9.06517H7.3128V2.59307H2.599V9.06517ZM12.6914 17.3853H17.4052V10.9172H12.6914V17.3853ZM12.6914 5.53259H17.4052V2.59307H12.6914V5.53259ZM2.599 17.3853H7.3128V14.4497H2.599V17.3853Z" fill="black" fill-opacity="0.5"/>
</g>
<defs>
<clipPath id="clip0_309_29840">
<rect width="20" height="20" fill="white"/>
</clipPath>
</defs>
</svg>
