<svg width="1602" height="1633" viewBox="0 0 1602 1633" fill="none" xmlns="http://www.w3.org/2000/svg">
<g filter="url(#filter0_d_1310_156)">
<g filter="url(#filter1_f_1310_156)">
<path d="M825.384 1226.37C777.644 1230.19 728.487 1234 681.574 1231.81C634.662 1229.61 590.029 1221.41 551.334 1201.21C473.937 1160.81 420.001 1072.19 405.027 981.55C390.208 890.925 414.495 798.13 449.363 714.28C484.229 630.438 529.63 555.646 595.032 499.487C660.437 443.476 745.859 406.089 834.784 401.054C923.567 396.17 1016.14 423.645 1077.37 480.983C1138.6 538.477 1168.72 625.746 1185.7 709.909C1202.67 794.051 1206.49 874.962 1190.13 956.627C1173.77 1038.32 1137.09 1120.68 1073.9 1165.65L1073.9 1165.65C1042.39 1188.2 1004.18 1201.44 961.873 1210.01C919.565 1218.58 873.2 1222.47 825.384 1226.37ZM825.384 1226.37L825.423 1226.87M825.384 1226.37C825.383 1226.37 825.383 1226.37 825.383 1226.37L825.423 1226.87M825.423 1226.87C729.954 1234.5 628.671 1242.14 551.103 1201.65C473.534 1161.16 419.527 1072.39 404.533 981.631M825.423 1226.87C921.046 1219.07 1011.01 1211.28 1074.19 1166.05L404.533 981.631M404.533 981.631C389.693 890.871 414.019 797.972 448.902 714.088C483.785 630.204 529.224 555.335 594.706 499.107C660.188 443.031 745.713 405.597 834.756 400.555L404.533 981.631Z" fill="#F54E02" fill-opacity="0.6" stroke="black"/>
</g>
<path d="M1137.38 602.849C1198.73 660.453 1228.87 747.851 1245.85 832.04C1262.84 916.23 1266.66 997.211 1250.29 1078.96C1233.92 1160.7 1197.2 1243.21 1133.86 1288.28C1070.67 1333.51 980.714 1341.3 885.091 1349.1C789.622 1356.74 688.339 1364.38 610.771 1323.88C533.202 1283.39 479.195 1194.62 464.201 1103.86C449.361 1013.1 473.687 920.203 508.57 836.319C543.453 752.435 588.892 677.565 654.374 621.337C719.856 565.262 805.381 527.827 894.424 522.785C983.314 517.896 1076.03 545.399 1137.38 602.849Z" fill="black" fill-opacity="0.1"/>
<path d="M1137.38 602.849C1198.73 660.453 1228.87 747.851 1245.85 832.04C1262.84 916.23 1266.66 997.211 1250.29 1078.96C1233.92 1160.7 1197.2 1243.21 1133.86 1288.28C1070.67 1333.51 980.714 1341.3 885.091 1349.1C789.622 1356.74 688.339 1364.38 610.771 1323.88C533.202 1283.39 479.195 1194.62 464.201 1103.86C449.361 1013.1 473.687 920.203 508.57 836.319C543.453 752.435 588.892 677.565 654.374 621.337C719.856 565.262 805.381 527.827 894.424 522.785C983.314 517.896 1076.03 545.399 1137.38 602.849Z" stroke="black"/>
<g clip-path="url(#clip0_1310_156)">
<path d="M505.888 1435.02C560.39 1435.02 604.573 1431.82 604.573 1427.86C604.573 1423.91 560.39 1420.7 505.888 1420.7C451.386 1420.7 407.203 1423.91 407.203 1427.86C407.203 1431.82 451.386 1435.02 505.888 1435.02Z" fill="black"/>
<path d="M853.275 1439C907.777 1439 951.959 1435.79 951.959 1431.84C951.959 1427.89 907.777 1424.68 853.275 1424.68C798.773 1424.68 754.59 1427.89 754.59 1431.84C754.59 1435.79 798.773 1439 853.275 1439Z" fill="black"/>
<path d="M1190.32 1439C1244.82 1439 1289 1435.79 1289 1431.84C1289 1427.89 1244.82 1424.68 1190.32 1424.68C1135.81 1424.68 1091.63 1427.89 1091.63 1431.84C1091.63 1435.79 1135.81 1439 1190.32 1439Z" fill="black"/>
<path d="M475.248 1295.41L479.227 1300.18C479.227 1300.18 469.677 1308.53 470.075 1309.33C470.473 1310.13 486.787 1302.17 487.583 1300.98C488.379 1299.78 481.614 1291.83 481.614 1291.83L475.248 1295.41Z" fill="#F54E02"/>
<path d="M463.708 1034.08H453.76V1427.86H463.708V1034.08Z" fill="#FEAC00"/>
<path d="M550.456 1034.08H540.508V1427.86H550.456V1034.08Z" fill="#FEAC00"/>
<path d="M543.69 1391.27H460.922V1399.22H543.69V1391.27Z" fill="#FEAC00"/>
<path d="M543.69 1349.5H460.922V1357.46H543.69V1349.5Z" fill="#FEAC00"/>
<path d="M543.69 1309.33H460.922V1317.28H543.69V1309.33Z" fill="#FEAC00"/>
<path d="M543.69 1267.96H460.922V1275.92H543.69V1267.96Z" fill="#FEAC00"/>
<path d="M543.69 1226.99H460.922V1234.95H543.69V1226.99Z" fill="#FEAC00"/>
<path d="M543.69 1186.02H460.922V1193.98H543.69V1186.02Z" fill="#FEAC00"/>
<path d="M543.69 1144.66H460.922V1152.61H543.69V1144.66Z" fill="#FEAC00"/>
<path d="M543.69 1103.69H460.922V1111.64H543.69V1103.69Z" fill="#FEAC00"/>
<path d="M543.69 1062.72H460.922V1070.67H543.69V1062.72Z" fill="#FEAC00"/>
<path d="M523.397 1337.17L526.979 1342.35C526.979 1342.35 516.633 1349.9 517.031 1350.7C517.429 1351.49 534.539 1345.13 535.335 1343.94C536.131 1342.74 530.56 1334.39 530.56 1334.39L523.397 1337.17Z" fill="#F54E02"/>
<path d="M563.986 1176.08C563.986 1176.08 563.19 1206.71 542.896 1223.02C522.602 1239.32 514.246 1246.48 514.246 1246.48L532.948 1337.57L524.194 1340.36C524.194 1340.36 488.381 1291.43 487.187 1252.05C485.993 1212.67 519.817 1168.12 519.817 1168.12L563.986 1176.08Z" fill="black"/>
<path d="M493.553 1177.27C493.553 1177.27 429.886 1195.17 422.723 1220.23C415.561 1244.89 442.619 1288.65 474.453 1301.77L484.401 1293.02C484.401 1293.02 454.557 1248.47 453.363 1230.18C453.363 1230.18 528.968 1234.95 538.916 1191.19C548.865 1147.44 493.553 1177.27 493.553 1177.27Z" fill="black"/>
<path d="M293 787.465V819.684C305.734 843.549 323.64 865.824 349.505 884.917C445.006 956.514 565.975 1021.75 588.258 1141.47C619.296 1309.33 904.607 1370.19 1045.87 1258.81C1092.03 1222.62 1126.25 1195.17 1155.3 1174.89V787.465H293Z" fill="white"/>
<path d="M1136.6 707.117H311.702C301.356 707.117 293 715.47 293 725.812V799.398H1155.3V725.812C1155.3 715.47 1146.94 707.117 1136.6 707.117Z" fill="#1F1F1F"/>
<path d="M1018.2 758.302C1018.2 762.845 1014.56 766.706 1009.78 766.706C1005.24 766.706 1001.37 763.072 1001.37 758.302C1001.37 753.76 1005.01 749.898 1009.78 749.898C1014.56 749.898 1018.2 753.76 1018.2 758.302Z" fill="#6B8BFA"/>
<path d="M1059.51 758.302C1059.51 762.845 1055.87 766.706 1051.09 766.706C1046.54 766.706 1042.68 763.072 1042.68 758.302C1042.68 753.76 1046.32 749.898 1051.09 749.898C1055.64 749.898 1059.51 753.76 1059.51 758.302Z" fill="#59C54F"/>
<path d="M1100.82 758.302C1100.82 762.845 1097.18 766.706 1092.4 766.706C1087.85 766.706 1083.99 763.072 1083.99 758.302C1083.99 753.76 1087.63 749.898 1092.4 749.898C1097.18 749.898 1100.82 753.76 1100.82 758.302Z" fill="#EC5B72"/>
<path d="M670.628 771.554H340.353C333.19 771.554 327.619 765.588 327.619 758.826C327.619 751.666 333.588 746.098 340.353 746.098H670.628C677.791 746.098 683.362 752.064 683.362 758.826C683.76 765.588 677.791 771.554 670.628 771.554Z" fill="#ECF3FA"/>
<path d="M667.844 892.871H387.309V916.737H667.844V892.871Z" fill="black"/>
<path d="M454.954 961.288H667.445V937.422H422.723C433.467 945.377 444.608 953.332 454.954 961.288Z" fill="black"/>
<path d="M849.694 1113.63C849.694 1113.63 809.106 1134.31 806.719 1175.28C804.331 1216.25 871.182 1195.17 878.345 1168.12C885.507 1141.07 869.59 1107.66 849.694 1113.63Z" fill="#57A1FF"/>
<path d="M525.784 926.285C525.784 926.285 521.804 906.397 520.213 905.601C518.621 904.806 518.621 924.694 518.621 924.694L525.784 926.285Z" fill="#FFD2B0"/>
<path d="M515.439 1074.65C515.439 1074.65 516.633 999.473 529.765 992.314C542.896 985.154 555.63 1007.83 558.415 1038.45C561.201 1069.48 550.855 1121.59 515.439 1074.65Z" fill="#F54E02"/>
<path d="M518.623 999.472V925.09H526.581C526.581 925.09 546.478 968.844 546.478 1004.64L518.623 999.472Z" fill="#F54E02"/>
<path d="M518.622 922.706C518.224 922.308 512.653 915.944 513.449 914.353C514.245 912.762 517.428 916.342 517.428 916.342C517.428 916.342 520.611 915.148 521.407 918.331C521.805 921.513 520.611 923.899 518.622 922.706Z" fill="#FFD2B0"/>
<path d="M1169.46 1007.78C1199.02 1020.94 1203.24 1061.16 1177.05 1080.15L964.623 1234.17C938.459 1253.14 901.561 1236.68 898.19 1204.54L870.844 943.803C867.472 911.658 900.154 887.921 929.686 901.064L1169.46 1007.78Z" fill="#F54E02"/>
<path d="M868.395 1421.1L866.804 1427.07C866.804 1427.07 879.139 1430.65 879.139 1431.84C879.139 1433.04 860.835 1432.24 859.641 1431.45C858.447 1430.65 861.233 1420.71 861.233 1420.71L868.395 1421.1Z" fill="#F54E02"/>
<path d="M821.442 1398.03L816.666 1402.01C816.666 1402.01 825.023 1411.95 824.227 1412.75C823.829 1413.54 808.708 1402.8 808.31 1401.61C807.912 1400.42 815.473 1393.66 815.473 1393.66L821.442 1398.03Z" fill="#F54E02"/>
<path d="M821.839 1231.77C821.839 1231.77 814.676 1261.6 830.593 1282.68C846.51 1303.76 852.479 1312.52 852.479 1312.52L811.891 1396.05L819.849 1400.82C819.849 1400.82 866.804 1361.84 877.548 1324.45C888.292 1287.06 866.406 1234.95 866.406 1234.95L821.839 1231.77Z" fill="black"/>
<path d="M895.854 1229.38C895.854 1229.38 906.598 1347.12 869.591 1422.69H858.847C858.847 1422.69 862.826 1297 858.847 1282.68C858.847 1282.68 841.736 1267.96 841.736 1232.17C841.736 1196.37 895.854 1229.38 895.854 1229.38Z" fill="black"/>
<path d="M913.76 1222.62C913.76 1222.62 938.829 1233.36 974.642 1205.52H922.116L913.76 1222.62Z" fill="#00ACFF"/>
<path d="M881.528 1065.9C881.528 1065.9 892.272 1091.76 884.313 1104.49C874.365 1117.61 857.652 1103.29 857.652 1103.29L881.528 1065.9Z" fill="#FFC183"/>
<path d="M851.684 1055.56C851.684 1055.56 823.431 1069.48 847.704 1104.09C867.601 1132.73 890.68 1092.15 881.528 1066.3C872.376 1040.44 851.684 1055.56 851.684 1055.56Z" fill="#DD4288"/>
<path d="M880.334 1112.44C880.334 1112.44 910.178 1119.6 936.043 1205.91C936.043 1205.91 939.227 1221.03 923.31 1223.81C907.393 1226.6 894.659 1203.92 894.659 1203.92C894.659 1203.92 901.822 1223.02 898.638 1235.74C898.638 1235.74 869.192 1258.42 820.248 1233.36C820.248 1233.36 813.881 1155 841.736 1119.2C841.338 1119.6 855.265 1105.68 880.334 1112.44Z" fill="#00ACFF"/>
<path d="M851.683 1055.56C851.683 1055.56 831.787 1059.93 827.012 1084.99C822.236 1110.05 840.939 1114.82 827.807 1127.95C814.676 1141.08 793.984 1143.86 797.167 1165.74C800.351 1187.61 786.025 1187.61 791.198 1203.52C796.371 1219.44 834.97 1239.32 851.683 1210.68C868.395 1182.05 852.479 1164.15 863.62 1147.84C874.762 1131.13 880.333 1125.17 878.344 1111.24C876.354 1097.32 887.098 1082.21 882.323 1070.67C877.15 1059.93 862.427 1051.98 851.683 1055.56Z" fill="#DD4288"/>
<path d="M450.18 1096.53C450.18 1096.53 451.373 1079.02 453.363 1078.23C455.353 1077.43 454.159 1091.35 454.159 1091.35C454.159 1091.35 459.73 1086.58 460.128 1088.57C460.526 1090.56 458.138 1092.95 458.138 1092.95C458.138 1092.95 459.73 1095.33 458.934 1097.72C458.536 1100.9 450.18 1096.53 450.18 1096.53Z" fill="#FFD2B0"/>
<path d="M454.158 1161.76C452.168 1160.57 440.23 1137.9 449.383 1094.94L460.127 1096.13C460.127 1096.13 475.248 1128.75 472.86 1148.64C470.075 1168.52 461.32 1166.53 454.158 1161.76Z" fill="#C53642"/>
<path d="M632.476 1115.33L353.68 1084.23L351.032 1107.95L629.828 1139.05L632.476 1115.33Z" fill="#C2C2C2"/>
<path d="M623.763 1076.96L349.287 1134.89L354.22 1158.24L628.696 1100.31L623.763 1076.96Z" fill="black"/>
<path d="M504.696 1007.43C504.696 1007.43 493.952 1033.28 501.91 1046.01C511.858 1059.14 528.571 1044.82 528.571 1044.82L504.696 1007.43Z" fill="#FFD2B0"/>
<path d="M534.54 997.087C534.54 997.087 562.792 1011.01 538.519 1045.61C518.623 1074.25 495.543 1033.68 504.695 1007.83C513.848 981.972 534.54 997.087 534.54 997.087Z" fill="#9C5B40"/>
<path d="M505.889 1053.97C505.889 1053.97 476.045 1061.12 450.18 1147.44C450.18 1147.44 446.996 1162.55 462.913 1165.34C478.83 1168.12 491.564 1145.45 491.564 1145.45C491.564 1145.45 484.401 1164.54 487.585 1177.27C487.585 1177.27 517.031 1199.94 565.975 1174.89C565.975 1174.89 572.342 1096.53 544.487 1060.73C544.487 1061.12 530.958 1047.2 505.889 1053.97Z" fill="#F54E02"/>
<path d="M543.691 1007.43C543.691 1007.43 543.691 990.326 530.958 984.359C518.224 978.393 501.113 981.177 502.307 991.121C503.899 1000.67 530.56 1015.38 543.691 1007.43Z" fill="#9C5B40"/>
<path d="M1223.53 868.744C1237.82 868.744 1249.4 857.169 1249.4 842.89C1249.4 828.611 1237.82 817.035 1223.53 817.035C1209.25 817.035 1197.67 828.611 1197.67 842.89C1197.67 857.169 1209.25 868.744 1223.53 868.744Z" fill="white"/>
<path d="M1185.73 791.177C1191.23 791.177 1195.68 786.725 1195.68 781.233C1195.68 775.741 1191.23 771.289 1185.73 771.289C1180.24 771.289 1175.78 775.741 1175.78 781.233C1175.78 786.725 1180.24 791.177 1185.73 791.177Z" fill="white"/>
<path d="M1274.67 1167.33C1280.17 1167.33 1284.62 1162.88 1284.62 1157.39C1284.62 1151.89 1280.17 1147.44 1274.67 1147.44C1269.18 1147.44 1264.73 1151.89 1264.73 1157.39C1264.73 1162.88 1269.18 1167.33 1274.67 1167.33Z" fill="#F54E02"/>
<path d="M1189.12 1421.1L1190.71 1427.07C1190.71 1427.07 1178.38 1430.65 1178.38 1431.84C1178.38 1433.03 1196.68 1432.24 1197.88 1431.44C1199.07 1430.65 1196.29 1420.7 1196.29 1420.7L1189.12 1421.1Z" fill="#F54E02"/>
<path d="M1236.08 1398.03L1240.85 1402.01C1240.85 1402.01 1232.5 1411.95 1233.29 1412.74C1233.69 1413.54 1248.81 1402.8 1249.21 1401.61C1249.61 1400.41 1242.05 1393.65 1242.05 1393.65L1236.08 1398.03Z" fill="#F54E02"/>
<path d="M1235.28 1231.77C1235.28 1231.77 1242.44 1261.6 1226.53 1282.68C1210.61 1303.76 1204.64 1312.51 1204.64 1312.51L1245.23 1396.04L1237.27 1400.81C1237.27 1400.81 1190.32 1361.83 1179.57 1324.44C1168.83 1287.05 1190.71 1234.95 1190.71 1234.95L1235.28 1231.77Z" fill="black"/>
<path d="M1161.27 1229.38C1161.27 1229.38 1150.52 1347.12 1187.53 1422.69H1198.27C1198.27 1422.69 1194.3 1297 1198.27 1282.68C1198.27 1282.68 1215.39 1267.96 1215.39 1232.16C1215.39 1196.36 1161.27 1229.38 1161.27 1229.38Z" fill="black"/>
<path d="M1143.76 1222.62C1143.76 1222.62 1118.69 1233.36 1082.88 1205.51H1135.4L1143.76 1222.62Z" fill="#F54E02"/>
<path d="M1197.08 984.754C1197.08 984.754 1193.1 964.866 1191.51 964.07C1189.92 963.275 1189.92 983.163 1189.92 983.163L1197.08 984.754Z" fill="#FFD2B0"/>
<path d="M1186.73 1133.12C1186.73 1133.12 1187.93 1057.94 1201.06 1050.78C1214.19 1043.62 1226.92 1066.3 1229.71 1096.92C1232.5 1127.95 1222.15 1179.66 1186.73 1133.12Z" fill="#F54E02"/>
<path d="M1189.52 1057.94V983.164H1197.48C1197.48 983.164 1217.37 1026.92 1217.37 1062.72L1189.52 1057.94Z" fill="#F54E02"/>
<path d="M1175.59 1065.9C1175.59 1065.9 1164.85 1091.75 1172.81 1104.48C1182.75 1117.61 1199.47 1103.29 1199.47 1103.29L1175.59 1065.9Z" fill="#FFC183"/>
<path d="M1205.83 1055.56C1205.83 1055.56 1234.09 1069.48 1209.81 1104.08C1189.92 1132.72 1166.84 1092.15 1175.99 1066.3C1185.14 1040.44 1205.83 1055.56 1205.83 1055.56Z" fill="#424261"/>
<path d="M1177.18 1112.43C1177.18 1112.43 1147.34 1119.59 1121.47 1205.91C1121.47 1205.91 1118.29 1221.02 1134.21 1223.81C1150.13 1226.59 1162.86 1203.92 1162.86 1203.92C1162.86 1203.92 1155.7 1223.01 1158.88 1235.74C1158.88 1235.74 1188.33 1258.41 1237.27 1233.35C1237.27 1233.35 1243.64 1154.99 1215.78 1119.2C1215.78 1119.59 1201.86 1105.67 1177.18 1112.43Z" fill="#F54E02"/>
<path d="M1189.52 981.175C1189.12 980.777 1183.55 974.413 1184.35 972.822C1185.14 971.231 1188.33 974.811 1188.33 974.811C1188.33 974.811 1191.51 973.617 1192.31 976.799C1193.1 979.584 1191.91 982.368 1189.52 981.175Z" fill="#FFD2B0"/>
</g>
</g>
<defs>
<filter id="filter0_d_1310_156" x="289" y="400" width="1004" height="1047" filterUnits="userSpaceOnUse" color-interpolation-filters="sRGB">
<feFlood flood-opacity="0" result="BackgroundImageFix"/>
<feColorMatrix in="SourceAlpha" type="matrix" values="0 0 0 0 0 0 0 0 0 0 0 0 0 0 0 0 0 0 127 0" result="hardAlpha"/>
<feOffset dy="4"/>
<feGaussianBlur stdDeviation="2"/>
<feComposite in2="hardAlpha" operator="out"/>
<feColorMatrix type="matrix" values="0 0 0 0 0 0 0 0 0 0 0 0 0 0 0 0 0 0 0.25 0"/>
<feBlend mode="normal" in2="BackgroundImageFix" result="effect1_dropShadow_1310_156"/>
<feBlend mode="normal" in="SourceGraphic" in2="effect1_dropShadow_1310_156" result="shape"/>
</filter>
<filter id="filter1_f_1310_156" x="0.0976562" y="0" width="1601.01" height="1632.95" filterUnits="userSpaceOnUse" color-interpolation-filters="sRGB">
<feFlood flood-opacity="0" result="BackgroundImageFix"/>
<feBlend mode="normal" in="SourceGraphic" in2="BackgroundImageFix" result="shape"/>
<feGaussianBlur stdDeviation="200" result="effect1_foregroundBlur_1310_156"/>
</filter>
<clipPath id="clip0_1310_156">
<rect x="293" y="707.117" width="996" height="731.884" fill="white"/>
</clipPath>
</defs>
</svg>
