<svg width="20" height="20" viewBox="0 0 20 20" fill="none" xmlns="http://www.w3.org/2000/svg">
<g clip-path="url(#clip0_309_29851)">
<path d="M2.66608 19.1669C2.17005 19.1669 1.74036 18.9852 1.37703 18.6219C1.0137 18.2586 0.832031 17.8289 0.832031 17.3329V2.66615C0.832031 2.17088 1.0137 1.74073 1.37703 1.3757C1.74036 1.01065 2.17005 0.828125 2.66608 0.828125H14.0328L19.1708 5.96618V17.3329C19.1708 17.8289 18.9883 18.2586 18.6232 18.6219C18.2582 18.9852 17.828 19.1669 17.3328 19.1669H2.66608ZM2.72588 17.2731H17.273V6.989H13.9569C13.6902 6.989 13.4657 6.89784 13.2834 6.71553C13.1011 6.53323 13.0099 6.30874 13.0099 6.04208V2.72595H2.72588V17.2731ZM5.78083 14.7763H14.2188C14.4575 14.7763 14.659 14.6949 14.8234 14.5322C14.9877 14.3695 15.0699 14.1678 15.0699 13.9272C15.0699 13.6867 14.9874 13.4847 14.8225 13.3211C14.6576 13.1576 14.4561 13.0758 14.218 13.0758H5.78003C5.5414 13.0758 5.33989 13.1585 5.17551 13.324C5.01114 13.4895 4.92896 13.6925 4.92896 13.9331C4.92896 14.1737 5.01142 14.3743 5.17636 14.5351C5.34129 14.6959 5.54278 14.7763 5.78083 14.7763ZM5.78221 6.96308H9.29963C9.53858 6.96308 9.74053 6.88033 9.90548 6.71485C10.0704 6.54935 10.1529 6.3467 10.1529 6.1069C10.1529 5.86712 10.0704 5.66545 9.90548 5.5019C9.74053 5.33835 9.53858 5.25658 9.29963 5.25658H5.78221C5.54324 5.25658 5.34129 5.33933 5.17636 5.50483C5.01142 5.67031 4.92896 5.87295 4.92896 6.11275C4.92896 6.35255 5.01142 6.55422 5.17636 6.71778C5.34129 6.88131 5.54324 6.96308 5.78221 6.96308ZM5.78083 10.8727H14.2188C14.4575 10.8727 14.659 10.7899 14.8234 10.6244C14.9877 10.459 15.0699 10.2563 15.0699 10.0165C15.0699 9.7767 14.9874 9.57503 14.8225 9.4115C14.6576 9.24795 14.4561 9.16617 14.218 9.16617H5.78003C5.5414 9.16617 5.33989 9.24893 5.17551 9.41442C5.01114 9.57991 4.92896 9.78255 4.92896 10.0224C4.92896 10.2622 5.01142 10.4638 5.17636 10.6274C5.34129 10.7909 5.54278 10.8727 5.78083 10.8727Z" fill="black"/>
</g>
<defs>
<clipPath id="clip0_309_29851">
<rect width="20" height="20" fill="white"/>
</clipPath>
</defs>
</svg>
