<svg width="18" height="19" viewBox="0 0 18 19" fill="none" xmlns="http://www.w3.org/2000/svg">
<g clip-path="url(#clip0_309_30342)">
<path d="M2.72588 16.274H6.05251V10.0535H11.9464V16.274H15.273V6.86167L8.99943 2.1575L2.72588 6.863V16.274ZM2.72588 18.1678C2.20506 18.1678 1.75922 17.9824 1.38836 17.6115C1.01747 17.2407 0.832031 16.7948 0.832031 16.274V6.86167C0.832031 6.56207 0.899365 6.27823 1.03403 6.01015C1.1687 5.74208 1.35481 5.52103 1.59236 5.347L7.85993 0.644822C8.03446 0.519105 8.21774 0.424147 8.40976 0.359947C8.60176 0.295763 8.79951 0.263672 9.00303 0.263672C9.20655 0.263672 9.40345 0.295763 9.59373 0.359947C9.78403 0.424147 9.96576 0.519105 10.1389 0.644822L16.4065 5.347C16.645 5.52246 16.832 5.744 16.9675 6.01162C17.103 6.27922 17.1708 6.56257 17.1708 6.86167V16.274C17.1708 16.7948 16.985 17.2407 16.6133 17.6115C16.2417 17.9824 15.7949 18.1678 15.273 18.1678H10.1263V11.8736H7.87261V18.1678H2.72588Z" fill="black"/>
</g>
<defs>
<clipPath id="clip0_309_30342">
<rect width="18" height="19" fill="white"/>
</clipPath>
</defs>
</svg>
