<svg width="50" height="50" viewBox="0 0 50 50" fill="none" xmlns="http://www.w3.org/2000/svg">
<rect x="1" y="1" width="48" height="48" rx="7" stroke="white" stroke-width="2"/>
<g clip-path="url(#clip0_309_28526)">
<path d="M18.7259 32.272H22.0525V26.0516H27.9464V32.272H31.273V22.8597L24.9994 18.1555L18.7259 22.861V32.272ZM18.7259 34.1659C18.2051 34.1659 17.7592 33.9805 17.3884 33.6096C17.0175 33.2387 16.832 32.7929 16.832 32.272V22.8597C16.832 22.5601 16.8994 22.2763 17.034 22.0082C17.1687 21.7401 17.3548 21.5191 17.5924 21.345L23.8599 16.6429C24.0345 16.5172 24.2177 16.4222 24.4098 16.358C24.6018 16.2938 24.7995 16.2617 25.003 16.2617C25.2065 16.2617 25.4034 16.2938 25.5937 16.358C25.784 16.4222 25.9658 16.5172 26.1389 16.6429L32.4065 21.345C32.645 21.5205 32.832 21.7421 32.9675 22.0097C33.103 22.2773 33.1708 22.5606 33.1708 22.8597V32.272C33.1708 32.7929 32.985 33.2387 32.6133 33.6096C32.2417 33.9805 31.7949 34.1659 31.273 34.1659H26.1263V27.8717H23.8726V34.1659H18.7259Z" fill="white"/>
</g>
<defs>
<clipPath id="clip0_309_28526">
<rect width="18" height="19" fill="white" transform="translate(16 16)"/>
</clipPath>
</defs>
</svg>
