<svg width="37" height="37" viewBox="0 0 37 37" fill="none" xmlns="http://www.w3.org/2000/svg">
<path d="M27.2043 12.2083C26.6275 12.4967 25.9546 12.6409 25.3298 12.737C25.6182 12.6889 26.0507 12.1602 26.243 11.9199C26.5314 11.5834 26.7236 11.1989 26.8678 10.7664C26.8678 10.7183 26.9159 10.6702 26.8678 10.6702C26.8198 10.6702 26.8198 10.6702 26.7717 10.6702C26.0507 11.0547 25.3298 11.3431 24.5607 11.5354C24.5127 11.5354 24.4646 11.5354 24.4166 11.4873C24.3685 11.3912 24.2724 11.3431 24.2243 11.2951C23.8878 11.0067 23.5514 10.8144 23.1669 10.6222C22.6382 10.4299 22.0614 10.3338 21.5327 10.3338C21.004 10.3818 20.4272 10.526 19.9466 10.7664C19.466 11.0067 19.0334 11.3912 18.6969 11.7757C18.3605 12.2083 18.0721 12.737 17.9279 13.2657C17.7837 13.7944 17.8318 14.3231 17.8798 14.8518C17.8798 14.9479 17.8798 14.9479 17.7837 14.9479C14.7076 14.5154 12.2083 13.4099 10.1415 11.0547C10.0454 10.9586 9.99733 10.9586 9.94927 11.0547C9.03605 12.4005 9.46862 14.5634 10.6222 15.6208C10.7664 15.765 10.9105 15.9092 11.1028 16.0534C11.0547 16.0534 10.2857 16.0053 9.61282 15.6208C9.51669 15.5728 9.46862 15.6208 9.46862 15.717C9.46862 15.8611 9.46862 16.0053 9.51669 16.1495C9.70894 17.4953 10.6222 18.7931 11.9199 19.2737C12.0641 19.3218 12.2563 19.4179 12.4005 19.4179C12.1121 19.466 11.8238 19.514 10.9586 19.466C10.8625 19.466 10.8144 19.514 10.8625 19.6101C11.4873 21.3405 12.8812 21.8692 13.8905 22.1575C14.0347 22.1575 14.1789 22.1575 14.3231 22.2056C14.3231 22.2056 14.3231 22.2056 14.275 22.2537C13.9386 22.7824 12.737 23.1669 12.2083 23.3591C11.1989 23.6956 10.0935 23.8879 9.03605 23.7437C8.84379 23.6956 8.84379 23.7437 8.79573 23.7437C8.74766 23.7917 8.79573 23.7917 8.84379 23.8398C9.03605 23.984 9.27637 24.1282 9.51669 24.2243C10.1896 24.5607 10.9105 24.8491 11.6315 25.0895C15.4286 26.1469 19.6582 25.3778 22.5421 22.5421C24.753 20.3311 25.5701 17.255 25.5701 14.227C25.5701 14.1308 25.7143 14.0347 25.8104 13.9866C26.3872 13.5541 26.9159 13.0254 27.3485 12.4486C27.4446 12.3044 27.4927 12.2083 27.4927 12.1602C27.3004 12.1602 27.2523 12.1602 27.2043 12.2083Z" fill="black"/>
<path d="M18.024 0C8.07477 0 0 8.07477 0 18.024C0 27.9733 8.07477 36.0481 18.024 36.0481C27.9733 36.0481 36.0481 27.9733 36.0481 18.024C36 8.07477 27.9252 0 18.024 0ZM18.024 33.6929C9.3725 33.6929 2.30708 26.6275 2.30708 17.976C2.30708 9.32443 9.3725 2.25901 18.024 2.25901C26.6756 2.25901 33.741 9.32443 33.741 17.976C33.6929 26.6756 26.6756 33.6929 18.024 33.6929Z" fill="black"/>
</svg>
