<svg width="479" height="499" viewBox="0 0 479 499" fill="none" xmlns="http://www.w3.org/2000/svg">
<path d="M405.213 48.2965C441.901 82.8052 459.925 135.163 470.08 185.599C480.236 236.035 482.523 284.548 472.733 333.519C462.944 382.491 440.986 431.919 403.109 458.922C365.323 486.017 311.526 490.685 254.344 495.353C197.254 499.93 136.687 504.507 90.3008 480.25C43.9149 455.993 11.6185 402.811 2.65241 348.44C-6.22223 294.068 8.32484 238.415 29.1848 188.162C50.0448 137.909 77.2176 93.0571 116.376 59.3722C155.534 25.7789 206.677 3.35288 259.925 0.332231C313.082 -2.59689 368.525 13.8794 405.213 48.2965Z" fill="black" fill-opacity="0.04"/>
</svg>
