<svg width="393" height="1002" viewBox="0 0 393 1002" fill="none" xmlns="http://www.w3.org/2000/svg">
<mask id="mask0_309_33670" style="mask-type:alpha" maskUnits="userSpaceOnUse" x="0" y="0" width="393" height="1002">
<rect width="393" height="1002" fill="black"/>
</mask>
<g mask="url(#mask0_309_33670)">
<path d="M588.488 631.137C637.967 677.679 662.274 748.294 675.97 816.317C689.667 884.339 692.751 949.769 679.549 1015.82C666.346 1081.86 636.733 1148.53 585.65 1184.95C534.69 1221.49 462.138 1227.79 385.02 1234.08C308.025 1240.25 226.342 1246.43 163.784 1213.71C101.225 1181 57.6692 1109.27 45.5771 1035.94C33.6084 962.608 53.2272 887.549 81.3599 819.773C109.493 751.998 146.139 691.506 198.949 646.075C251.76 600.768 320.734 570.522 392.546 566.448C464.235 562.498 539.009 584.719 588.488 631.137Z" fill="white" fill-opacity="0.1"/>
</g>
</svg>
