<svg width="330" height="506" viewBox="0 0 330 506" fill="none" xmlns="http://www.w3.org/2000/svg">
<path d="M411.135 48.974C448.359 83.9668 466.646 137.059 476.95 188.203C487.254 239.346 489.575 288.54 479.642 338.198C469.709 387.856 447.431 437.978 409 465.36C370.662 492.834 316.079 497.568 258.061 502.302C200.137 506.943 138.684 511.584 91.6205 486.987C44.5566 462.39 11.7883 408.462 2.69117 353.328C-6.31316 298.193 8.4465 241.759 29.6113 190.801C50.7761 139.844 78.3461 94.3625 118.076 60.2051C157.807 26.1406 209.698 3.39992 263.724 0.336891C317.657 -2.63332 373.911 14.0741 411.135 48.974Z" fill="black" fill-opacity="0.1"/>
</svg>
